<svg width="65" height="65" viewBox="0 0 65 65" fill="none" xmlns="http://www.w3.org/2000/svg">
<rect width="65" height="65" rx="32.5" fill="#49BD86"/>
<path d="M35.0796 44.9299H37.6608C38.4969 44.9299 38.9462 44.4433 38.9462 43.5998V27.4447L40.775 43.8053C40.869 44.6487 41.3602 45.0921 42.1858 44.984L43.8683 44.7352C44.6834 44.6271 45.0805 44.1081 44.9864 43.2538L42.9904 25.3145C42.8964 24.4711 42.4052 24.0277 41.5692 24.1467L39.8972 24.3954C39.4478 24.4495 39.1343 24.6333 38.9462 24.9144V22.3409C38.9462 21.4866 38.4969 21 37.6608 21H35.0796C34.2436 21 33.7943 21.4866 33.7943 22.3409V43.5998C33.7943 44.4433 34.2436 44.9299 35.0796 44.9299ZM21.2854 44.9299H23.2605C24.086 44.9299 24.5458 44.4433 24.5458 43.5998V25.3361C24.5458 24.4819 24.086 23.9953 23.2605 23.9953H21.2854C20.4494 23.9953 20 24.4819 20 25.3361V43.5998C20 44.4433 20.4494 44.9299 21.2854 44.9299ZM27.0539 44.9299H31.2862C32.1222 44.9299 32.5716 44.4433 32.5716 43.5998V29.0235C32.5716 28.18 32.1222 27.6934 31.2862 27.6934H27.0539C26.2179 27.6934 25.7581 28.18 25.7581 29.0235V43.5998C25.7581 44.4433 26.2179 44.9299 27.0539 44.9299ZM28.0467 31.5538C27.6704 31.5538 27.3883 31.2618 27.3883 30.8834C27.3883 30.5157 27.6704 30.2238 28.0467 30.2238H30.3143C30.6801 30.2238 30.9518 30.5157 30.9518 30.8834C30.9518 31.2618 30.6801 31.5538 30.3143 31.5538H28.0467ZM28.0467 42.4104C27.6704 42.4104 27.3883 42.1184 27.3883 41.74C27.3883 41.3723 27.6704 41.0803 28.0467 41.0803H30.3143C30.6801 41.0803 30.9518 41.3723 30.9518 41.74C30.9518 42.1184 30.6801 42.4104 30.3143 42.4104H28.0467Z" fill="white"/>
</svg>
