<svg width="65" height="65" viewBox="0 0 65 65" fill="none" xmlns="http://www.w3.org/2000/svg">
<rect width="65" height="65" rx="32.5" fill="#9F85D9"/>
<path d="M23.4672 38.7763H42.5328C44.1552 38.7763 45 37.9489 45 36.3323V25.4344C45 23.8273 44.1552 23 42.5328 23H23.4672C21.8448 23 21 23.8273 21 25.4344V36.3323C21 37.9489 21.8448 38.7763 23.4672 38.7763ZM23.496 37.2452C22.8624 37.2452 22.5456 36.9314 22.5456 36.3133V25.463C22.5456 24.8353 22.8624 24.531 23.496 24.531H42.504C43.1376 24.531 43.4544 24.8353 43.4544 25.463V36.3133C43.4544 36.9314 43.1376 37.2452 42.504 37.2452H23.496ZM28.1712 42H37.8288C38.2512 42 38.6064 41.6577 38.6064 41.2297C38.6064 40.8018 38.2512 40.4595 37.8288 40.4595H28.1712C27.7488 40.4595 27.3936 40.8018 27.3936 41.2297C27.3936 41.6577 27.7488 42 28.1712 42Z" fill="white"/>
<path d="M24.9296 38H41.0704C43.0297 38 44 37.2167 44 35.6502V26.3574C44 24.7909 43.0297 24 41.0704 24H24.9296C22.9796 24 22 24.7909 22 26.3574V35.6502C22 37.2167 22.9796 38 24.9296 38ZM33.0093 32.2662C31.2273 32.251 29.8278 31.0494 29.8185 29.4221C29.8092 27.8935 31.2273 26.6312 33.0093 26.6312C34.7913 26.6312 36.2002 27.8935 36.2002 29.4221C36.2002 31.0494 34.7913 32.2814 33.0093 32.2662ZM26.7209 36.8593C27.43 34.9278 29.9491 33.5437 33.0093 33.5437C36.0602 33.5437 38.5793 34.9278 39.2977 36.8593H26.7209Z" fill="white"/>
</svg>
