<svg width="65" height="65" viewBox="0 0 65 65" fill="none" xmlns="http://www.w3.org/2000/svg">
<rect width="65" height="65" rx="32.5" fill="#E8912C"/>
<path d="M20.9307 39.0493H44.2012L45.915 32.0542C45.9277 32.0542 45.9531 32.0542 45.9785 32.0542C47.7432 32.0542 49.1904 30.6069 49.1904 28.8296C49.1904 27.0649 47.7559 25.6177 45.9785 25.6177C44.2012 25.6177 42.7666 27.0776 42.7666 28.8296C42.7666 29.312 42.8682 29.7817 43.0586 30.188L39.377 32.8413C38.9961 33.1079 38.7295 33.019 38.5264 32.7144L34.1465 26.2397C35.1113 25.6812 35.7715 24.6274 35.7715 23.4341C35.7715 21.6694 34.3242 20.2222 32.5596 20.2222C30.7695 20.2222 29.335 21.6694 29.335 23.4341C29.335 24.6274 29.9951 25.6812 30.96 26.2397L26.5801 32.7144C26.377 33.0063 26.1484 33.0952 25.7803 32.8286L22.0479 30.1372C22.2256 29.7437 22.3271 29.2993 22.3271 28.8296C22.3271 27.0776 20.8799 25.6177 19.1152 25.6177C17.3379 25.6177 15.8906 27.0649 15.8906 28.8296C15.8906 30.6069 17.3379 32.0542 19.1152 32.0542C19.1406 32.0542 19.1787 32.0542 19.2041 32.0542L20.9307 39.0493ZM21.4131 41.0679L21.832 42.7563C22.3525 44.8511 23.4951 45.9175 25.6787 45.9175H39.4404C41.624 45.9175 42.7666 44.8765 43.2744 42.7563L43.6934 41.0679H21.4131Z" fill="white"/>
</svg>
