<svg width="65" height="65" viewBox="0 0 65 65" fill="none" xmlns="http://www.w3.org/2000/svg">
<rect width="65" height="65" rx="32.5" fill="#E36565"/>
<g clip-path="url(#clip0)">
<path d="M36.2578 27.1172C35.2778 27.1172 34.4805 26.3199 34.4805 25.3398V19.5H25.3906C23.8506 19.5 22.5977 20.7529 22.5977 22.293V42.707C22.5977 44.2471 23.8506 45.5 25.3906 45.5H39.6094C41.1494 45.5 42.4023 44.2471 42.4023 42.707V27.1172H36.2578ZM26.7617 37.7812H30.4545C30.8752 37.7812 31.2163 38.1223 31.2163 38.543C31.2163 38.9636 30.8752 39.3047 30.4545 39.3047H26.7617C26.341 39.3047 26 38.9636 26 38.543C26 38.1223 26.341 37.7812 26.7617 37.7812ZM26 34.4805C26 34.0598 26.341 33.7188 26.7617 33.7188H37.9336C38.3543 33.7188 38.6953 34.0598 38.6953 34.4805C38.6953 34.9011 38.3543 35.2422 37.9336 35.2422H26.7617C26.341 35.2422 26 34.9011 26 34.4805ZM37.9336 29.6562C38.3543 29.6562 38.6953 29.9973 38.6953 30.418C38.6953 30.8386 38.3543 31.1797 37.9336 31.1797H26.7617C26.341 31.1797 26 30.8386 26 30.418C26 29.9973 26.341 29.6562 26.7617 29.6562H37.9336Z" fill="white"/>
<path d="M36.0039 25.3396C36.0039 25.4796 36.1178 25.5935 36.2578 25.5935H42.0628C41.9235 25.3363 41.7442 25.1 41.5289 24.8962L36.6324 20.2638C36.4424 20.0841 36.2307 19.9341 36.004 19.8157V25.3396H36.0039Z" fill="white"/>
</g>
<defs>
<clipPath id="clip0">
<rect width="26" height="26" fill="white" transform="translate(19.5 19.5)"/>
</clipPath>
</defs>
</svg>
