<svg width="65" height="65" viewBox="0 0 65 65" fill="none" xmlns="http://www.w3.org/2000/svg">
<rect width="65" height="65" rx="32.5" fill="#49BD86"/>
<path d="M23.1093 43.875H41.8797C44.2603 43.875 45.5 42.6091 45.5 40.1903V26.4347C45.5 24.0159 44.2603 22.75 41.8797 22.75H23.1093C20.7397 22.75 19.5 24.0046 19.5 26.4347V40.1903C19.5 42.6091 20.7397 43.875 23.1093 43.875ZM36.943 33.9737L30.3608 37.9523C29.8342 38.2801 29.2089 37.9975 29.2089 37.4211V29.2152C29.2089 28.6501 29.8671 28.3901 30.3608 28.684L36.943 32.6739C37.4148 32.9678 37.4257 33.6798 36.943 33.9737Z" fill="white"/>
</svg>
