<svg id="Objects" xmlns="http://www.w3.org/2000/svg" viewBox="0 0 144.52 250.03"><defs><style>.cls-1{fill:#d0ce68;}.cls-1,.cls-2,.cls-3,.cls-4,.cls-7{fill-rule:evenodd;}.cls-2{fill:#629a9b;}.cls-3,.cls-6{fill:#fff;}.cls-4,.cls-5{fill:#85b6b7;}.cls-7{fill:#1a1a1a;opacity:0.15;}</style></defs><polygon class="cls-1" points="53.17 210.75 91.78 210.75 85.64 241.49 59.31 241.49 53.17 210.75"/><polygon class="cls-2" points="90.3 218.15 89.58 221.78 55.38 221.78 54.65 218.15 90.3 218.15"/><polygon class="cls-2" points="53.17 210.75 91.78 210.75 91.06 214.38 53.9 214.38 53.17 210.75"/><polygon class="cls-3" points="53.65 213.15 91.3 213.15 91.06 214.38 53.9 214.38 53.65 213.15"/><path class="cls-3" d="M54.63,213.38c4.25,0,7.06,9.75,0,9.75S50.37,213.38,54.63,213.38Z"/><path class="cls-3" d="M54.63,214.43c1.15,0,2-1.71,1.72-2.91a14.84,14.84,0,0,1-3.44,0C52.59,212.72,53.48,214.43,54.63,214.43Z"/><path class="cls-3" d="M90.33,213.38c4.25,0,7,9.75,0,9.75S86.07,213.38,90.33,213.38Z"/><path class="cls-3" d="M90.33,214.43c1.14,0,2-1.71,1.71-2.91a14.76,14.76,0,0,1-3.43,0C88.28,212.72,89.18,214.43,90.33,214.43Z"/><path class="cls-3" d="M66.53,213.38c4.25,0,7,9.75,0,9.75S62.27,213.38,66.53,213.38Z"/><path class="cls-3" d="M66.53,214.43c1.14,0,2-1.71,1.72-2.91a12.55,12.55,0,0,1-1.72.1,12.36,12.36,0,0,1-1.72-.1C64.49,212.72,65.38,214.43,66.53,214.43Z"/><path class="cls-3" d="M78.43,213.38c4.25,0,7,9.75,0,9.75S74.17,213.38,78.43,213.38Z"/><path class="cls-3" d="M78.43,214.43c1.14,0,2-1.71,1.72-2.91a12.55,12.55,0,0,1-1.72.1,12.36,12.36,0,0,1-1.72-.1C76.39,212.72,77.28,214.43,78.43,214.43Z"/><path class="cls-2" d="M54.25,178.66,18.7,118.47C-10.56,68.91,7.56,11.72,72.48,11.72s83,57.2,53.76,106.76L90.71,178.66Z"/><path class="cls-4" d="M62.18,135.17a3.47,3.47,0,0,1-1.08-.32l-.51-5.91a3.27,3.27,0,0,1,1-.49Z"/><path class="cls-4" d="M63.32,160.62a3.72,3.72,0,0,1,1.09.44l.47,5.51a3.38,3.38,0,0,1-1,.62Z"/><path class="cls-4" d="M83.67,128.56a3.38,3.38,0,0,1,1,.62l-.47,5.48a3.22,3.22,0,0,1-1.08.45Z"/><path class="cls-4" d="M81.38,167.3a3.27,3.27,0,0,1-1-.49l.51-5.93a3.28,3.28,0,0,1,1.08-.31Z"/><path class="cls-4" d="M26.14,97.94a3.65,3.65,0,0,1,.36,1.23H19.63A3.43,3.43,0,0,1,20,97.94Z"/><path class="cls-4" d="M45.9,97.94a3.43,3.43,0,0,1,.36,1.23H39.4a3.42,3.42,0,0,1,.35-1.23Z"/><path class="cls-4" d="M65.67,97.94A3.42,3.42,0,0,1,66,99.17H59.16a3.43,3.43,0,0,1,.36-1.23Z"/><path class="cls-4" d="M85.43,97.94a3.43,3.43,0,0,1,.36,1.23H78.93a3.42,3.42,0,0,1,.35-1.23Z"/><path class="cls-4" d="M105.2,97.94a3.42,3.42,0,0,1,.35,1.23H98.69a3.43,3.43,0,0,1,.36-1.23Z"/><path class="cls-4" d="M125,97.94a3.43,3.43,0,0,1,.36,1.23h-6.86a3.42,3.42,0,0,1,.35-1.23Z"/><path class="cls-4" d="M36.39,19.36A3.44,3.44,0,0,1,33,22.71a3.39,3.39,0,0,1-1.71-.46C32.88,21.22,34.6,20.25,36.39,19.36Z"/><path class="cls-4" d="M52.71,15.81a3.45,3.45,0,1,1-3.45,3.45A3.45,3.45,0,0,1,52.71,15.81Z"/><path class="cls-4" d="M72.48,15.81A3.45,3.45,0,1,1,69,19.26,3.45,3.45,0,0,1,72.48,15.81Z"/><path class="cls-4" d="M92.24,15.81a3.45,3.45,0,1,1-3.45,3.45A3.46,3.46,0,0,1,92.24,15.81Z"/><path class="cls-4" d="M113.72,22.25a3.44,3.44,0,0,1-5.16-2.89C110.36,20.25,112.07,21.22,113.72,22.25Z"/><path class="cls-4" d="M23.06,31.55A3.45,3.45,0,1,1,19.62,35,3.45,3.45,0,0,1,23.06,31.55Z"/><path class="cls-4" d="M42.83,31.55A3.45,3.45,0,1,1,39.38,35,3.46,3.46,0,0,1,42.83,31.55Z"/><path class="cls-4" d="M62.59,31.55A3.45,3.45,0,1,1,59.15,35,3.45,3.45,0,0,1,62.59,31.55Z"/><path class="cls-4" d="M82.36,31.55A3.45,3.45,0,1,1,78.91,35,3.46,3.46,0,0,1,82.36,31.55Z"/><path class="cls-4" d="M102.12,31.55A3.45,3.45,0,1,1,98.67,35,3.45,3.45,0,0,1,102.12,31.55Z"/><path class="cls-4" d="M121.89,31.55A3.45,3.45,0,1,1,118.44,35,3.45,3.45,0,0,1,121.89,31.55Z"/><path class="cls-4" d="M13.18,48.06a3.45,3.45,0,1,1-3.45,3.45A3.44,3.44,0,0,1,13.18,48.06Z"/><path class="cls-4" d="M33,48.06a3.45,3.45,0,1,1-3.45,3.45A3.44,3.44,0,0,1,33,48.06Z"/><path class="cls-4" d="M52.71,48.06a3.45,3.45,0,1,1-3.45,3.45A3.44,3.44,0,0,1,52.71,48.06Z"/><path class="cls-4" d="M72.48,48.06A3.45,3.45,0,1,1,69,51.51,3.44,3.44,0,0,1,72.48,48.06Z"/><path class="cls-4" d="M92.24,48.06a3.45,3.45,0,1,1-3.45,3.45A3.45,3.45,0,0,1,92.24,48.06Z"/><path class="cls-4" d="M112,48.06a3.45,3.45,0,1,1-3.44,3.45A3.44,3.44,0,0,1,112,48.06Z"/><path class="cls-4" d="M131.77,48.06a3.45,3.45,0,1,1-3.45,3.45A3.45,3.45,0,0,1,131.77,48.06Z"/><path class="cls-4" d="M5.54,64.63a3.45,3.45,0,0,1-.37,5.52C5.22,68.28,5.34,66.44,5.54,64.63Z"/><path class="cls-4" d="M23.06,63.8a3.45,3.45,0,1,1-3.44,3.45A3.44,3.44,0,0,1,23.06,63.8Z"/><circle class="cls-5" cx="42.83" cy="67.25" r="3.45"/><path class="cls-4" d="M62.59,63.8a3.45,3.45,0,1,1-3.44,3.45A3.44,3.44,0,0,1,62.59,63.8Z"/><path class="cls-4" d="M82.36,63.8a3.45,3.45,0,1,1-3.45,3.45A3.45,3.45,0,0,1,82.36,63.8Z"/><path class="cls-4" d="M102.12,63.8a3.45,3.45,0,1,1-3.45,3.45A3.44,3.44,0,0,1,102.12,63.8Z"/><path class="cls-4" d="M121.89,63.8a3.45,3.45,0,1,1-3.45,3.45A3.44,3.44,0,0,1,121.89,63.8Z"/><path class="cls-4" d="M139.78,70.15a3.46,3.46,0,0,1-.37-5.52C139.61,66.44,139.73,68.28,139.78,70.15Z"/><path class="cls-4" d="M13.18,80.31a3.45,3.45,0,1,1-3.45,3.45A3.44,3.44,0,0,1,13.18,80.31Z"/><path class="cls-4" d="M33,80.31a3.45,3.45,0,1,1-3.45,3.45A3.44,3.44,0,0,1,33,80.31Z"/><path class="cls-4" d="M52.71,80.31a3.45,3.45,0,1,1-3.45,3.45A3.44,3.44,0,0,1,52.71,80.31Z"/><path class="cls-4" d="M72.48,80.31A3.45,3.45,0,1,1,69,83.76,3.44,3.44,0,0,1,72.48,80.31Z"/><path class="cls-4" d="M92.24,80.31a3.45,3.45,0,1,1-3.45,3.45A3.45,3.45,0,0,1,92.24,80.31Z"/><path class="cls-4" d="M112,80.31a3.45,3.45,0,1,1-3.44,3.45A3.44,3.44,0,0,1,112,80.31Z"/><path class="cls-4" d="M131.77,80.31a3.45,3.45,0,1,1-3.45,3.45A3.45,3.45,0,0,1,131.77,80.31Z"/><path class="cls-4" d="M23.06,96.05a3.45,3.45,0,1,1-3.44,3.45A3.44,3.44,0,0,1,23.06,96.05Z"/><path class="cls-4" d="M42.83,96.05a3.45,3.45,0,1,1-3.45,3.45A3.45,3.45,0,0,1,42.83,96.05Z"/><path class="cls-4" d="M62.59,96.05a3.45,3.45,0,1,1-3.44,3.45A3.44,3.44,0,0,1,62.59,96.05Z"/><path class="cls-4" d="M82.36,96.05a3.45,3.45,0,1,1-3.45,3.45A3.45,3.45,0,0,1,82.36,96.05Z"/><path class="cls-4" d="M102.12,96.05a3.45,3.45,0,1,1-3.45,3.45A3.44,3.44,0,0,1,102.12,96.05Z"/><path class="cls-4" d="M121.89,96.05a3.45,3.45,0,1,1-3.45,3.45A3.44,3.44,0,0,1,121.89,96.05Z"/><path class="cls-4" d="M33,112.56A3.45,3.45,0,1,1,29.5,116,3.44,3.44,0,0,1,33,112.56Z"/><path class="cls-4" d="M52.71,112.56A3.45,3.45,0,1,1,49.26,116,3.44,3.44,0,0,1,52.71,112.56Z"/><path class="cls-4" d="M72.48,112.56A3.45,3.45,0,1,1,69,116,3.44,3.44,0,0,1,72.48,112.56Z"/><path class="cls-4" d="M92.24,112.56A3.45,3.45,0,1,1,88.79,116,3.45,3.45,0,0,1,92.24,112.56Z"/><path class="cls-4" d="M112,112.56a3.45,3.45,0,1,1-3.44,3.44A3.44,3.44,0,0,1,112,112.56Z"/><path class="cls-4" d="M24.78,128.75a3.45,3.45,0,0,1,1.73,2.94Z"/><path class="cls-4" d="M42.83,128.3a3.45,3.45,0,1,1-3.45,3.45A3.45,3.45,0,0,1,42.83,128.3Z"/><path class="cls-4" d="M62.59,128.3a3.45,3.45,0,1,1-3.44,3.45A3.44,3.44,0,0,1,62.59,128.3Z"/><path class="cls-4" d="M82.36,128.3a3.45,3.45,0,1,1-3.45,3.45A3.45,3.45,0,0,1,82.36,128.3Z"/><path class="cls-4" d="M102.12,128.3a3.45,3.45,0,1,1-3.45,3.45A3.44,3.44,0,0,1,102.12,128.3Z"/><path class="cls-4" d="M118.44,131.69a3.44,3.44,0,0,1,1.74-2.94Z"/><path class="cls-4" d="M34.46,145.16a3.42,3.42,0,0,1,1.93,3.09v.17Z"/><path class="cls-4" d="M52.71,144.81a3.45,3.45,0,1,1-3.45,3.44A3.44,3.44,0,0,1,52.71,144.81Z"/><path class="cls-4" d="M72.48,144.81A3.45,3.45,0,1,1,69,148.25,3.44,3.44,0,0,1,72.48,144.81Z"/><path class="cls-4" d="M92.24,144.81a3.45,3.45,0,1,1-3.45,3.44A3.45,3.45,0,0,1,92.24,144.81Z"/><path class="cls-4" d="M108.56,148.42v-.17a3.44,3.44,0,0,1,1.93-3.09Z"/><path class="cls-4" d="M43.6,160.63A3.46,3.46,0,0,1,46.28,164a3.31,3.31,0,0,1-.14.95Z"/><path class="cls-4" d="M62.59,160.55A3.45,3.45,0,1,1,59.15,164,3.44,3.44,0,0,1,62.59,160.55Z"/><path class="cls-4" d="M82.36,160.55A3.45,3.45,0,1,1,78.91,164,3.45,3.45,0,0,1,82.36,160.55Z"/><path class="cls-4" d="M98.81,164.94a3.31,3.31,0,0,1-.14-.95,3.45,3.45,0,0,1,2.68-3.36Z"/><path class="cls-4" d="M43.6,160.63A3.46,3.46,0,0,1,46.28,164a3.31,3.31,0,0,1-.14.95Z"/><path class="cls-4" d="M62.59,160.55A3.45,3.45,0,1,1,59.15,164,3.44,3.44,0,0,1,62.59,160.55Z"/><path class="cls-4" d="M82.36,160.55A3.45,3.45,0,1,1,78.91,164,3.45,3.45,0,0,1,82.36,160.55Z"/><path class="cls-4" d="M98.81,164.94a3.31,3.31,0,0,1-.14-.95,3.46,3.46,0,0,1,2.68-3.36Z"/><polygon class="cls-1" points="54.25 178.66 39.35 153.44 105.6 153.44 90.71 178.66 54.25 178.66"/><polygon class="cls-6" points="11.07 99.09 54.47 210.86 53.49 211.24 9.95 99.09 11.07 99.09"/><polygon class="cls-6" points="135.32 99.09 91.78 211.24 90.81 210.86 134.21 99.09 135.32 99.09"/><polygon class="cls-6" points="28.04 99.09 59.47 210.91 58.46 211.19 26.96 99.09 28.04 99.09"/><polygon class="cls-6" points="118.32 99.09 86.81 211.19 85.81 210.91 117.23 99.09 118.32 99.09"/><polygon class="cls-6" points="59.06 99.09 68.72 211 67.68 211.1 58.02 99.09 59.06 99.09"/><polygon class="cls-6" points="87.26 99.09 77.6 211.1 76.56 211 86.21 99.09 87.26 99.09"/><path class="cls-3" d="M9.57,97.94H135.7c-.13.41-.27.82-.4,1.23H10C9.84,98.76,9.71,98.35,9.57,97.94Z"/><path class="cls-7" d="M135.57,97.94a82.71,82.71,0,0,0,4.21-27.79v0c0-.39,0-.79,0-1.19l-.06-1c0-.37,0-.73-.07-1.09s-.07-.79-.1-1.19-.06-.64-.1-1h0c-2-18.74-11.68-34.9-28.93-44.27h0l-.09,0-.08,0-.16-.09-.08,0c-.22-.12-.44-.24-.67-.35l-.73-.38-1.4-.67a72.45,72.45,0,0,0-19.12-5.79,96.79,96.79,0,0,0-15.66-1.22V178.66h6.87l-2.77,32.09h-4.1v30.74H85.64L88.14,229l1.18-5.91a6.41,6.41,0,0,0,1,.07c6.33,0,4.72-7.85,1.25-9.46a2.7,2.7,0,0,0,.46-2.15l-.42,0,.07-.36.09,0,15.48-39.87,28-72.2h0l0-.07h0c.13-.38.26-.77.38-1.15ZM77.63,210.75l2.77-32.09H90.71l8-13.46L88.14,202.61l-2.28,8.14Zm29.63-42.26L90.85,210.75H86.94l1.2-4.28,12.58-44.77,4.88-8.26,1.66-2.82,1.3-2.2h0l1.93-3.26h0l8-13.47,1.74-2.94,6.06-10.27q.69-1.17,1.35-2.34Z"/></svg>