<?xml version="1.0" encoding="UTF-8"?> <!-- Generator: Adobe Illustrator 21.1.0, SVG Export Plug-In . SVG Version: 6.00 Build 0) --> <svg xmlns="http://www.w3.org/2000/svg" xmlns:xlink="http://www.w3.org/1999/xlink" id="Capa_1" x="0px" y="0px" viewBox="0 0 53 53" style="enable-background:new 0 0 53 53;" xml:space="preserve"> <style type="text/css"> .st0{fill:#E7ECED;} .st1{fill:#556080;} </style> <path class="st0" d="M18.6,41.6l-7.9,4.3C7.2,47.1,5.5,53,5.5,53h21h21.8c0,0-3-6.4-6.3-7.1l-8.5-4.2c-1.1-0.5-1.8-1.7-1.8-2.9v-3.3 c0.2-0.3,0.5-0.6,0.8-1c1.2-1.6,2-3.4,2.6-5.3c1.1-0.3,1.9-1.3,1.9-2.5v-3.5c0-0.8-0.3-1.5-0.9-2V16c0,0,1.1-8-9.8-8s-9.8,8-9.8,8 v5.1c-0.5,0.5-0.9,1.2-0.9,2v3.5c0,0.9,0.5,1.8,1.2,2.2c0.9,3.9,3.2,6.6,3.2,6.6v3.2C20.3,39.9,19.6,41,18.6,41.6z"></path> <g> <path class="st1" d="M0,0l0,53c0,0-1.4,0,5.5,0c0.4-0.3,1.5-5.2,5.2-7.1l7.9-4.3c1-0.6,1.7-1.7,1.7-2.8v-3.2c0,0-2.3-2.8-3.2-6.6 c-0.7-0.5-1.2-1.3-1.2-2.2v-3.5c0-0.8,0.3-1.5,0.9-2V16c0,0-1.1-8,9.8-8s9.8,8,9.8,8v5.1c0.5,0.5,0.9,1.2,0.9,2v3.5 c0,1.2-0.8,2.2-1.9,2.5c-0.6,1.9-1.5,3.7-2.6,5.3c-0.3,0.4-0.6,0.8-0.8,1v3.3c0,1.2,0.7,2.3,1.8,2.9l8.5,4.2 c3.7,1.2,5.8,6.7,6.3,7.1c6.6,0,4.7,0,4.7,0l0-53"></path> </g> </svg> 