<svg width="19" height="18" viewBox="0 0 19 18" fill="none" xmlns="http://www.w3.org/2000/svg">
<path d="M9.125 18C14.0956 18 18.125 13.9706 18.125 9C18.125 4.02944 14.0956 0 9.125 0C4.15444 0 0.125 4.02944 0.125 9C0.125 13.9706 4.15444 18 9.125 18Z" fill="#A3D4FF"/>
<path d="M18.1005 8.9878C18.1005 8.73155 18.0899 8.47792 18.0687 8.22689L12.882 3.03979L5.86378 5.92652L8.35469 8.41743L4.86505 9.43416L6.3896 10.9587L4.24414 13.5742L8.63323 17.9633C8.79239 17.9716 8.95251 17.9759 9.1136 17.976C11.4972 17.9758 13.7832 17.0287 15.4685 15.3431C17.1539 13.6575 18.1007 11.3714 18.1005 8.9878Z" fill="#65B1FC"/>
<path d="M12.8816 6.39025H7.01884C6.57458 6.39025 6.14851 6.21376 5.83437 5.89962C5.52023 5.58548 5.34375 5.15941 5.34375 4.71514C5.34375 4.27088 5.52023 3.84481 5.83437 3.53067C6.14851 3.21652 6.57458 3.04004 7.01884 3.04004H12.8816V4.02587L12.6998 4.6986L12.8816 5.40424V6.39025Z" fill="#FFCE00"/>
<path d="M12.8812 3.03979H9.10742V6.39H12.8812V5.404L12.6994 4.69835L12.8812 4.02562V3.03979Z" fill="#FDBA12"/>
<path d="M12.8811 5.4042H6.9766C6.88683 5.4042 6.79793 5.38652 6.71499 5.35217C6.63204 5.31781 6.55668 5.26746 6.4932 5.20398C6.42972 5.1405 6.37936 5.06514 6.34501 4.9822C6.31065 4.89926 6.29297 4.81036 6.29297 4.72059V4.7095C6.29297 4.52819 6.365 4.35431 6.4932 4.22611C6.62141 4.0979 6.79529 4.02588 6.9766 4.02588H12.8809V5.4042H12.8811Z" fill="white"/>
<path d="M9.10742 4.02588H12.8812V5.40423H9.10742V4.02588Z" fill="#E9EDF5"/>
<path d="M14.0936 9.72494H5.80595C5.36169 9.72494 4.93562 9.54846 4.62148 9.23431C4.30734 8.92017 4.13086 8.49411 4.13086 8.04985C4.13086 7.60558 4.30734 7.17952 4.62148 6.86538C4.93562 6.55124 5.36169 6.37476 5.80595 6.37476H14.0936V7.36057L13.9118 8.0333L14.0936 8.73894V9.72494Z" fill="#7584F2"/>
<path d="M14.0922 6.37402H9.10547V9.72421H14.0922V8.73839L13.9104 8.03275L14.0922 7.36002V6.37402Z" fill="#606AEA"/>
<path d="M14.0949 8.73822H5.76567C5.58436 8.73822 5.41047 8.6662 5.28226 8.53799C5.15406 8.40979 5.08203 8.2359 5.08203 8.05459V8.04423C5.08203 7.86292 5.15406 7.68903 5.28226 7.56083C5.41047 7.43262 5.58436 7.3606 5.76567 7.3606H14.0949V8.73895V8.73822Z" fill="white"/>
<path d="M9.10547 7.35986H14.0922V8.73824H9.10547V7.35986Z" fill="#E9EDF5"/>
<path d="M14.6432 14.2366H5.84157C5.24231 14.2366 4.66758 13.9986 4.24383 13.5748C3.82009 13.1511 3.58203 12.5764 3.58203 11.9771C3.58203 11.3778 3.82009 10.8031 4.24383 10.3793C4.66758 9.95559 5.24231 9.71753 5.84157 9.71753H14.6428V11.0477L14.3977 11.9552L14.6428 12.907L14.6432 14.2366Z" fill="#FE6A16"/>
<path d="M14.6432 9.71777H9.10742V14.2367H14.6432V12.9069L14.3981 11.9551L14.6432 11.0476V9.71777Z" fill="#F24500"/>
<path d="M14.6427 12.9068H5.78546C5.54088 12.9068 5.30632 12.8097 5.13338 12.6367C4.96044 12.4638 4.86328 12.2293 4.86328 11.9847V11.9698C4.86328 11.7252 4.96044 11.4906 5.13338 11.3177C5.30632 11.1448 5.54088 11.0476 5.78546 11.0476H14.6427V12.9068Z" fill="white"/>
<path d="M9.10742 11.0479H14.6432V12.9071H9.10742V11.0479Z" fill="#E9EDF5"/>
</svg>
