<svg width="19" height="18" viewBox="0 0 19 18" fill="none" xmlns="http://www.w3.org/2000/svg">
<path d="M9.12445 18C14.0947 18 18.1239 13.9706 18.1239 9C18.1239 4.02944 14.0947 0 9.12445 0C4.15419 0 0.125 4.02944 0.125 9C0.125 13.9706 4.15419 18 9.12445 18Z" fill="#FFA700"/>
<path d="M18.1241 8.9746C18.1242 8.43181 18.0755 7.89012 17.9783 7.3561L15.1698 4.54686C15.0868 4.46141 14.9875 4.39347 14.8778 4.34705C14.7681 4.30064 14.6502 4.27668 14.531 4.27661H3.76894C3.53208 4.27734 3.30512 4.37176 3.13763 4.53926C2.97014 4.70676 2.87573 4.93373 2.875 5.17061V12.7796C2.87508 12.9056 2.90186 13.0302 2.95357 13.1451C3.00527 13.26 3.08073 13.3627 3.17498 13.4463L7.54222 17.8046C8.8355 18.0389 10.1645 17.9865 11.4353 17.6511C12.7061 17.3156 13.8878 16.7053 14.897 15.8632C15.9062 15.0211 16.7182 13.9677 17.2758 12.7775C17.8334 11.5872 18.123 10.289 18.1241 8.9746Z" fill="#FF6900"/>
<path d="M14.5303 13.6723H3.76894C3.53225 13.6716 3.30544 13.5773 3.13798 13.41C2.97052 13.2427 2.87599 13.016 2.875 12.7793V5.17061C2.87573 4.93373 2.97014 4.70676 3.13763 4.53926C3.30512 4.37176 3.53208 4.27734 3.76894 4.27661H14.5303C14.7672 4.27734 14.9941 4.37176 15.1616 4.53926C15.3291 4.70676 15.4235 4.93373 15.4242 5.17061V12.7793C15.4232 13.016 15.3287 13.2427 15.1613 13.41C14.9938 13.5773 14.767 13.6716 14.5303 13.6723Z" fill="#006EF5"/>
<path d="M15.425 5.17061V12.7791C15.4243 13.016 15.3299 13.243 15.1624 13.4105C14.9949 13.578 14.7679 13.6724 14.531 13.6731H9.15039V4.27661H14.531C14.7679 4.27727 14.9949 4.37167 15.1624 4.53919C15.3299 4.7067 15.4243 4.93371 15.425 5.17061Z" fill="#0043A3"/>
<path d="M4.98546 5.479H3.86328V6.60126H4.98546V5.479Z" fill="white"/>
<path d="M4.98546 7.43506H3.86328V8.55732H4.98546V7.43506Z" fill="white"/>
<path d="M4.98546 9.39136H3.86328V10.5136H4.98546V9.39136Z" fill="white"/>
<path d="M4.98546 11.3477H3.86328V12.4699H4.98546V11.3477Z" fill="white"/>
<path d="M14.4366 5.479H13.3145V6.60126H14.4366V5.479Z" fill="#FFF4AA"/>
<path d="M14.4366 7.43506H13.3145V8.55732H14.4366V7.43506Z" fill="#FFF4AA"/>
<path d="M14.4366 9.39136H13.3145V10.5136H14.4366V9.39136Z" fill="#FFF4AA"/>
<path d="M14.4366 11.3477H13.3145V12.4699H14.4366V11.3477Z" fill="#FFF4AA"/>
<path d="M7.48633 6.76514V11.1819L11.2721 8.97337L7.48633 6.76514Z" fill="white"/>
<path d="M11.2713 8.97457L9.15039 10.2116V7.73657L11.2713 8.97457Z" fill="#FFF4AA"/>
</svg>
