<svg width="28" height="20" viewBox="0 0 28 20" fill="none" xmlns="http://www.w3.org/2000/svg">
<path d="M26.4608 19.3998H1.53918V1.76755C1.53913 1.53546 1.58131 1.30562 1.66333 1.09118C1.74534 0.876731 1.86558 0.681876 2.01718 0.517737C2.16878 0.353598 2.34876 0.223393 2.54686 0.134559C2.74495 0.0457255 2.95727 -8.43575e-09 3.17169 0H24.827C25.26 0 25.6754 0.186227 25.9816 0.517708C26.2879 0.849189 26.4599 1.29877 26.4599 1.76755L26.4608 19.3998Z" fill="white"/>
<path d="M26.4611 1.76755C26.4612 1.53542 26.419 1.30555 26.337 1.09107C26.2549 0.876591 26.1346 0.681711 25.983 0.517566C25.8313 0.353421 25.6513 0.223227 25.4532 0.134421C25.255 0.0456155 25.0427 -6.25315e-05 24.8282 6.42472e-08H13.9812V19.3998H26.4611V1.76755Z" fill="#E9EDF5"/>
<path d="M25.5942 18.9651H2.4054V1.77595C2.40551 1.54758 2.4894 1.3286 2.63863 1.16717C2.78786 1.00573 2.9902 0.915039 3.20118 0.915039H24.7997C25.0107 0.915039 25.213 1.00574 25.3621 1.16719C25.5113 1.32865 25.5951 1.54762 25.5951 1.77595V18.9651H25.5942Z" fill="#4A7AFF"/>
<path d="M25.5945 1.77595C25.5944 1.54758 25.5105 1.3286 25.3613 1.16717C25.2121 1.00573 25.0097 0.915039 24.7987 0.915039H13.9812V18.9651H25.5945V1.77595Z" fill="#2864F0"/>
<path d="M21.9522 14.1184C21.777 14.0492 21.6257 13.9233 21.5188 13.7579C21.4119 13.5925 21.3545 13.3955 21.3545 13.1936V12.2812H18.8237V13.1936C18.8237 13.3955 18.7663 13.5925 18.6594 13.7579C18.5525 13.9233 18.4012 14.0492 18.226 14.1184L15.7902 15.0769H24.3845L21.9522 14.1184Z" fill="#09CE67"/>
<path d="M21.9507 14.1179C21.7755 14.0489 21.6241 13.9231 21.5172 13.7578C21.4103 13.5924 21.3529 13.3955 21.353 13.1936V12.2812H20.0735V15.0769H24.3847L21.9507 14.1179Z" fill="#1AAD5C"/>
<path d="M17.9711 8.4356C17.9711 8.66837 17.9073 8.89591 17.7879 9.08945C17.6684 9.28298 17.4986 9.43381 17.2999 9.52287C17.1012 9.61193 16.8826 9.63521 16.6717 9.58976C16.4608 9.54432 16.2671 9.43219 16.115 9.26756C15.963 9.10293 15.8595 8.8932 15.8176 8.66489C15.7757 8.43658 15.7973 8.19995 15.8796 7.98492C15.962 7.7699 16.1014 7.58614 16.2803 7.45689C16.4591 7.32763 16.6693 7.25869 16.8844 7.25879C17.0271 7.25879 17.1685 7.28923 17.3004 7.34838C17.4322 7.40752 17.552 7.49422 17.653 7.6035C17.7539 7.71278 17.8339 7.84252 17.8885 7.98529C17.9431 8.12807 17.9712 8.28108 17.9711 8.4356Z" fill="#FFBEAA"/>
<path d="M24.3789 8.4356C24.3789 8.66837 24.3152 8.89591 24.1957 9.08945C24.0762 9.28298 23.9064 9.43381 23.7077 9.52287C23.509 9.61193 23.2904 9.63521 23.0795 9.58976C22.8686 9.54432 22.6749 9.43219 22.5229 9.26756C22.3708 9.10293 22.2673 8.8932 22.2254 8.66489C22.1835 8.43658 22.2051 8.19995 22.2875 7.98492C22.3698 7.7699 22.5092 7.58614 22.6881 7.45689C22.8669 7.32763 23.0772 7.25869 23.2922 7.25879C23.435 7.25879 23.5763 7.28923 23.7082 7.34838C23.8401 7.40752 23.9599 7.49422 24.0608 7.6035C24.1617 7.71278 24.2418 7.84252 24.2964 7.98529C24.3509 8.12807 24.379 8.28108 24.3789 8.4356Z" fill="#FFBEAA"/>
<path d="M21.5358 12.8415L20.8099 13.245C20.5867 13.3691 20.3395 13.4339 20.0885 13.4339C19.8376 13.4339 19.5903 13.3691 19.3671 13.245L18.6409 12.8415C18.1132 12.5481 17.6706 12.1029 17.3615 11.5549C17.0524 11.0068 16.889 10.3772 16.889 9.73513V6.67216C16.889 5.75366 17.2261 4.8728 17.8261 4.22333C18.4262 3.57385 19.24 3.20898 20.0885 3.20898C20.9371 3.20898 21.7509 3.57385 22.3509 4.22333C22.9509 4.8728 23.288 5.75366 23.288 6.67216V9.73513C23.288 10.3772 23.1245 11.0069 22.8154 11.555C22.5062 12.103 22.0635 12.5481 21.5358 12.8415Z" fill="#FFCDBE"/>
<path d="M20.0884 3.20898H20.0743V13.4332C20.3301 13.4351 20.5825 13.3697 20.8098 13.2426L21.5356 12.8391C22.0632 12.5457 22.5058 12.1005 22.8149 11.5525C23.1239 11.0045 23.2874 10.3748 23.2873 9.73276V6.66978C23.2868 5.75178 22.9495 4.8716 22.3496 4.22265C21.7498 3.57371 20.9365 3.20911 20.0884 3.20898Z" fill="#FFBEAA"/>
<path d="M22.9645 6.67773H23.6216V9.77457H22.9645V6.67773Z" fill="#E55710"/>
<path d="M19.5128 7.88105H17.8253C17.5785 7.88105 17.3342 7.82844 17.1062 7.72623C16.8782 7.62402 16.6711 7.47421 16.4966 7.28534C16.3222 7.09648 16.1837 6.87227 16.0893 6.6255C15.9949 6.37874 15.9463 6.11426 15.9463 5.84717C15.9463 5.04034 16.2424 4.26654 16.7694 3.69598C17.2964 3.12542 18.0112 2.80481 18.7566 2.80469H21.063C21.1502 2.80469 21.2338 2.84219 21.2955 2.90893C21.3572 2.97567 21.3918 3.0662 21.3918 3.16058V5.84812C21.3916 6.38737 21.1935 6.90446 20.8411 7.28568C20.4888 7.6669 20.011 7.88105 19.5128 7.88105Z" fill="#FE6A16"/>
<path d="M21.0633 2.80469H20.0743V7.7887C20.4563 7.65913 20.7901 7.40095 21.0271 7.05174C21.2642 6.70254 21.392 6.28054 21.3921 5.84722V3.16058C21.3921 3.06619 21.3574 2.97567 21.2958 2.90892C21.2341 2.84218 21.1505 2.80469 21.0633 2.80469Z" fill="#E55710"/>
<path d="M22.83 7.88105C22.6296 7.88105 22.4311 7.83833 22.246 7.75532C22.0608 7.67231 21.8926 7.55063 21.7509 7.39725C21.6092 7.24387 21.4968 7.06178 21.4201 6.86138C21.3434 6.66097 21.304 6.44618 21.304 6.22927V3.20251C21.3039 3.15029 21.3134 3.09857 21.3318 3.0503C21.3502 3.00204 21.3772 2.95818 21.4113 2.92124C21.4454 2.88429 21.4859 2.85498 21.5305 2.83498C21.575 2.81498 21.6228 2.80469 21.671 2.80469H22.0029C22.6271 2.80469 23.2257 3.07308 23.6671 3.55082C24.1085 4.02857 24.3564 4.67653 24.3564 5.35216V6.22927C24.3563 6.66739 24.1954 7.08753 23.9092 7.39728C23.6229 7.70704 23.2347 7.88105 22.83 7.88105Z" fill="#E55710"/>
<path d="M16.5545 6.67773H17.2108V9.77457H16.5532L16.5545 6.67773Z" fill="#FE6A16"/>
<path d="M0 16.9395H28V20.0001H0V16.9395Z" fill="#DCE1EB"/>
<path d="M13.9812 16.9395H27.9999V20.0001H13.9812V16.9395Z" fill="#CDD2E1"/>
<path d="M3.80121 3.50586H13.5914V4.89327H3.80121V3.50586Z" fill="#CDD2E1"/>
<path d="M8.72241 3.50586H13.5909V4.89327H8.72241V3.50586Z" fill="#BEC3D2"/>
<path d="M3.80121 6.49414H13.5914V7.88162H3.80121V6.49414Z" fill="#CDD2E1"/>
<path d="M8.72241 6.49414H13.5909V7.88162H8.72241V6.49414Z" fill="#BEC3D2"/>
<path d="M3.80121 9.48145H13.5914V10.8689H3.80121V9.48145Z" fill="#CDD2E1"/>
<path d="M8.72241 9.48145H13.5909V10.8689H8.72241V9.48145Z" fill="#BEC3D2"/>
<path d="M3.80121 12.4707H13.5914V13.8585H3.80121V12.4707Z" fill="#CDD2E1"/>
<path d="M8.72241 12.4707H13.5909V13.8585H8.72241V12.4707Z" fill="#BEC3D2"/>
</svg>
