<svg width="20" height="22" viewBox="0 0 20 22" fill="none" xmlns="http://www.w3.org/2000/svg">
<path d="M6.20416 0L0 5.18838V22H19.9997V0H6.20416Z" fill="white"/>
<path d="M10.0002 0H20V22H10.0002V0Z" fill="#E9EDF5"/>
<path d="M6.20416 5.18837V0L0 5.18837H6.20416Z" fill="#E9EDF5"/>
<path d="M2.98608 14.7949H17.0144V16.7696H2.98608V14.7949Z" fill="#9196AA"/>
<path d="M10.0002 14.7949H17.0144V16.7696H10.0002V14.7949Z" fill="#707789"/>
<path d="M5.43591 17.6445H14.5642V19.6191H5.43591V17.6445Z" fill="#9196AA"/>
<path d="M10.0002 17.6445H14.5644V19.6191H10.0002V17.6445Z" fill="#707789"/>
<path d="M11.8903 13.2668L11.513 12.3488H8.50616L8.12888 13.2668H5.90015L8.76957 6.88965H11.2389L14.1197 13.2668H11.8903ZM10.0001 8.51511L9.03222 10.9147H10.9759L10.0001 8.51511Z" fill="#7584F2"/>
<path d="M10.0002 8.51511L10.9757 10.9147H10.0002V12.3488H11.5131L11.8904 13.2668H14.1199L11.2387 6.88965H10.0002V8.51511Z" fill="#606AEA"/>
<path d="M18.1229 4.27033H16.4999V2.91309H14.1387V4.27033H12.5161V6.24494H14.1391V7.60219H16.5003V6.24494H18.1233L18.1229 4.27033Z" fill="#606AEA"/>
</svg>
