<svg width="20" height="20" viewBox="0 0 20 20" fill="none" xmlns="http://www.w3.org/2000/svg">
<rect x="0.5" y="0.5" width="19" height="19" rx="9.5" stroke="#8D8D8D"/>
<g clip-path="url(#clip0)">
<path d="M10.1169 12.2839H9.76096C9.51033 12.2839 9.30664 12.4876 9.30664 12.7383V13.2297C9.30664 13.4803 9.51033 13.684 9.76096 13.684H10.1169C10.3675 13.684 10.5712 13.4803 10.5712 13.2297V12.7383C10.5712 12.4869 10.3675 12.2839 10.1169 12.2839Z" fill="#8D8D8D"/>
<path d="M7.60672 8.48003L8.26322 8.56181C8.47145 8.58755 8.66909 8.46791 8.74405 8.27179C8.8387 8.02419 8.97046 7.82883 9.13932 7.68647C9.3786 7.48505 9.67618 7.38359 10.0321 7.38359C10.4008 7.38359 10.6946 7.48051 10.9127 7.6736C11.1308 7.86744 11.2391 8.09915 11.2391 8.37099C11.2391 8.56635 11.1777 8.74505 11.0551 8.90709C10.9756 9.01008 10.731 9.22664 10.3228 9.55754C9.91394 9.88844 9.64211 10.1868 9.50581 10.4518C9.36649 10.7229 9.31802 11.0235 9.30591 11.3249C9.29532 11.5831 9.50127 11.7981 9.76024 11.7981H10.1313C10.3675 11.7981 10.5629 11.6172 10.5841 11.3824C10.5992 11.2136 10.6272 11.0856 10.6697 10.9985C10.7408 10.8493 10.9248 10.6525 11.2201 10.4071C11.7918 9.93387 12.1644 9.55981 12.3393 9.28419C12.5135 9.00932 12.6013 8.71779 12.6013 8.40961C12.6013 7.85306 12.3643 7.36466 11.8895 6.94516C11.4155 6.52567 10.7764 6.31592 9.97377 6.31592C9.2105 6.31592 8.59489 6.52264 8.12542 6.93683C7.72561 7.28969 7.48254 7.70767 7.39698 8.19002C7.37047 8.33086 7.46664 8.46261 7.60672 8.48003Z" fill="#8D8D8D"/>
</g>
<defs>
<clipPath id="clip0">
<rect width="7.36842" height="7.36842" fill="white" transform="translate(6.31348 6.31592)"/>
</clipPath>
</defs>
</svg>
