<svg width="65" height="65" viewBox="0 0 65 65" fill="none" xmlns="http://www.w3.org/2000/svg">
<rect width="65" height="65" rx="32.5" fill="#55A0D7"/>
<path d="M24.0963 45H41.9167C44.6433 45 46 43.6442 46 40.9587V25.0413C46 22.3558 44.6433 21 41.9167 21H24.0963C21.3698 21 20 22.3427 20 25.0413V40.9587C20 43.6573 21.3698 45 24.0963 45ZM23.9007 42.9011C22.7396 42.9011 22.1004 42.2884 22.1004 41.076V28.7827C22.1004 27.5834 22.7396 26.9576 23.9007 26.9576H42.0863C43.2474 26.9576 43.8996 27.5834 43.8996 28.7827V41.076C43.8996 42.2884 43.2474 42.9011 42.0863 42.9011H23.9007ZM30.4626 31.6377H31.2323C31.6889 31.6377 31.8324 31.5073 31.8324 31.0511V30.2819C31.8324 29.8256 31.6889 29.6822 31.2323 29.6822H30.4626C30.006 29.6822 29.8495 29.8256 29.8495 30.2819V31.0511C29.8495 31.5073 30.006 31.6377 30.4626 31.6377ZM34.7938 31.6377H35.5635C36.0201 31.6377 36.1766 31.5073 36.1766 31.0511V30.2819C36.1766 29.8256 36.0201 29.6822 35.5635 29.6822H34.7938C34.3372 29.6822 34.1806 29.8256 34.1806 30.2819V31.0511C34.1806 31.5073 34.3372 31.6377 34.7938 31.6377ZM39.1249 31.6377H39.8946C40.3512 31.6377 40.5078 31.5073 40.5078 31.0511V30.2819C40.5078 29.8256 40.3512 29.6822 39.8946 29.6822H39.1249C38.6683 29.6822 38.5248 29.8256 38.5248 30.2819V31.0511C38.5248 31.5073 38.6683 31.6377 39.1249 31.6377ZM26.1315 35.9006H26.8881C27.3578 35.9006 27.5013 35.7702 27.5013 35.314V34.5448C27.5013 34.0885 27.3578 33.9582 26.8881 33.9582H26.1315C25.6618 33.9582 25.5183 34.0885 25.5183 34.5448V35.314C25.5183 35.7702 25.6618 35.9006 26.1315 35.9006ZM30.4626 35.9006H31.2323C31.6889 35.9006 31.8324 35.7702 31.8324 35.314V34.5448C31.8324 34.0885 31.6889 33.9582 31.2323 33.9582H30.4626C30.006 33.9582 29.8495 34.0885 29.8495 34.5448V35.314C29.8495 35.7702 30.006 35.9006 30.4626 35.9006ZM34.7938 35.9006H35.5635C36.0201 35.9006 36.1766 35.7702 36.1766 35.314V34.5448C36.1766 34.0885 36.0201 33.9582 35.5635 33.9582H34.7938C34.3372 33.9582 34.1806 34.0885 34.1806 34.5448V35.314C34.1806 35.7702 34.3372 35.9006 34.7938 35.9006ZM39.1249 35.9006H39.8946C40.3512 35.9006 40.5078 35.7702 40.5078 35.314V34.5448C40.5078 34.0885 40.3512 33.9582 39.8946 33.9582H39.1249C38.6683 33.9582 38.5248 34.0885 38.5248 34.5448V35.314C38.5248 35.7702 38.6683 35.9006 39.1249 35.9006ZM26.1315 40.1765H26.8881C27.3578 40.1765 27.5013 40.0331 27.5013 39.5769V38.8077C27.5013 38.3514 27.3578 38.2211 26.8881 38.2211H26.1315C25.6618 38.2211 25.5183 38.3514 25.5183 38.8077V39.5769C25.5183 40.0331 25.6618 40.1765 26.1315 40.1765ZM30.4626 40.1765H31.2323C31.6889 40.1765 31.8324 40.0331 31.8324 39.5769V38.8077C31.8324 38.3514 31.6889 38.2211 31.2323 38.2211H30.4626C30.006 38.2211 29.8495 38.3514 29.8495 38.8077V39.5769C29.8495 40.0331 30.006 40.1765 30.4626 40.1765ZM34.7938 40.1765H35.5635C36.0201 40.1765 36.1766 40.0331 36.1766 39.5769V38.8077C36.1766 38.3514 36.0201 38.2211 35.5635 38.2211H34.7938C34.3372 38.2211 34.1806 38.3514 34.1806 38.8077V39.5769C34.1806 40.0331 34.3372 40.1765 34.7938 40.1765Z" fill="white"/>
</svg>
