<svg width="65" height="65" viewBox="0 0 65 65" fill="none" xmlns="http://www.w3.org/2000/svg">
<rect width="65" height="65" rx="32.5" fill="#E36565"/>
<g clip-path="url(#clip0)">
<path d="M42.1924 23.8076C39.737 21.3522 36.4725 20 33 20C29.5276 20 26.263 21.3522 23.8076 23.8076C21.3522 26.263 20 29.5276 20 33C20 36.4725 21.3522 39.737 23.8076 42.1924C26.263 44.6478 29.5276 46 33 46C36.4725 46 39.737 44.6478 42.1925 42.1924C44.6478 39.737 46.0001 36.4724 46.0001 33C46.0001 29.5275 44.6478 26.263 42.1924 23.8076ZM24.886 24.886C26.0291 23.7428 27.3711 22.8709 28.8338 22.3018C28.4442 22.7882 28.0797 23.3473 27.7456 23.976C27.3576 24.7063 27.0228 25.5083 26.7439 26.3649C25.778 26.2046 24.8829 26.0074 24.0833 25.7761C24.3339 25.468 24.6013 25.1707 24.886 24.886ZM23.1601 27.0883C24.0953 27.3878 25.1649 27.6403 26.3319 27.8403C26.0069 29.2199 25.8156 30.7044 25.77 32.2375H21.5507C21.6705 30.3976 22.2231 28.6416 23.1601 27.0883ZM23.077 38.7707C22.1907 37.2524 21.6669 35.5471 21.5506 33.7625H25.7729C25.8227 35.2519 26.0102 36.6942 26.3243 38.0376C25.1332 38.2307 24.0368 38.4768 23.077 38.7707ZM24.886 41.1141C24.562 40.79 24.2603 40.4498 23.9805 40.0957C24.8094 39.8658 25.7361 39.6712 26.7336 39.5151C27.0144 40.3836 27.3528 41.1962 27.7455 41.9354C28.1096 42.6206 28.5099 43.2227 28.9394 43.7384C27.4358 43.1705 26.0566 42.2846 24.886 41.1141ZM32.2375 44.2793C31.0793 43.9549 29.9836 42.8972 29.0923 41.2198C28.7806 40.6332 28.5067 39.9932 28.2722 39.3111C29.528 39.1729 30.8643 39.0911 32.2375 39.072V44.2793ZM32.2375 37.5468C30.7147 37.5676 29.2304 37.6632 27.8403 37.8265C27.5337 36.5589 27.3492 35.187 27.2986 33.7626H32.2375V37.5468H32.2375ZM32.2375 32.2375H27.2957C27.342 30.7733 27.5294 29.363 27.8456 28.0632C29.2267 28.2359 30.7079 28.3409 32.2375 28.371V32.2375ZM32.2375 26.8457C30.859 26.818 29.5256 26.7281 28.2787 26.5814C28.5118 25.9064 28.7835 25.2729 29.0923 24.6916C29.9836 23.0142 31.0793 21.9565 32.2375 21.6321V26.8457ZM42.888 27.1693C43.7957 28.7026 44.3316 30.4294 44.4495 32.2375H40.2302C40.185 30.722 39.9974 29.2541 39.6792 27.8882C40.8539 27.6985 41.9367 27.4571 42.888 27.1693ZM41.114 24.886C41.4202 25.1921 41.7062 25.5131 41.9729 25.8463C41.1567 26.0691 40.2478 26.2583 39.2712 26.4105C38.9894 25.5367 38.6495 24.7193 38.2545 23.976C37.9204 23.3473 37.5559 22.7882 37.1663 22.3018C38.6289 22.8709 39.9709 23.7428 41.114 24.886ZM33.7626 33.7626H38.7015C38.6505 35.198 38.4635 36.5804 38.1526 37.8561C36.7716 37.6845 35.2911 37.5804 33.7626 37.5512V33.7626ZM33.7626 32.2375V28.376C35.2863 28.356 36.7717 28.2612 38.1631 28.0986C38.4741 29.3886 38.6585 30.7865 38.7043 32.2375H33.7626ZM33.7625 21.6321H33.7625C34.9207 21.9565 36.0164 23.0142 36.9077 24.6916C37.2214 25.282 37.4968 25.9265 37.7324 26.6136C36.4749 26.7513 35.1371 26.8324 33.7625 26.8509V21.6321ZM33.7626 44.2793V39.0764C35.1397 39.1034 36.4721 39.1925 37.7186 39.3382C37.4861 40.0101 37.2153 40.6409 36.9078 41.2198C36.0164 42.8972 34.9208 43.9549 33.7626 44.2793ZM41.114 41.1141C39.9435 42.2846 38.5643 43.1705 37.0606 43.7384C37.4901 43.2226 37.8904 42.6206 38.2545 41.9354C38.6414 41.2072 38.9755 40.4075 39.2539 39.5535C40.2423 39.7166 41.1568 39.9184 41.9714 40.1557C41.7052 40.4881 41.4196 40.8084 41.114 41.1141ZM42.8824 38.8403C41.9361 38.5361 40.8511 38.2801 39.6666 38.0781C39.9863 36.7233 40.1769 35.2669 40.2273 33.7626H44.4495C44.3313 35.5743 43.7936 37.3047 42.8824 38.8403Z" fill="white"/>
</g>
<defs>
<clipPath id="clip0">
<rect width="26" height="26" fill="white" transform="translate(20 20)"/>
</clipPath>
</defs>
</svg>
