<svg width="65" height="65" viewBox="0 0 65 65" fill="none" xmlns="http://www.w3.org/2000/svg">
<rect width="65" height="65" rx="32.5" fill="#D785D9"/>
<path d="M32.5 34.6352C33.1497 34.6352 33.7579 34.4239 34.5873 34.0458L45.2036 29.0971C46.4753 28.5077 47.1112 27.9405 47.1112 27.062C47.1112 26.1946 46.4753 25.6275 45.2036 25.0381L34.5873 20.0894C33.7579 19.7002 33.1497 19.5 32.5 19.5C31.8503 19.5 31.2421 19.7002 30.4127 20.0894L19.7826 25.0381C18.5247 25.6275 17.875 26.1946 17.875 27.062C17.875 27.9405 18.5247 28.5077 19.7826 29.0971L30.4127 34.0458C31.2421 34.4239 31.8503 34.6352 32.5 34.6352ZM32.5 40.1955C33.1082 40.1955 33.6612 39.9731 34.4491 39.6061L45.6459 34.3238C46.5859 33.879 47.125 33.334 47.125 32.6001C47.125 31.9328 46.6412 31.4102 46.0053 31.0654L33.7303 36.8037C33.2326 37.0372 32.8732 37.1818 32.5 37.1818C32.1268 37.1818 31.7674 37.0372 31.2697 36.8037L18.9947 31.0654C18.3588 31.4102 17.875 31.9328 17.875 32.6001C17.875 33.334 18.4141 33.8901 19.3403 34.3238L30.5509 39.6061C31.325 39.9731 31.878 40.1955 32.5 40.1955ZM32.5 45.5C33.1082 45.5 33.6612 45.2776 34.4491 44.9106L45.6459 39.6283C46.5859 39.1946 47.125 38.6386 47.125 37.9157C47.125 37.2374 46.6412 36.7147 46.0053 36.37L33.7303 42.1193C33.2326 42.3529 32.8732 42.4863 32.5 42.4863C32.1268 42.4863 31.7674 42.3529 31.2697 42.1193L18.9947 36.37C18.3588 36.7147 17.875 37.2374 17.875 37.9157C17.875 38.6386 18.4141 39.1946 19.3403 39.6283L30.5509 44.9106C31.325 45.2776 31.878 45.5 32.5 45.5Z" fill="white"/>
</svg>
