<svg width="65" height="65" viewBox="0 0 65 65" fill="none" xmlns="http://www.w3.org/2000/svg">
<rect width="65" height="65" rx="32.5" fill="#E36565"/>
<path d="M23.9178 45.7556C24.6849 46.204 25.7534 46.0409 26.3014 45.2258L41.5342 22.6197C42.137 21.7231 41.8767 20.677 41.0548 20.2151C40.3014 19.794 39.3288 19.9842 38.7397 20.8537L23.5068 43.3782C22.8904 44.2884 23.1096 45.2802 23.9178 45.7556ZM23.5479 33.4745C26.9589 33.4745 29.0959 30.934 29.0959 26.7905C29.0959 22.6197 26.9315 20.1744 23.5479 20.1744C20.1644 20.1744 18 22.6333 18 26.804C18 30.9612 20.137 33.4745 23.5479 33.4745ZM23.5479 30.7166C22.2055 30.7166 21.4932 29.3581 21.4932 26.804C21.4932 24.2772 22.2192 22.9322 23.5479 22.9322C24.8767 22.9322 25.6027 24.2636 25.6027 26.804C25.6027 29.3581 24.8767 30.7166 23.5479 30.7166ZM41.4521 45.8643C44.863 45.8643 47 43.3239 47 39.1803C47 34.996 44.8356 32.5507 41.4521 32.5507C38.0685 32.5507 35.9041 35.0096 35.9041 39.1803C35.9041 43.3374 38.0411 45.8643 41.4521 45.8643ZM41.4521 43.1065C40.1096 43.1065 39.3973 41.748 39.3973 39.1803C39.3973 36.6534 40.1233 35.3085 41.4521 35.3085C42.7808 35.3085 43.5068 36.6399 43.5068 39.1803C43.5068 41.748 42.7808 43.1065 41.4521 43.1065Z" fill="white"/>
</svg>
