<svg width="65" height="65" viewBox="0 0 65 65" fill="none" xmlns="http://www.w3.org/2000/svg">
<rect width="65" height="65" rx="32.5" fill="#55A0D7"/>
<g clip-path="url(#clip0)">
<path d="M44.6875 21.125H20.3125C19.864 21.125 19.5 21.4874 19.5 21.9375V23.5625C19.5 24.011 19.864 24.375 20.3125 24.375H21.125V37.375C21.125 38.272 21.8546 39 22.75 39H31.6875V41.002L29.6124 42.3865C29.2386 42.6351 29.1379 43.1405 29.3865 43.5126C29.6335 43.8848 30.1356 43.9855 30.5126 43.7385L32.5 42.4141L34.4874 43.7385C34.6255 43.8311 34.7815 43.875 34.9375 43.875C35.1991 43.875 35.4559 43.7483 35.6135 43.5126C35.8621 43.1405 35.7614 42.6351 35.3876 42.3865L33.3125 41.002V39H42.25C43.147 39 43.875 38.272 43.875 37.375V24.375H44.6875C45.136 24.375 45.5 24.011 45.5 23.5625V21.9375C45.5 21.4874 45.136 21.125 44.6875 21.125ZM26 35.75H24.375V30.875H26V35.75ZM29.25 35.75H27.625V27.625H29.25V35.75ZM36.5625 35.75C34.3216 35.75 32.5 33.9268 32.5 31.6875C32.5 29.7261 33.8975 28.0849 35.75 27.7079V32.5H40.5421C40.1651 34.3525 38.5255 35.75 36.5625 35.75ZM37.375 30.875V27.7079C38.9643 28.0312 40.2188 29.2858 40.5421 30.875H37.375Z" fill="white"/>
</g>
<defs>
<clipPath id="clip0">
<rect width="26" height="26" fill="white" transform="translate(19.5 19.5)"/>
</clipPath>
</defs>
</svg>
