<svg width="65" height="65" viewBox="0 0 65 65" fill="none" xmlns="http://www.w3.org/2000/svg">
<rect width="65" height="65" rx="32.5" fill="#9F85D9"/>
<path d="M37.9167 42.25L34.9375 39L36.1942 37.7433L37.9167 39.4658L41.8058 35.5767L43.0625 37.1042L37.9167 42.25ZM33.3667 42.25H24.9167C23.7142 42.25 22.75 41.275 22.75 40.0833V24.9167C22.75 23.7142 23.7142 22.75 24.9167 22.75H40.0833C40.658 22.75 41.2091 22.9783 41.6154 23.3846C42.0217 23.7909 42.25 24.342 42.25 24.9167V33.3667C41.2967 32.8142 40.1808 32.5 39 32.5L37.9167 32.5867V31.4167H27.0833V33.5833H35.4142C33.6592 34.7425 32.5 36.7358 32.5 39C32.5 40.1808 32.8142 41.2967 33.3667 42.25ZM32.5 35.75H27.0833V37.9167H32.5V35.75ZM37.9167 27.0833H27.0833V29.25H37.9167" fill="white"/>
</svg>
