<svg width="32" height="32" viewBox="0 0 32 32" fill="none" xmlns="http://www.w3.org/2000/svg">
<path d="M16 31.9488C24.8366 31.9488 32 24.7968 32 15.9744C32 7.15198 24.8366 0 16 0C7.16344 0 0 7.15198 0 15.9744C0 24.7968 7.16344 31.9488 16 31.9488Z" fill="#00C8C8"/>
<path d="M31.9595 16.0006C31.9593 15.1309 31.8887 14.2627 31.7482 13.4043L23.8879 5.55518L7.98059 26.4458L13.3337 31.7903C15.6272 32.1646 17.9749 32.0368 20.2141 31.4158C22.4533 30.7947 24.5306 29.6953 26.3022 28.1935C28.0737 26.6917 29.4973 24.8235 30.4742 22.7181C31.4511 20.6128 31.9581 18.3206 31.9601 16.0003L31.9595 16.0006Z" fill="#13AAAA"/>
<path d="M12.9152 5.55518L7.98059 10.4819V26.4458H23.8879V5.55518H12.9152Z" fill="white"/>
<path d="M15.9354 5.55518H23.889V26.4458H15.9354V5.55518Z" fill="#E9EDF5"/>
<path d="M12.9153 10.4819V5.55518L7.98059 10.4819H12.9153Z" fill="#E9EDF5"/>
<path d="M10.3558 19.604H21.5136V21.4791H10.3558V19.604Z" fill="#9196AA"/>
<path d="M15.9354 19.604H21.5143V21.4791H15.9354V19.604Z" fill="#707789"/>
<path d="M12.3042 22.3101H19.5646V24.1851H12.3042V22.3101Z" fill="#9196AA"/>
<path d="M15.9354 22.3101H19.5656V24.1851H15.9354V22.3101Z" fill="#707789"/>
<path d="M17.4378 18.1522L17.1378 17.2806H14.7462L14.4461 18.1522H12.6735L14.9557 12.0967H16.9198L19.2111 18.1522H17.4378ZM15.9344 13.6402L15.1646 15.9188H16.7106L15.9344 13.6402Z" fill="#7584F2"/>
<path d="M15.9354 13.6402L16.7113 15.9188H15.9354V17.2806H17.1387L17.4388 18.1522H19.2121L16.9205 12.0967H15.9354V13.6402Z" fill="#606AEA"/>
<path d="M22.3958 9.61058H21.1049V8.32178H19.2268V9.61058H17.9363V11.4856H19.2272V12.7744H21.1052V11.4856H22.3961L22.3958 9.61058Z" fill="#606AEA"/>
</svg>
