<svg width="32" height="32" viewBox="0 0 32 32" fill="none" xmlns="http://www.w3.org/2000/svg">
<path d="M32 15.9997C32 19.1641 31.0616 22.2575 29.3035 24.8887C27.5454 27.5198 25.0466 29.5705 22.1229 30.7815C19.1993 31.9925 15.9823 32.3093 12.8786 31.692C9.77486 31.0746 6.92394 29.5508 4.6863 27.3132C2.44866 25.0756 0.924806 22.2247 0.307443 19.1211C-0.309921 16.0174 0.00693258 12.8004 1.21793 9.87688C2.42894 6.95332 4.4797 4.4545 7.11088 2.69643C9.74207 0.938366 12.8355 0 16 0C20.2435 0 24.3131 1.68568 27.3137 4.6862C30.3143 7.68673 32 11.7563 32 15.9997Z" fill="#0EB221"/>
<path d="M31.9998 16C32.0011 14.3432 31.7449 12.6963 31.2402 11.1183L27.6082 7.48633L4.39136 9.5623L12.246 17.4168L5.45225 22.1874L11.9505 28.6856L10.8011 29.0624L13.5527 31.8139C15.8334 32.1647 18.163 32.0183 20.3819 31.3849C22.6007 30.7515 24.6565 29.6461 26.4084 28.1443C28.1603 26.6425 29.5669 24.7798 30.5319 22.6837C31.4969 20.5877 31.9975 18.3079 31.9994 16.0004L31.9998 16Z" fill="#109018"/>
<path d="M21.1984 29.0616L16.8753 24.7386V19.5205H15.1255V24.7391L10.8024 29.0621H13.2784L15.1268 27.2137V29.0616H16.877V27.2132L18.7255 29.0616H21.1984Z" fill="#DCE1EB"/>
<path d="M16.875 24.739V19.5205H15.9861V29.0616H16.875V27.2132L18.7234 29.0616H21.1981L16.875 24.739Z" fill="#CDD2E1"/>
<path d="M5.45239 8.8125H26.5471V22.1874H5.45239V8.8125Z" fill="white"/>
<path d="M15.9851 8.8125H26.5474V22.1874H15.9851V8.8125Z" fill="#E9EDF5"/>
<path d="M4.39136 7.48633H27.6065V9.56227H4.39136V7.48633Z" fill="#DCE1EB"/>
<path d="M15.9851 7.48633H27.6083V9.56227H15.9851V7.48633Z" fill="#CDD2E1"/>
</svg>
