<?xml version="1.0" encoding="UTF-8"?> <!-- Generator: Adobe Illustrator 24.1.0, SVG Export Plug-In . SVG Version: 6.00 Build 0) --> <svg xmlns="http://www.w3.org/2000/svg" xmlns:xlink="http://www.w3.org/1999/xlink" id="Layer_1" x="0px" y="0px" viewBox="0 0 2048 2732" style="enable-background:new 0 0 2048 2732;" xml:space="preserve"> <style type="text/css"> .st0{fill:#FFFFFF;} .st1{opacity:0.7;} .st2{opacity:0.6;} .st3{fill:#DE3EC2;} .st4{opacity:0.54;} .st5{fill:#F6CDFF;} .st6{fill:#90A7D8;} .st7{fill:#6F83B0;} .st8{fill:#F750D4;} .st9{opacity:0.24;} .st10{fill:#FFC12C;} .st11{fill:#FF88BF;} .st12{opacity:0.28;} .st13{fill:#889DC9;} .st14{fill:#F09628;} .st15{opacity:0.19;} .st16{fill:#FF7DB6;} .st17{fill:#AF4F7F;} .st18{fill:#FFEDFF;} .st19{opacity:0.12;fill:#F750D4;} .st20{fill:#8F207A;} .st21{fill:#9E2685;} .st22{fill:#70135F;} .st23{fill:#FFDCF8;} .st24{fill:#6B3263;} .st25{fill:#F7B9D1;} .st26{fill:none;stroke:#1ACFB2;stroke-width:0.2;stroke-miterlimit:10;} .st27{fill:#9AD6F5;} .st28{fill:#0094C7;} .st29{fill:#0BA9D8;} .st30{fill:#C7E6F9;} .st31{fill:#71C9F2;} .st32{fill:#1DBAED;} .st33{clip-path:url(#SVGID_2_);} .st34{opacity:0.3;fill:#73CAD8;} .st35{opacity:0.3;} .st36{fill:#73CAD8;} .st37{opacity:0.4;fill:#73CAD8;} .st38{fill:none;stroke:#FFFFFF;stroke-miterlimit:10;} .st39{opacity:0.5;clip-path:url(#SVGID_2_);} .st40{opacity:0.9;clip-path:url(#SVGID_2_);} .st41{fill:#DB6BA8;} .st42{fill:#EAEAEA;} .st43{opacity:0.8;} .st44{fill:#72C6DD;} .st45{opacity:0.5;} .st46{fill:#C443A8;} .st47{opacity:0.9;} .st48{clip-path:url(#SVGID_4_);} .st49{opacity:0.5;clip-path:url(#SVGID_4_);} .st50{opacity:0.9;clip-path:url(#SVGID_4_);} .st51{fill:#195565;} .st52{opacity:0.3;clip-path:url(#SVGID_6_);fill:#195565;} .st53{clip-path:url(#SVGID_6_);fill:#195565;} .st54{fill:#FCDEDB;} .st55{fill:#F2B1D8;} .st56{fill:#1B1B1E;} .st57{fill:#E59CCF;} .st58{fill:#D398AC;} .st59{opacity:0.2;fill:#D398AC;} .st60{fill:#D8B7B1;} .st61{fill:#E29AC8;} .st62{opacity:0.1;} .st63{opacity:0.2;} </style> <rect x="-74.51" y="-68.25" class="st0" width="2181.15" height="2885.83"></rect> <g> <defs> <rect id="SVGID_3_" x="-2853.48" y="-8.14" width="4910.84" height="2762.35"></rect> </defs> <clipPath id="SVGID_2_"> <use xlink:href="#SVGID_3_" style="overflow:visible;"></use> </clipPath> <g class="st33"> <path class="st34" d="M4618.81,1024.43c-20.14,63.74-51.07,130.8-94.87,200.72c-127.53,203.59-350.32,405.39-574.48,558.64 c-92.82,63.46-156.86,82.83-247.8,126.78c-121.69,58.81-260,150.4-375.89,234.83c-214.83,156.51,91.54,179.02-110.7,351.66 c-173.18,147.83,241.76,335.03-285.13,299.23c-113.04-7.68-480.85-63.94-764.76-266c-255.99-182.19-475.34,187.36-777.42-19.81 c-340.31-233.4-488.66,58.18-703.51,129.8c-445.15,148.38-721.76-532.31-327.39-780.11c289.02-181.6,291.58-342.74,253.22-399.01 c-133.5-195.79-578.16,120.11-452.72-342.74c74.17-273.68-309.49-143.23,8.89-589.36c134.78-188.87-461.6,8.76-479.51-190.74 c-23.71-264.15-452.72,127.89-726.39-71.62c-148.47-108.23-36.57-427.21,37.49-554.37c158.3-271.79,2488.31-651.73,2785.03-905.03 c347.36-296.53,784.55-429.01,1058.67-380.86c274.12,48.15,411.17,243.84,489.4,467.67c78.19,223.71,115.26,473.01,210.1,685.07 C3642.06-194.86,3778.75-28,3994.17,107.12c207.46,130.13,434.97,245.15,566.23,439.94 C4641.32,667.13,4680.08,830.46,4618.81,1024.43z"></path> <g class="st35"> <path class="st36" d="M3900.82,1850.02c9.27,331.76-171.84,345.19-404.35,551.9c-338.17,300.64-490.63,435.86-834.79,434.5 c-242.81-0.96-189.73-417.47-357.79-554.68c-168.06-137.21-326.55-148.52-531.17-137.96c-140.86,7.27-311.28,29.53-453.14,45.64 c-282.36,32.08-483.16-24-565.66-256.34c-118.48-333.64,291.57-580.63,193.19-879.24c-121.53-368.89-781.62-137.4-686.24-762.92 c56-367.24,536.88-351.87,849.69-484.99c50.59-21.53,98.86-51.34,133.78-94.61c59.76-74.03,67.02-180.43,83.65-277.97 c35.73-209.49,129.51-408.26,284.59-538.6c155.09-130.33,486.94-142.58,659.97-63.31L3900.82,1850.02z"></path> </g> <path class="st37" d="M1701.41-258.4C1248.26,345.1,1899.31,54.87,1839.18,363.4c-69.53,356.73,380.63,240.84,451.32,304.86 c59.11,53.53,107.89,150.75,76.73,304.37c-1.78,8.76,20.3,74.31,66.5,104.87c158.58,104.87-34.13,171.57,28.14,306.93 c58.83,127.89,251.14,5.9,230.2,150.91c-33.25,230.2,217.41,225.08,217.41,225.08c79.29,25.58,62.34-99.51,43.48-61.39 c-39.91,80.7-51.45-152.02-19.61-122.89c32.9,30.1,87.36,20.9,110.53,17.17c337.07-54.17,387-604.64,715.94-844.99 c495.96-362.39-42.03-723.94-236.29-852.39c-281.97-186.44-562.6-290-690.97-329.81c-9.07-6.81-18.56-13.55-28.62-20.17 c-85.69-56.43-249.94-263.62-392.31-357.38c-157.82-111.81-289-102.43-435.06,46.44C1758.84-543.09,1869.08-481.69,1701.41-258.4z "></path> </g> <g class="st33"> <g> <polygon class="st0" points="881.94,590.02 863.99,590.05 876.33,577.01 876.3,559.06 889.34,571.4 907.28,571.37 894.95,584.41 894.98,602.35 "></polygon> </g> <g> <polygon class="st0" points="306.45,295.88 288.51,295.91 300.84,282.87 300.81,264.93 313.85,277.26 331.8,277.23 319.46,290.27 319.49,308.22 "></polygon> </g> <g> <polygon class="st0" points="813.52,2245.95 795.57,2245.98 807.9,2232.94 807.88,2214.99 820.91,2227.33 838.86,2227.3 826.53,2240.34 826.56,2258.28 "></polygon> </g> <g> <polygon class="st0" points="783.12,938.93 753.16,938.97 773.74,917.21 773.7,887.25 795.46,907.83 825.43,907.79 804.83,929.55 804.88,959.52 "></polygon> </g> <g> <polygon class="st0" points="1145.41,385.98 1134.62,386 1142.03,378.16 1142.02,367.38 1149.85,374.79 1160.64,374.77 1153.23,382.61 1153.24,393.4 "></polygon> </g> <g> <polygon class="st0" points="1638.62,739.56 1627.83,739.58 1635.25,731.74 1635.23,720.96 1643.07,728.37 1653.85,728.35 1646.44,736.19 1646.46,746.98 "></polygon> </g> <g> <polygon class="st0" points="1457.78,939.81 1446.99,939.82 1454.4,931.99 1454.39,921.2 1462.22,928.61 1473.01,928.6 1465.6,936.43 1465.62,947.22 "></polygon> </g> <g> <polygon class="st0" points="1975.69,1719.49 1964.9,1719.51 1972.31,1711.67 1972.29,1700.89 1980.13,1708.3 1990.92,1708.28 1983.5,1716.12 1983.52,1726.91 "></polygon> </g> <g> <polygon class="st0" points="1545.99,1977.82 1535.2,1977.84 1542.61,1970.01 1542.6,1959.22 1550.43,1966.63 1561.22,1966.61 1553.81,1974.45 1553.82,1985.24 "></polygon> </g> <g> <polygon class="st0" points="256.89,1719.49 246.1,1719.51 253.52,1711.67 253.5,1700.89 261.34,1708.3 272.12,1708.28 264.71,1716.12 264.73,1726.91 "></polygon> </g> <path class="st38" d="M945.37,1406.55c5.16-2.23,11.15,0.15,13.38,5.31c2.23,5.16-0.15,11.15-5.31,13.38 c-5.16,2.23-11.15-0.15-13.38-5.31C937.83,1414.77,940.21,1408.78,945.37,1406.55z"></path> <path class="st38" d="M1778.8,1507.53c5.16-2.23,11.15,0.15,13.38,5.31c2.23,5.16-0.15,11.15-5.31,13.38 c-5.16,2.23-11.15-0.15-13.38-5.31C1771.26,1515.75,1773.64,1509.76,1778.8,1507.53z"></path> <path class="st38" d="M1090.74,521.23c5.16-2.23,11.15,0.15,13.38,5.31c2.23,5.16-0.15,11.15-5.31,13.38 c-5.16,2.23-11.15-0.15-13.38-5.31C1083.2,529.44,1085.58,523.45,1090.74,521.23z"></path> <path class="st38" d="M1420.96,43.21c8.13-3.51,17.57,0.24,21.07,8.37c3.51,8.13-0.24,17.57-8.37,21.07 c-8.13,3.51-17.57-0.24-21.07-8.37C1409.08,56.15,1412.83,46.72,1420.96,43.21z"></path> <path class="st38" d="M218.82,856.57c8.13-3.51,17.57,0.24,21.07,8.37c3.51,8.13-0.24,17.57-8.37,21.07 c-8.13,3.51-17.57-0.24-21.07-8.37C206.95,869.51,210.69,860.08,218.82,856.57z"></path> <path class="st38" d="M1832.33,448.27c15.24-6.58,32.92,0.45,39.49,15.68c6.58,15.24-0.45,32.92-15.68,39.49 s-32.92-0.45-39.5-15.68C1810.07,472.53,1817.09,454.85,1832.33,448.27z"></path> <path class="st38" d="M474.18,322.94c15.24-6.58,32.92,0.45,39.49,15.68c6.58,15.24-0.45,32.92-15.68,39.49 s-32.92-0.45-39.5-15.68C451.92,347.2,458.94,329.52,474.18,322.94z"></path> <path class="st38" d="M1535.32,1342.28c8.13-3.51,17.57,0.24,21.07,8.37c3.51,8.13-0.24,17.57-8.37,21.07 c-8.13,3.51-17.57-0.24-21.07-8.37C1523.44,1355.22,1527.19,1345.79,1535.32,1342.28z"></path> </g> <g class="st39"> <path class="st0" d="M1528.17,398.13c0.16,3.39-0.21,6.96-2.35,9.55c-2.64,3.19-7.14,3.96-11.25,4.42 c-11.55,1.31-23.13,1.47-34.7,2.32c-23.12,1.7-46.32,1.95-69.47,2.95c-39.44,1.71-79.1-1.53-117.71-9.74 c-2.17-0.46-4.45-0.99-6.1-2.47c-4.98-4.45-0.52-12.9,5.15-16.44c9.06-5.66,21-6.39,30.68-1.87 c-1.78-23.48,3.96-47.48,16.18-67.61c10.79-17.79,28.55-33.36,49.36-33.73c17.25-0.31,33.4,10.13,43.62,24.03 c9.95,13.54,12.86,27.83,16.66,43.88c0.51,2.18,1.49,4.79,3.7,5.07c1.21,0.16,2.36-0.48,3.43-1.06 c14.44-7.8,32.84-7.74,47.23,0.15c14.39,7.89,24.34,23.36,25.53,39.74C1528.14,397.58,1528.15,397.85,1528.17,398.13z"></path> </g> <g class="st39"> <path class="st0" d="M506.1,2389.5c0.31,4.66-0.38,9.58-4.36,13.14c-4.9,4.39-13.26,5.44-20.89,6.09 c-21.43,1.81-42.94,2.02-64.41,3.19c-42.92,2.35-85.98,2.68-128.96,4.06c-73.21,2.35-146.83-2.11-218.52-13.4 c-4.03-0.64-8.26-1.36-11.33-3.4c-9.25-6.13-0.96-17.75,9.55-22.63c16.82-7.79,38.99-8.8,56.96-2.58 c-3.31-32.32,7.35-65.34,30.03-93.05c20.04-24.48,53-45.91,91.62-46.43c32.02-0.43,62.01,13.94,80.97,33.07 c18.46,18.63,23.88,38.29,30.93,60.39c0.96,2.99,2.76,6.59,6.87,6.98c2.24,0.21,4.38-0.67,6.37-1.46 c26.81-10.74,60.96-10.66,87.68,0.2c26.72,10.86,45.18,32.16,47.4,54.69C506.04,2388.74,506.07,2389.12,506.1,2389.5z"></path> </g> <g class="st39"> <path class="st0" d="M824.94,690.26c-0.05,0.42-0.11,0.83-0.18,1.25c-5.01,30.45-81.84,24.71-102.82,25.24 c-42.91,1.08-85.82,2-128.74,2.68c-85.84,1.37-171.7,1.83-257.54,0.89c-45.74-0.5-91.83-1.05-136.58-10.48 c-5.6-1.18-11.87-3.02-14.42-8.14c-2.59-5.19-0.16-11.47,3.02-16.32c13.29-20.31,39.03-30.05,63.28-29.02 c24.26,1.03,47.21,11.36,67.89,24.09c5.34-42.68,10.96-86.29,30.03-124.84c19.07-38.56,54.46-71.8,97.23-76.39 c37.9-4.07,75.74,15.27,100.85,43.95c25.11,28.68,38.94,65.63,47.13,102.85c12.11-13.88,26.46-28.86,44.87-29.25 c13.4-0.28,25.72,7.55,35.23,16.99c14.59,14.49,24.41,32.98,34.02,51.16c9.15-11.98,20.14-23.42,34.4-28.3 C769.99,627.21,829.25,655.08,824.94,690.26z"></path> </g> <g class="st39"> <path class="st0" d="M1008.76,1923.24c-0.04,0.3-0.08,0.6-0.13,0.89c-3.58,21.77-58.5,17.66-73.5,18.04 c-30.67,0.77-61.35,1.43-92.02,1.92c-61.36,0.98-122.73,1.31-184.1,0.63c-32.69-0.36-65.64-0.75-97.63-7.49 c-4-0.84-8.48-2.16-10.31-5.82c-1.85-3.71-0.11-8.2,2.16-11.67c9.5-14.52,27.9-21.48,45.24-20.74s33.75,8.12,48.53,17.22 c3.82-30.51,7.83-61.68,21.47-89.24c13.63-27.56,38.93-51.33,69.5-54.61c27.09-2.91,54.14,10.91,72.09,31.41 c17.95,20.5,27.83,46.91,33.69,73.52c8.65-9.92,18.92-20.63,32.08-20.91c9.58-0.2,18.39,5.4,25.18,12.15 c10.43,10.36,17.45,23.57,24.32,36.57c6.54-8.56,14.4-16.74,24.59-20.23C969.47,1878.17,1011.83,1898.09,1008.76,1923.24z"></path> </g> <g class="st40"> <path class="st0" d="M1641.7,1622.4c20.96-0.71,41.01,11.94,56.37,26.47c20.46,19.37,35.86,43.19,44.56,68.54 c17.1,19.03,33.09,38.83,47.85,59.31c-13.89-39.37-9.09-82.85,13.21-115.96c1.53-2.27,4.25-4.76,6.98-3.39 c14.71,15.08,17.33,36.74,15.16,55.96c-2.94,26.07-13.38,50.78-29.84,71.16c16.41,23.42,31.28,47.66,44.48,72.55 c-6.18-38.5,4.97-77.97,30.72-106.31c1.85-2.04,4.94-4.15,7.48-2.48c12.61,16.58,12.16,38.14,7.25,56.72 c-6.51,24.66-20.03,47.18-38.77,64.98c11.88,23.61,22.27,47.77,31.12,72.32c2.26-35.98,19.79-69.98,48.59-92.45 c2.2-1.72,5.65-3.32,7.9-1.32c9.79,18,5.67,38.95-2.39,56.34c-10.35,22.33-26.92,41.75-47.69,56.23 c7.9,24.26,14.29,48.86,19.08,73.66c-0.44-39.35,17.57-77.33,48.84-101.73c2.2-1.72,5.65-3.32,7.9-1.32 c9.79,18,5.67,38.95-2.39,56.34c-11.07,23.87-29.23,44.42-52.05,59.16c3.48,20.33,5.9,40.77,7.2,61.25c0.28,4.37-7,4.93-7.28,0.53 c-1.3-20.52-3.74-41.01-7.25-61.38c-45.27-7.97-87.81-35.39-112.38-72.65c-1.62-2.45-3-6.02-0.65-7.57 c20.14-4.31,42.07,4.85,59.85,16.71c20.39,13.61,37.8,31.18,50.89,50.98c-4.51-23.22-10.45-46.26-17.7-69.01l-3.5-1.23 c-46.1-7.44-89.64-35.2-114.62-73.07c-1.62-2.45-3-6.02-0.65-7.57c20.14-4.31,42.07,4.85,59.85,16.71 c24.55,16.39,44.84,38.47,58.35,63.34c-9.95-30.91-22.35-61.29-37.1-90.8l-0.62-0.12c-46.2-0.72-93.36-22.13-124.16-56.38 c-2-2.22-3.95-5.59-1.92-7.48c18.89-7.25,41.84-1.28,61.18,7.99c23.12,11.09,43.84,26.93,60.3,45.83 c-13.59-26.05-29-51.39-46.12-75.82c-45.07,4.49-93.78-11.19-128.53-41.49c-2.27-1.98-4.66-5.12-2.95-7.26 c17.5-9.57,40.84-6.38,61.12,0.56c21.72,7.43,42.12,18.89,59.66,33.37c-14.02-18.91-29.07-37.23-45.14-54.85 c-41.59-16.18-76.58-49.08-93.03-87.95C1639.71,1627.18,1639.05,1623.5,1641.7,1622.4z"></path> </g> <g class="st40"> <path class="st0" d="M1620.8,393.34c20.04,7.04,43.25,0.91,62.49-8.48c25.64-12.51,47.75-30.86,63.84-52.71 c22.3-13.2,43.75-27.48,64.22-42.79c-25.36,33.82-33.91,77.29-22.41,116.05c0.79,2.65,2.67,5.89,5.71,5.39 c18.79-10.11,27.89-30.24,31.62-49.47c5.06-26.08,2.47-53.12-7.25-77.8c22.96-17.65,44.68-36.56,64.98-56.61 c-17.65,35.32-18.85,76.85-2.56,112.04c1.17,2.53,3.51,5.5,6.47,4.66c17.21-12.2,23.31-33.16,24.21-52.6 c1.19-25.81-5.04-51.66-17.75-74.55c18.64-19.21,36.01-39.4,52.01-60.44c-8.73,35.45-2.11,73.61,18.9,104.07 c1.6,2.33,4.45,4.92,7.23,3.68c14.92-14.42,17.29-35.91,14.78-55.16c-3.23-24.72-13.35-48.51-29.02-68.8 c14.99-21.05,28.62-42.88,40.78-65.39c-12.36,37.89-6.48,80.05,16.33,113.11c1.6,2.33,4.45,4.92,7.23,3.68 c14.92-14.42,17.29-35.91,14.78-55.16c-3.45-26.42-14.77-51.79-32.35-72.95c9.53-18.59,18.07-37.61,25.54-57 c1.59-4.14-5.27-6.89-6.88-2.72c-7.48,19.43-16.05,38.49-25.62,57.11c-46.16-6.03-95.57,7.56-130.62,36.1 c-2.31,1.88-4.72,4.91-2.93,7.11c18.15,10.28,42.13,8.07,62.89,2c23.83-6.97,45.99-18.66,64.64-33.82 c-11.4,21.07-24.13,41.52-38.03,61.31l-3.75,0.12c-46.8-6.79-97.29,6.82-132.92,35.84c-2.31,1.88-4.72,4.91-2.93,7.11 c18.15,10.28,42.13,8.07,62.89,2c28.69-8.39,54.99-23.57,75.6-43.5c-18.99,26.85-40.18,52.44-63.39,76.48l-0.63-0.07 c-44.86-13.32-96.92-6.94-137.06,16.81c-2.6,1.54-5.51,4.2-4.13,6.64c16.05,12.74,40.03,13.93,61.53,10.84 c25.7-3.7,50.53-12.72,72.16-25.99c-21.03,21.05-43.6,40.86-67.56,59.26c-42.19-18.01-94.01-17.64-136.77,1.1 c-2.8,1.23-6.06,3.53-5.05,6.12c14,14.55,37.53,18.55,59.23,18c23.24-0.59,46.42-5.48,67.77-14.15 c-19.28,14.02-39.38,27.16-60.25,39.31c-45.1,3.02-88.88,24.19-116.57,56.76C1620.33,388.12,1618.57,391.48,1620.8,393.34z"></path> </g> <g class="st40"> <path class="st0" d="M1836.65,2696.76c1.82-8.16,8.71-14.64,15.85-19.11c9.52-5.96,20.25-9.52,30.91-10.35 c9.05-4.7,18.29-8.89,27.67-12.54c-16.58,1.43-32.88-4.77-43.44-16.69c-0.72-0.82-1.41-2.12-0.61-3.03 c7.29-4.17,15.91-3.02,23.11-0.26c9.77,3.74,18.26,10.24,24.48,18.63c10.68-3.99,21.52-7.31,32.45-9.91 c-15.48-1.46-29.6-9.71-37.96-22.48c-0.6-0.92-1.11-2.32-0.21-3.13c7.66-3.21,15.93-0.88,22.61,2.87 c8.87,4.98,16.21,12.45,21.2,21.46c10.3-2.22,20.66-3.82,31.02-4.78c-13.66-4.47-25.03-14.63-30.83-27.99 c-0.44-1.02-0.72-2.51,0.28-3.18c7.93-1.98,15.6,1.7,21.5,6.55c7.58,6.23,13.42,14.56,16.94,24.03c10.15-0.62,20.29-0.63,30.34,0 c-15.23-3.77-28.09-14.51-34.38-29.02c-0.44-1.02-0.72-2.51,0.28-3.18c7.93-1.98,15.6,1.7,21.51,6.55 c8.11,6.66,14.22,15.72,17.63,26c8.19,0.69,16.33,1.8,24.36,3.34c1.71,0.33,1.2,3.2-0.52,2.86c-8.05-1.55-16.2-2.65-24.41-3.34 c-7.6,16.67-22.43,30.35-39.27,36.11c-1.11,0.38-2.62,0.56-2.99-0.5c0.35-8.2,6.08-15.75,12.43-21.43 c7.29-6.51,15.81-11.47,24.76-14.55c-9.41-0.58-18.9-0.59-28.4-0.07l-0.82,1.23c-7.48,17.05-22.54,31.08-39.66,36.94 c-1.11,0.38-2.62,0.56-2.99-0.5c0.35-8.2,6.08-15.75,12.43-21.43c8.78-7.84,19.33-13.46,30.28-16.19 c-12.93,0.75-25.89,2.5-38.75,5.24l-0.11,0.23c-4.9,17.76-17.87,33.82-34.17,42.28c-1.06,0.55-2.55,0.96-3.08,0 c-0.91-8.02,3.69-16.28,9.2-22.81c6.59-7.82,14.77-14.23,23.71-18.69c-11.41,2.64-22.73,6.05-33.87,10.22 c-2.77,17.84-13.69,35.08-28.86,45.46c-0.99,0.68-2.44,1.29-3.1,0.41c-1.94-7.71,1.62-16.4,6.33-23.53 c5.04-7.64,11.5-14.37,18.84-19.69c-8.7,3.52-17.28,7.5-25.68,11.94c-10.4,14.43-26.59,24.65-43.24,27.12 C1838.29,2698,1836.8,2697.89,1836.65,2696.76z"></path> </g> <g class="st33"> <path class="st41" d="M2067.93,2657.28c-17.02-18.3-34.92-35.67-53.59-52.09c7-31.62,5.76-65.04-3.75-96.01 c-6.92-22.54-19.75-45.31-41.48-54.45c-3.35-0.1-4.88,4.09-5.33,7.41c-6.34,47.39,8.58,97.09,39.46,133.51 c-23.06-19.5-47.25-37.56-72.4-54.12c5.55-29.78,3.89-60.9-5-89.86c-6.92-22.54-19.75-45.3-41.48-54.45 c-3.35-0.1-4.88,4.09-5.33,7.41c-5.83,43.57,6.34,89.1,32.34,124.47c-26.06-16.05-53.07-30.52-80.85-43.32 c1.34-31.28-5.14-62.88-18.92-91c-10.38-21.17-26.62-41.64-49.51-47.26c-3.32,0.43-4.18,4.81-4.1,8.16 c1.16,46.59,22.62,92.18,57.26,123.27c-29.79-12.94-60.41-23.95-91.64-33c-2.49-31.88-13.14-63.09-30.85-89.71 c-13.06-19.63-31.84-37.8-55.28-40.37c-3.24,0.86-3.51,5.31-2.99,8.62c7.6,48.29,37.18,92.59,78.6,118.48 c-27.61-7.56-55.68-13.54-84.06-17.91c-26.49-16.82-57.18-27-88.5-29.08c-23.52-1.56-49.37,2.31-65.65,19.36 c-1.29,3.09,2.08,6.02,5.03,7.62c43.11,23.39,96.48,26.76,142.31,9.41c26.39,3.88,52.52,9.18,78.28,15.84 c-25.12,0.25-50.2,5.51-73.25,15.5c-21.63,9.38-42.83,24.65-49.51,47.26c0.27,3.34,4.61,4.4,7.96,4.47 c51.21,1.12,102.38-22.3,135.12-61.7c32.55,9.39,64.42,20.97,95.38,34.62c-27.74-4.75-56.54-3.34-83.61,4.38 c-22.67,6.46-45.69,18.83-55.28,40.37c-0.17,3.35,3.99,4.96,7.3,5.47c51.11,7.89,105.47-8.99,143.13-44.44l0.56-0.35 c34.59,15.99,67.96,34.62,99.77,55.68l0.04,0.06c-30.03-12.66-63.35-17.42-95.71-13.52c-23.41,2.82-48.08,11.42-60.93,31.19 c-0.69,3.28,3.16,5.53,6.35,6.55c49.24,15.82,105.58,7.68,148.33-21.41l3.8-1.61c23.37,15.57,45.91,32.46,67.43,50.63 c-25.79-8.28-53.35-11.08-80.25-7.83c-23.41,2.82-48.08,11.42-60.93,31.19c-0.69,3.28,3.16,5.53,6.35,6.55 c48.46,15.57,103.77,7.89,146.26-20.09c18.27,16.08,35.79,33.08,52.44,50.99C2064.86,2665.99,2071.54,2661.16,2067.93,2657.28z"></path> </g> <g class="st33"> <g class="st43"> <path class="st44" d="M1891.78,25.32c-56.99-31.58-118.5-64.1-177.64-54.95c-31.77,4.92-60.83,21.79-93.45,21.19 c-29.47-0.55-58.47-15.28-87.62-24.81c-90.18-29.47-190.68-3.99-242.53,73.67c-9.26,13.87-17.13,29.94-17.3,48.17 c-0.34,36.52,30.35,68.88,61.81,83.14c37.03,16.79,78.42,16.35,111.69-1.2c47.7-25.17,79.86-83.44,134.14-88.44 c30.96-2.86,63.21,12.84,94.38,11.37c39.95-1.89,71.34-31.05,104.31-52.98c32.97-21.93,77.06-36.63,112.79-10.94"></path> </g> <g class="st45"> <g> <g> <path class="st0" d="M1280.26,116.32c30.62-10.97,56.39-31.33,83.2-49.14c13.53-8.99,27.5-17.54,42.54-23.78 c16.68-6.92,34.2-10.21,52.24-10.46c20.03-0.27,39.93,2.47,59.8,4.62c19.77,2.13,39.53,3.33,59.4,1.83 c19.14-1.45,38.12-4.98,56.46-10.62c9.02-2.77,17.87-6.06,26.52-9.82c8.94-3.89,17.64-8.29,26.69-11.94 c8.93-3.6,18.22-6.43,27.86-7.22c9.37-0.78,18.81,0.13,27.98,2.13c19.44,4.22,37.53,12.88,55.15,21.85 c4.45,2.27,8.88,4.58,13.33,6.84c1.12,0.57,2.11-1.07,0.99-1.7c-17.19-9.66-34.99-18.8-53.72-25.08 c-17.39-5.83-36.03-8.82-54.18-4.9c-19.03,4.11-35.96,14.47-53.95,21.49c-18.18,7.09-37.18,12.03-56.49,14.77 c-19.89,2.83-40.01,3.16-60.02,1.58c-20.2-1.6-40.26-4.69-60.51-5.72c-18.67-0.94-37.44,0.11-55.38,5.68 c-15.4,4.79-29.79,12.31-43.46,20.78c-27.87,17.28-53.26,38.64-83.1,52.63c-3.84,1.8-7.74,3.45-11.7,4.94 C1279.15,115.37,1279.47,116.6,1280.26,116.32L1280.26,116.32z"></path> </g> </g> <g> <g> <path class="st0" d="M1498.99,34.78c-12.94-0.28-25.82,1.32-38.34,4.57c-12.41,3.22-24.39,8.01-35.65,14.14 c-11.41,6.21-22.06,13.8-31.7,22.51c-9.8,8.84-18.55,18.83-26.09,29.66c-7.78,11.17-14.18,23.22-19.07,35.93 c-0.63,1.63-1.23,3.28-1.81,4.93c-0.29,0.81,0.98,1.14,1.28,0.35c4.81-12.62,10.99-24.77,18.37-36.08 c7.18-11.01,15.61-21.19,25.1-30.28c9.25-8.86,19.5-16.67,30.54-23.17c10.93-6.44,22.61-11.58,34.76-15.24 c12.31-3.71,25.03-5.8,37.85-6.58c1.59-0.1,3.17-0.17,4.76-0.21C1499.32,35.29,1499.32,34.79,1498.99,34.78L1498.99,34.78z"></path> </g> </g> <g> <g> <path class="st0" d="M1588.48,33.64c-19.03-4.93-37.72-11.37-55.65-19.46c-18.32-8.27-35.92-18.16-52.56-29.43 c-9.65-6.54-19.01-13.5-28.03-20.87c-0.78-0.64-1.9,0.46-1.12,1.12c15.84,13.24,32.82,25.09,50.73,35.36 c17.35,9.95,35.58,18.37,54.43,25.05c10.47,3.71,21.09,6.76,31.93,9.16C1588.83,34.71,1589.08,33.8,1588.48,33.64 L1588.48,33.64z"></path> </g> </g> <g> <g> <path class="st0" d="M1356.34,70.64c-20.34,2.83-41.25,2.45-61.52-0.8c-5.85-0.94-11.65-2.12-17.4-3.53 c-1.07-0.26-1.53,1.4-0.46,1.66c20.44,4.87,41.66,6.98,62.65,5.54c5.69-0.39,11.34-1.07,16.98-1.93 C1357.22,71.48,1356.95,70.55,1356.34,70.64L1356.34,70.64z"></path> </g> </g> </g> </g> <g class="st33"> <g class="st43"> <path class="st41" d="M2111.74,2414.92c-20.48-38.64-18.53-74.71-3.01-115.61c10.23-26.97,27.84-50.62,38.42-77.46 c10.58-26.83,12.78-60.15-5.94-82.09c-8.42-9.87-20.17-16.35-29.04-25.81c-15.94-16.98-20.87-41.71-20.36-65 c0.52-23.29,5.75-46.23,7.1-69.48c4.86-83.31-47.75-168.89-126.92-195.26c-21.82-7.27-47.93-9.49-65.95,4.8 c-8.79,6.98-14.57,17.15-18.23,27.76c-19.2,55.56,15.48,113.52,29.51,170.61c2.53,10.29,4.39,20.98,2.77,31.45 c-1.96,12.68-8.84,23.95-14.73,35.34c-20.14,38.91-27.88,91.6,2.95,122.73c10.8,10.9,25.52,18.17,33.43,31.32 c7.33,12.18,7.48,27.18,7.78,41.39c0.97,45.32,8.13,95.52,43,124.47c15.08,12.52,33.82,19.6,50.79,29.4 c29.29,16.9,53.58,42.37,69.08,72.43C2115.94,2452.65,2116.83,2437.88,2111.74,2414.92"></path> </g> <g class="st35"> <g> <g> <path class="st0" d="M1919.06,1823.79c24.69,36.5,55.65,68.89,76.55,107.9c11.38,21.25,18.98,44.36,21.96,68.3 c3.08,24.78,0.6,49.47-4.01,73.89c-8.76,46.35-24.24,94.89-10.88,141.95c5.85,20.61,17.49,38.76,28.3,57.04 c5.42,9.17,10.69,18.47,14.92,28.26c4.71,10.9,7.51,22.27,9.43,33.96c1.94,11.83,3.3,23.78,6.4,35.39 c2.51,9.43,6.02,18.59,10.37,27.32c8.92,17.89,21.55,34.19,37.01,46.9c3.72,3.06,7.67,5.87,11.69,8.53 c0.9,0.59,1.69-0.82,0.84-1.43c-16.73-11.98-31.04-27.34-41.66-44.97c-11.3-18.79-17.04-39.07-20.3-60.61 c-1.81-11.98-3.47-24.03-7.31-35.56c-3.28-9.87-7.86-19.27-12.88-28.36c-10.34-18.71-22.79-36.43-30.58-56.46 c-17.99-46.25-4-95.97,5.37-142.44c4.76-23.65,8.34-47.65,6.76-71.83c-1.52-23.16-7.19-45.99-16.7-67.16 c-18.1-40.29-48.65-73.16-74.74-108.26c-3.19-4.29-6.3-8.64-9.3-13.07C1919.76,1822.35,1918.55,1823.04,1919.06,1823.79 L1919.06,1823.79z"></path> </g> </g> <g> <g> <path class="st0" d="M2017.82,1990.02c0.03-3.42,0.21-6.85,0.27-10.27c0.05-3.26,0.07-6.52,0.15-9.78 c0.16-6.69,0.46-13.37,0.9-20.04c0.88-13.43,2.3-26.82,4.18-40.14c1.05-7.43,2.27-14.84,3.65-22.21 c0.2-1.05-1.41-1.5-1.61-0.44c-5.12,26.35-7.98,53.07-8.56,79.91c-0.08,3.75-0.13,7.5-0.11,11.25c0.02,3.93,0.3,7.82,0.5,11.74 C2017.2,1990.43,2017.82,1990.43,2017.82,1990.02L2017.82,1990.02z"></path> </g> </g> <g> <g> <path class="st0" d="M2023.67,2255.59c5.03-24.51,11.39-48.64,19.78-72.23c8.35-23.47,18.51-46.29,30.35-68.21 c6.68-12.35,13.89-24.43,21.58-36.17c0.65-1-0.94-1.92-1.59-0.93c-13.81,20.92-25.93,42.93-36.28,65.76 c-10.32,22.76-18.93,46.3-25.6,70.38c-3.75,13.53-6.99,27.24-9.37,41.08C2022.43,2256.01,2023.52,2256.33,2023.67,2255.59 L2023.67,2255.59z"></path> </g> </g> <g> <g> <path class="st0" d="M2011.98,2082.73c-4.91-18.83-13.42-36.65-24.62-52.55c-11.14-15.81-24.89-29.86-40.61-41.14 c-8.92-6.4-18.47-11.91-28.48-16.43c-1.01-0.45-1.89,1.03-0.88,1.5c17.51,8,33.57,19.09,47.4,32.46 c13.84,13.38,25.46,29.07,34.19,46.22c4.92,9.66,8.94,19.82,12,30.22C2011.17,2083.64,2012.15,2083.37,2011.98,2082.73 L2011.98,2082.73z"></path> </g> </g> <g> <g> <path class="st0" d="M2063.23,2370.64c-11.27-23.85-28.57-45-49.13-61.45c-5.73-4.58-11.76-8.78-18.01-12.61 c-0.8-0.49-1.53,0.76-0.73,1.25c22.2,13.76,41.39,32.36,55.77,54.17c4.07,6.18,7.76,12.61,11.13,19.2 C2062.59,2371.86,2063.53,2371.29,2063.23,2370.64L2063.23,2370.64z"></path> </g> </g> <g> <g> <path class="st0" d="M1998.44,2185.89c-7.33-19.23-16.84-37.61-28.09-54.84c-3.22-4.93-6.59-9.76-10.08-14.5 c-0.47-0.63-1.54-0.02-1.07,0.62c12.11,16.49,22.6,34.16,31.29,52.69c2.51,5.36,4.94,10.77,7.2,16.24 C1997.88,2186.55,1998.62,2186.37,1998.44,2185.89L1998.44,2185.89z"></path> </g> </g> <g> <g> <path class="st0" d="M1955.64,1872.88c-4.21-5.67-9.74-10.62-15.38-14.85c-5.82-4.37-12.13-8.08-18.78-11.04 c-3.72-1.66-7.54-3.08-11.43-4.26c-0.85-0.26-1.21,1.07-0.37,1.33c13.69,4.08,26.29,11.25,36.98,20.7 c3.01,2.66,5.75,5.58,8.58,8.43C1955.44,1873.38,1955.81,1873.12,1955.64,1872.88L1955.64,1872.88z"></path> </g> </g> </g> </g> <g class="st33"> <g> <g class="st43"> <path class="st46" d="M2148.58-25.01c-35.96,41.18-41.02,100.73-37.41,155.28c2.24,33.86,5.49,72.66-18.36,96.8 c-14.65,14.83-37.23,20.93-49.22,37.99c-13.49,19.19-9.08,45.04-11.06,68.41c-2.11,24.92-12.81,49.65-31.93,65.78 s-47,22.44-70.2,13.09c-27.68-11.16-43.26-40.74-51.23-69.5c-8.99-32.43-9.99-70.75,12.27-95.98 c9.83-11.15,24.06-19.75,27.8-34.14c3.62-13.94-4.06-28.2-4.79-42.59c-1.19-23.28,16.13-43.89,36.12-55.88 c20-11.99,43.02-17.85,64.05-27.92c52.7-25.25,88.96-74.65,133.7-112.24"></path> </g> </g> <g class="st35"> <g> <g> <path class="st0" d="M1927.43,411.58c-7.83-25.87-9.61-54.69-1.99-80.82c3.77-12.92,9.92-25.17,18.66-35.45 c10.02-11.78,23.02-20.31,35.85-28.69c12.25-7.99,24.65-16.14,34.59-27.01c4.75-5.2,8.91-11,11.9-17.4 c3.33-7.13,5.12-14.8,6.2-22.56c1.11-8.02,1.51-16.1,2.29-24.15c0.76-7.85,1.91-15.68,3.7-23.37 c3.61-15.56,10.01-29.97,20.19-42.34c5.13-6.23,10.76-12.01,16.09-18.05c5.17-5.85,10-11.99,14.43-18.41 c8.72-12.62,16.09-26.38,21.39-40.78c1.32-3.58,2.51-7.19,3.58-10.84c0.53-1.82-2.22-2.54-2.82-0.78 c-5.07,14.96-11.58,29.39-19.91,42.82c-4.12,6.64-8.63,13.04-13.55,19.12c-5.02,6.22-10.54,11.99-15.86,17.95 c-5.33,5.97-10.44,12.22-14.49,19.14c-3.91,6.68-6.93,13.88-9.22,21.27c-4.71,15.15-6.03,30.81-7.31,46.53 c-0.66,8.12-1.52,16.27-3.74,24.13c-2.1,7.4-5.55,14.24-10.16,20.39c-9,11.97-21.41,20.83-33.77,29 c-12.88,8.52-26.25,16.7-37.08,27.86c-9.28,9.57-16.24,21.13-20.83,33.62c-9.25,25.2-9.12,53.85-2.22,79.6 c0.86,3.21,1.85,6.38,2.89,9.54C1926.49,412.65,1927.67,412.34,1927.43,411.58L1927.43,411.58z"></path> </g> </g> <g> <g> <path class="st0" d="M2034.25,150.35c-2.16,1.66-3.81,3.93-5.69,5.89c-1.91,1.99-3.86,3.95-5.89,5.81 c-4.14,3.8-8.58,7.28-13.26,10.4c-9.24,6.16-19.26,10.99-29.89,14.22c-6.06,1.84-12.28,3.22-18.57,4.01 c-1.38,0.17-1.42,2.36,0,2.2c22.71-2.48,44.34-12.37,61.32-27.62c2.34-2.11,4.62-4.31,6.76-6.62c2.11-2.28,4.63-4.76,5.92-7.61 C2035.12,150.65,2034.7,150.01,2034.25,150.35L2034.25,150.35z"></path> </g> </g> <g> <g> <path class="st0" d="M1998.12,249.77c-17.64,15.91-27.8,39.53-27.58,63.25c0.06,6.61,0.97,13.18,2.68,19.57 c0.25,0.93,1.68,0.54,1.45-0.4c-5.58-22.55-1.14-47.13,11.5-66.56c3.6-5.54,7.88-10.6,12.76-15.07 C1999.45,250.08,1998.65,249.29,1998.12,249.77L1998.12,249.77z"></path> </g> </g> <g> <g> <path class="st0" d="M1941.2,294.31c-6.75,4.88-13.21,10.06-20.29,14.48c-7.07,4.42-14.45,8.34-22.09,11.67 c-4.38,1.91-8.86,3.62-13.4,5.14c-1.45,0.49-0.83,2.8,0.64,2.31c16.06-5.44,31.44-13.27,45-23.47 c3.79-2.85,7.55-5.78,10.84-9.21C1942.33,294.76,1941.75,293.91,1941.2,294.31L1941.2,294.31z"></path> </g> </g> </g> </g> <g class="st33"> <g class="st43"> <path class="st44" d="M1983.52,2307.12c5.82-42.01,11.16-86.99-8.26-120.77c-10.43-18.15-27.49-31.84-34.77-51.79 c-6.57-18.03-4.42-39.09-5.47-59.03c-3.23-61.68-42.26-116.75-101.58-130.04c-10.59-2.37-22.2-3.39-33.31,0.78 c-22.26,8.35-34.72,34.58-36.01,57.03c-1.52,26.42,8.45,51.46,26.9,67.55c26.46,23.08,69.39,28.95,85.15,60.74 c8.99,18.13,7.01,41.4,15.21,59.99c10.51,23.82,35.58,36.06,56.62,50.94c21.05,14.88,40.31,38.22,33.08,65.94"></path> </g> <g class="st45"> <g> <g> <path class="st0" d="M1784.82,1957.23c14.28,16.71,33.58,27.8,51.22,40.5c8.88,6.39,17.51,13.26,24.79,21.46 c7.95,8.95,13.57,19.4,17.65,30.61c4.32,11.89,7.14,24.25,10.46,36.44c3.3,12.09,7.32,23.91,12.82,35.19 c5.4,11.07,12.02,21.52,19.7,31.15c3.87,4.85,8.02,9.47,12.41,13.86c4.46,4.45,9.13,8.7,13.39,13.35 c4.17,4.56,7.84,9.54,10.44,15.17c2.49,5.39,3.99,11.22,4.86,17.08c1.88,12.68,0.77,25.56-0.5,38.24 c-0.31,3.13-0.65,6.25-0.94,9.38c-0.1,1.09,1.76,1.36,1.93,0.26c1.97-12.67,3.31-25.65,2.75-38.48 c-0.52-12.01-3.04-24.17-9.71-34.35c-6.88-10.5-16.96-18.3-25.39-27.45c-8.47-9.19-15.84-19.35-22.01-30.22 c-6.3-11.11-11.26-22.9-14.99-35.1c-3.76-12.29-6.54-24.86-10.38-37.12c-3.63-11.59-8.3-22.98-15.55-32.82 c-6.43-8.72-14.43-16.07-22.98-22.67c-17.58-13.59-37.38-24.23-53.52-39.66c-1.92-1.84-3.77-3.74-5.55-5.71 C1785.17,1955.71,1784.29,1956.61,1784.82,1957.23L1784.82,1957.23z"></path> </g> </g> <g> <g> <path class="st0" d="M1885.81,2070.77c-5.51-15.91-15.83-29.92-28.62-40.78c-13.01-11.04-28.61-18.85-45.16-22.92 c-9.8-2.41-19.82-3.42-29.9-3.07c-0.85,0.03-0.86,1.33,0,1.33c17.33,0.06,34.75,3.53,50.47,10.92 c14.98,7.05,28.3,17.46,38.51,30.52c5.77,7.38,10.48,15.62,14.24,24.19C1885.46,2071.23,1885.91,2071.04,1885.81,2070.77 L1885.81,2070.77z"></path> </g> </g> <g> <g> <path class="st0" d="M1907.55,2124.89c-2.73-25.87-1.38-51.92,4.51-77.28c1.71-7.36,3.73-14.65,6.06-21.84 c0.31-0.97-1.19-1.37-1.52-0.42c-8.63,25.13-12.86,51.85-12.03,78.43c0.22,7.14,0.9,14.19,2.03,21.24 C1906.69,2125.55,1907.61,2125.43,1907.55,2124.89L1907.55,2124.89z"></path> </g> </g> <g> <g> <path class="st0" d="M1830.68,1992.48c-8.27-15.05-13.54-31.82-15.72-48.83c-0.16-1.23-1.86-1.02-1.69,0.23 c2.37,17.31,7.86,33.95,16.58,49.09C1830.15,1993.51,1830.98,1993.03,1830.68,1992.48L1830.68,1992.48z"></path> </g> </g> </g> </g> <g class="st33"> <g class="st43"> <path class="st41" d="M2072.51,2675.61c-20.33-48.88-55.53-74.83-105.67-91.82c-33.07-11.2-68.72-12.97-101.93-23.74 s-66.03-34.37-72.11-68.75c-2.74-15.46,0.25-31.43-1.75-47c-3.59-27.97-22.89-51.61-45.04-69.06 c-22.15-17.45-47.61-30.22-70.37-46.86c-81.56-59.6-121-174.62-84.69-268.89c10.01-25.97,28.04-52.09,55.25-57.91 c13.28-2.84,27.24-0.4,39.97,4.34c66.68,24.84,94.13,101.86,136.65,158.91c7.66,10.28,16.21,20.26,27.24,26.8 c13.35,7.93,29.18,10.19,44.36,13.45c51.86,11.14,107.03,44.48,112.37,97.25c1.87,18.48-2.67,37.83,3.51,55.34 c5.73,16.22,19.63,27.91,32.67,39.13c41.59,35.79,82.97,81.13,83.16,136c0.08,23.72-7.73,46.68-11.64,70.08 c-6.76,40.38-1.67,82.67,14.47,120.29C2104.52,2708.58,2090.04,2698.04,2072.51,2675.61"></path> </g> <g class="st35"> <g> <g> <path class="st0" d="M1667.2,2040.99c15.91,53.92,21.4,110.9,44.39,162.67c10.79,24.3,25.59,46.71,43.79,66.1 c18.95,20.18,41.43,36.11,65.38,49.81c46.77,26.75,99.57,46.94,136.08,88.24c18.09,20.47,28.41,45.11,37.55,70.51 c8.91,24.76,17.5,50.03,33.53,71.27c8.48,11.24,18.32,21.33,27.51,31.96c8.96,10.36,16.93,21.42,23.42,33.51 c12.93,24.1,20.19,51.3,21.01,78.64c0.2,6.57,0.14,13.12-0.33,19.68c-0.08,1.07,1.55,1.04,1.66,0 c2.73-26.51-1.02-53.4-10.44-78.31c-4.62-12.22-10.54-23.94-17.73-34.85c-7.63-11.57-16.84-21.86-26.07-32.15 c-9.5-10.58-18.76-21.34-25.97-33.66c-6.8-11.64-12.01-24.11-16.72-36.72c-9.23-24.69-16.78-50.42-31.11-72.8 c-29.09-45.42-79.57-69.57-125.75-93.74c-25.38-13.28-50.65-27.28-72.49-46c-20.54-17.61-37.97-38.81-51.27-62.38 c-28.16-49.9-35.11-107.48-49.48-162.07c-1.77-6.73-3.64-13.43-5.61-20.1C1668.29,2039.77,1666.95,2040.13,1667.2,2040.99 L1667.2,2040.99z"></path> </g> </g> <g> <g> <path class="st0" d="M1748.38,2260.23c-3.04-2.75-6.02-5.54-9.16-8.19c-3.07-2.6-6.21-5.12-9.36-7.63 c-6.29-5.01-12.69-9.9-19.18-14.66c-13.18-9.66-26.76-18.79-40.75-27.24c-7.87-4.76-15.85-9.33-23.93-13.72 c-0.95-0.51-1.79,0.92-0.84,1.44c14.18,7.81,28.05,16.19,41.59,25.07c13.61,8.92,26.88,18.37,39.73,28.35 c3.54,2.75,7.04,5.56,10.53,8.38c3.61,2.92,7.33,5.73,10.93,8.67C1748.24,2260.94,1748.69,2260.51,1748.38,2260.23 L1748.38,2260.23z"></path> </g> </g> <g> <g> <path class="st0" d="M1992.06,2469.54c-13.17-7.48-26.74-14.26-40.52-20.54c-13.78-6.29-27.81-12.04-42.04-17.22 c-14.24-5.19-28.67-9.83-43.27-13.9c-14.59-4.08-29.34-7.59-44.21-10.53c-14.88-2.94-29.86-5.28-44.92-7.03 c-1.87-0.22-3.74-0.42-5.62-0.62c-1.18-0.13-1.17,1.72,0,1.84c30.04,3.28,59.84,8.84,89.03,16.66 c29.2,7.82,57.8,17.89,85.48,30.06c15.47,6.8,30.58,14.34,45.49,22.29C1992.13,2470.89,1992.7,2469.91,1992.06,2469.54 L1992.06,2469.54z"></path> </g> </g> <g> <g> <path class="st0" d="M1839.96,2326.05c-13.18-19.33-23.08-40.83-29.22-63.4c-6.11-22.46-8.43-45.83-6.94-69.05 c0.84-13.12,2.97-26.14,6.37-38.84c0.29-1.08-1.38-1.54-1.67-0.46c-6.17,22.74-8.24,46.48-6.31,69.95 c1.93,23.41,7.72,46.46,17.23,67.94c5.37,12.12,11.92,23.62,19.66,34.38C1839.45,2327.1,1840.34,2326.61,1839.96,2326.05 L1839.96,2326.05z"></path> </g> </g> <g> <g> <path class="st0" d="M1946.52,2392.98c-11.74-21.93-21.57-44.85-29.02-68.58c-2.12-6.75-4.05-13.56-5.78-20.41 c-0.19-0.77-1.38-0.44-1.19,0.33c6.08,24.22,14.6,47.81,25.44,70.3c3.07,6.37,6.39,12.61,9.88,18.77 C1946.09,2393.81,1946.75,2393.42,1946.52,2392.98L1946.52,2392.98z"></path> </g> </g> <g> <g> <path class="st0" d="M1686.89,2112.39c-0.48-4.24-1.03-8.47-1.25-12.74c-0.22-4.27-0.19-8.56,0.02-12.83 c0.43-8.72,1.85-17.38,4.21-25.79c1.32-4.7,2.94-9.31,4.84-13.81c0.34-0.81-0.99-1.17-1.33-0.37 c-6.72,16.11-9.87,33.78-8.85,51.22c0.28,4.82,0.76,9.69,1.87,14.38C1686.46,2112.72,1686.92,2112.67,1686.89,2112.39 L1686.89,2112.39z"></path> </g> </g> </g> </g> <g class="st33"> <g class="st47"> <path class="st0" d="M1840.23,1545.1c5.18,9.13,15.81,14.38,26.03,17.14c13.61,3.67,27.8,4.02,40.89,1.11 c12.59,2.33,25.22,3.97,37.81,4.92c-20.43,4.36-37.73,17.77-46.04,35.94c-0.57,1.24-0.92,3.06,0.38,3.86 c10.28,2.34,20.21-2.21,27.84-8.15c10.35-8.07,18.17-18.98,22.57-31.33c14.28,0.88,28.51,0.89,42.58,0.02 c-18.04,7.42-31.98,22.5-37.34,40.89c-0.39,1.32-0.48,3.19,0.9,3.84c10.37,1.05,19.45-4.78,26.1-11.73 c8.83-9.22,14.9-20.88,17.6-33.53c13.18-1.1,26.21-2.98,39-5.62c-14.76,10.36-24.69,26.73-26.76,44.89 c-0.16,1.39,0.06,3.28,1.5,3.72c10.24-0.53,18.1-7.76,23.42-15.74c6.82-10.25,10.78-22.4,11.54-35.05 c12.42-2.97,24.58-6.67,36.42-11.11c-16.91,10.1-28.41,27.71-30.65,47.43c-0.16,1.39,0.06,3.28,1.5,3.72 c10.24-0.53,18.1-7.76,23.42-15.74c7.29-10.96,11.32-24.08,11.64-37.67c9.59-3.83,18.94-8.14,28.02-12.93 c1.94-1.02,0.27-4.28-1.68-3.25c-9.1,4.81-18.48,9.12-28.09,12.95c-15.23-17.24-38.05-28.22-60.37-28.98 c-1.47-0.05-3.35,0.29-3.4,1.7c3.42,9.72,13.07,16.69,22.77,21.17c11.14,5.15,23.19,7.98,35.06,8.4 c-11.09,4.14-22.47,7.63-34.07,10.48l-1.44-1.17c-15.22-17.73-38.44-29.06-61.14-29.82c-1.47-0.05-3.35,0.29-3.4,1.7 c3.42,9.72,13.07,16.69,22.77,21.17c13.41,6.19,28.13,9.08,42.28,8.35c-15.79,3.83-31.99,6.48-48.44,7.89l-0.21-0.23 c-12.38-19.53-33.84-34.06-56.5-38.25c-1.47-0.27-3.41-0.22-3.69,1.13c1.84,9.96,10.38,18.19,19.39,24.02 c10.77,6.97,22.95,11.67,35.31,13.76c-14.67,1.01-29.51,1.06-44.41,0.13c-9.86-20.41-29.28-37.1-51.29-44.01 c-1.44-0.45-3.4-0.65-3.87,0.64c0.49,9.97,7.95,19.1,16.21,25.94c8.85,7.33,19.07,13.04,29.83,16.74 c-11.73-1.04-23.49-2.68-35.2-4.93c-17.78-13.52-40.95-19.86-61.84-16.72C1841.75,1543,1840,1543.68,1840.23,1545.1z"></path> </g> <g class="st47"> <path class="st0" d="M2001.27,524.1c-11.6,8.29-17.18,23.41-19.45,37.61c-3.02,18.91-1.47,38.14,4.33,55.41 c-1.35,17.34-1.78,34.64-1.27,51.79c-8.8-26.98-29.38-48.45-55.12-57.09c-1.76-0.59-4.26-0.8-5.17,1.06 c-1.69,14.23,5.86,26.99,14.98,36.46c12.38,12.84,28.23,21.85,45.54,26.03c0.84,19.42,2.85,38.65,6.03,57.54 c-12.6-23.32-34.95-40-60.57-44.63c-1.84-0.33-4.38-0.19-5.06,1.76c0.06,14.16,9.23,25.6,19.56,33.6 c13.72,10.61,30.33,17.16,47.81,19.01c3.37,17.65,7.76,34.99,13.14,51.89c-16.11-18.47-39.63-29.56-64.47-29.76 c-1.9-0.02-4.42,0.55-4.81,2.56c2.17,13.76,13.06,23.36,24.61,29.4c14.83,7.76,31.8,11.38,49,10.6 c5.78,16.36,12.52,32.27,20.19,47.63c-16.05-21.41-41.48-34.44-68.45-34.66c-1.9-0.02-4.42,0.55-4.81,2.56 c2.17,13.76,13.06,23.36,24.61,29.4c15.85,8.29,34.15,11.86,52.56,10.37c6.53,12.41,13.69,24.43,21.47,36.02 c1.66,2.47,5.82-0.24,4.15-2.73c-7.79-11.61-14.95-23.67-21.49-36.11c21.12-23.03,32.72-55.43,30.56-85.7 c-0.14-1.99-0.87-4.49-2.78-4.35c-12.65,6.01-20.69,20.03-25.36,33.78c-5.37,15.78-7.49,32.46-6.35,48.56 c-7.18-14.39-13.51-29.27-19.01-44.55l1.38-2.11c21.79-23.1,33.79-56.08,31.59-86.85c-0.14-1.99-0.87-4.49-2.78-4.35 c-12.65,6.01-20.69,20.03-25.36,33.78c-6.46,19-8.26,39.31-5.26,58.32c-7.42-20.79-13.31-42.31-17.56-64.33l0.28-0.32 c24.63-19.51,41.2-50.58,43.64-81.79c0.16-2.02-0.18-4.65-2.06-4.83c-13.19,3.91-23.1,16.62-29.69,29.63 c-7.88,15.55-12.5,32.67-13.56,49.67c-3.45-19.67-5.63-39.72-6.5-59.98c26.17-16.23,45.96-44.85,52.16-75.57 c0.41-2.01,0.4-4.69-1.41-5.13c-13.4,2.08-24.67,13.46-32.74,25.6c-8.64,13-14.9,27.62-18.37,42.69 c-0.26-16,0.27-32.11,1.65-48.27c15.74-25.94,21-58.16,13.79-85.94C2004.32,525.85,2003.15,523.59,2001.27,524.1z"></path> </g> <g> <path class="st41" d="M2013.37,1103.31c0.27-22.35-0.67-44.57-2.75-66.59c25.38-17.65,46.29-41.28,59.94-67.99 c9.94-19.44,15.99-42.44,7.08-61.23c-2.23-2-6-0.01-8.47,2.01c-35.18,28.84-57.34,71.51-59.92,114.28 c-3.08-26.66-7.87-52.98-14.3-78.82c23.18-17.23,42.31-39.51,55.08-64.49c9.94-19.44,15.99-42.44,7.07-61.23 c-2.23-2-6-0.01-8.47,2.01c-32.35,26.52-53.67,64.74-58.91,103.97c-7.38-26.02-16.44-51.5-27.11-76.28 c21.28-20.68,37.42-46.08,46.3-73.29c6.68-20.49,8.9-43.88-3.11-60.93c-2.55-1.62-5.99,0.89-8.11,3.23 c-29.54,32.61-44.53,76.23-41.08,117.51c-11.95-26.03-25.73-51.22-41.21-75.42c19.05-23.29,32.09-50.83,37.3-79.28 c3.85-20.98,2.82-44.26-11.53-59.52c-2.77-1.28-5.86,1.62-7.66,4.19c-26.24,37.49-34.84,84.9-23.36,126.51 c-13.96-21.09-29.28-41.36-45.85-60.71c-7.17-26.8-21.54-51.46-41.61-70.92c-15.08-14.62-35.28-26.85-57.52-24.55 c-2.89,1.38-2.49,5.33-1.52,8.12c14.27,40.88,48.59,73.93,91.24,88.44c15.53,17.86,29.95,36.55,43.24,55.95 c-17.35-14.3-37.93-25.14-60.21-31.57c-20.9-6.03-45.35-7.78-64.64,3.88c-1.99,2.45,0.29,5.67,2.53,7.65 c34.31,30.27,84.56,43.69,132.6,35.54c16.16,25.19,30.42,51.49,42.72,78.68c-15.88-19.24-36.51-34.86-60.05-45.16 c-19.72-8.63-43.52-13.41-64.1-4.17c-2.29,2.2-0.5,5.7,1.43,7.96c29.83,34.85,78.01,54.6,126.85,51.98l0.61,0.08 c13.26,30.89,23.95,62.88,32.01,95.65l-0.01,0.07c-12.3-25.98-32-48.44-56.68-64.41c-17.85-11.55-40.33-19.87-61.99-13.72 c-2.61,1.85-1.44,5.61,0.08,8.15c23.39,39.21,67.23,66.09,115.42,70.77l3.65,1.09c5.85,24.14,10.28,48.7,13.17,73.56 c-12.26-20.54-29.29-38.33-49.8-51.6c-17.85-11.55-40.33-19.87-61.99-13.72c-2.61,1.85-1.44,5.61,0.08,8.15 c23.02,38.59,65.85,65.19,113.14,70.48c2.04,21.55,2.94,43.3,2.68,65.17C2005.6,1107.52,2013.31,1108.05,2013.37,1103.31z"></path> </g> <g> <g class="st43"> <path class="st44" d="M2207.56,1526.93c-67.99,17.19-140.95,34.13-199.99,8.35c-31.71-13.85-57.32-39.41-91.43-47.74 c-30.82-7.53-65.05-0.17-98.01,1.73c-101.96,5.88-199.55-48.27-232.16-143.35c-5.82-16.98-9.6-35.87-4.77-54.89 c9.69-38.11,50.52-63.34,87.19-69.54c43.15-7.3,86.11,4.55,115.91,31.96c42.73,39.31,60.18,108.79,115.29,128.93 c31.43,11.48,69.32,4.01,101.35,14.12c41.06,12.95,65.72,51.93,94,83.82c28.28,31.89,70.12,59.31,114.38,42.4"></path> </g> <g class="st45"> <g> <g> <path class="st0" d="M1595.47,1265.25c29.68,21.13,51.31,50.98,75.38,77.83c11.66,13.01,24.07,25.49,38.24,35.79 c15.58,11.33,33.07,19,51.65,23.93c20.63,5.48,41.88,8.04,62.94,11.32c20.95,3.27,41.59,7.65,61.61,14.73 c19.59,6.93,38.39,16.07,55.92,27.23c8.86,5.65,17.37,11.82,25.53,18.45c7.86,6.39,15.5,13.06,23.72,18.99 c8.17,5.9,16.93,10.91,26.5,14.16c9.35,3.17,19.21,4.71,29.05,5.16c21.5,0.97,43.12-2.91,64.01-7.67 c5.32-1.22,10.63-2.5,15.92-3.86c1.23-0.32,0.71-2.17-0.52-1.9c-40.54,8.8-86.63,20.99-124.81-2.04 c-17.53-10.58-32.07-25.46-48.84-37.15c-16.57-11.55-34.44-21.18-53.13-28.84c-19.21-7.87-39.21-13.41-59.63-17.07 c-20.92-3.75-42.09-5.99-62.93-10.23c-19.73-4.02-39.08-10.03-56.33-20.63c-15.17-9.32-28.38-21.43-40.57-34.33 c-24.32-25.75-45.05-55.29-72.94-77.48c-3.28-2.61-6.65-5.11-10.11-7.49C1595.43,1263.68,1594.81,1264.78,1595.47,1265.25 L1595.47,1265.25z"></path> </g> </g> <g> <g> <path class="st0" d="M1801.51,1408.58c-13.26-3.91-26.13-9.29-38.13-16.16c-11.89-6.81-22.92-15.08-32.83-24.54 c-9.95-9.5-18.76-20.17-26.26-31.69c-7.68-11.81-13.99-24.5-18.79-37.74c-4.93-13.58-8.35-27.78-10.26-42.1 c-0.25-1.84-0.46-3.68-0.66-5.52c-0.09-0.84-1.4-0.86-1.33,0c1.21,14.71,4.09,29.22,8.76,43.23 c4.5,13.49,10.51,26.49,17.95,38.62c7.3,11.92,15.98,23.01,25.85,32.91c9.73,9.76,20.61,18.37,32.4,25.51 c11.88,7.19,24.7,12.96,38.1,16.66c1.68,0.46,3.36,0.9,5.05,1.31C1801.7,1409.16,1801.83,1408.68,1801.51,1408.58 L1801.51,1408.58z"></path> </g> </g> <g> <g> <path class="st0" d="M1894.19,1433.88c-21.2-0.83-42.39,0.77-63.32,4.16c-21.69,3.52-43.03,9.06-63.76,16.35 c-11.8,4.15-23.38,8.93-34.7,14.23c-0.92,0.43-0.12,1.78,0.8,1.36c20.16-9.18,41.06-16.8,62.46-22.54 c20.66-5.54,41.79-9.37,63.1-11.19c11.77-1.01,23.62-1.48,35.43-1.41C1894.81,1434.85,1894.81,1433.9,1894.19,1433.88 L1894.19,1433.88z"></path> </g> </g> <g> <g> <path class="st0" d="M1663.27,1331.7c-20.52-8.9-42.2-14.49-64.44-16.85c-6.44-0.68-12.92-1.09-19.4-1.25 c-1.11-0.03-1.11,1.7,0,1.72c22.43,0.42,44.66,4.06,66.03,10.89c5.89,1.88,11.73,3.99,17.43,6.38 C1663.4,1332.79,1663.78,1331.91,1663.27,1331.7L1663.27,1331.7z"></path> </g> </g> </g> </g> <g> <g class="st43"> <path class="st44" d="M1983.06,1288.07c29.88-31.97,61.11-66.74,64.8-106.76c1.99-21.5-4.27-43.19,1.45-64.34 c5.17-19.11,19.5-35.6,30.47-53.03c33.93-53.94,33.73-123.57-8.4-170.03c-7.52-8.3-16.71-16.05-28.56-19.14 c-23.74-6.18-49.83,8.53-64.26,26.69c-16.98,21.38-23.45,48.42-17.45,72.96c8.61,35.19,41.32,65.65,35.72,101.83 c-3.19,20.63-18.69,39.08-22.82,59.63c-5.29,26.34,8.58,51.55,17.48,76.61c8.91,25.06,11.28,56.18-11.29,75.27"></path> </g> <g class="st45"> <g> <g> <path class="st0" d="M2023.41,874.8c2.21,23.33,12.4,44.71,19.82,66.66c3.69,10.92,6.82,22.13,7.76,33.66 c1.01,12.4-0.95,24.6-4.42,36.49c-3.59,12.32-8.5,24.19-12.8,36.26c-4.4,12.35-7.87,24.95-9.72,37.95 c-1.85,13-2.28,26.18-1.15,39.26c0.55,6.44,1.53,12.82,2.72,19.16c1.27,6.77,2.68,13.54,3.09,20.43 c1.49,25.06-14.74,45.24-30.26,63.09c-1.99,2.29-3.98,4.56-5.95,6.87c-0.81,0.95,0.5,2.32,1.39,1.39 c8.42-8.73,16.47-18,23.31-28.03c6.39-9.39,11.73-19.88,13.43-31.23c1.97-13.16-1.56-26.03-3.7-38.93 c-2.21-13.25-2.76-26.78-1.76-40.17c1.01-13.53,3.66-26.9,7.72-39.84c3.85-12.26,8.78-24.13,12.89-36.29 c4.01-11.84,7.27-24.1,7.62-36.66c0.32-11.53-1.83-22.98-5.04-34.01c-6.61-22.66-17.48-43.94-22.23-67.16 c-0.6-2.95-1.09-5.92-1.45-8.9C2024.59,874,2023.33,873.97,2023.41,874.8L2023.41,874.8z"></path> </g> </g> <g> <g> <path class="st0" d="M2041.11,1030.66c4.8-16.75,4.39-34.75,0.02-51.55c-4.42-17.01-12.97-32.81-24.5-46.06 c-6.82-7.84-14.67-14.62-23.36-20.31c-0.72-0.47-1.36,0.66-0.67,1.15c14.58,10.33,27.18,23.63,36.04,39.19 c8.43,14.8,13.48,31.48,14.33,48.51c0.48,9.68-0.42,19.44-2.36,28.93C2040.54,1030.84,2041.01,1030.98,2041.11,1030.66 L2041.11,1030.66z"></path> </g> </g> <g> <g> <path class="st0" d="M2027.29,1089.2c13.03-23.41,29.62-44.53,49.6-62.4c5.81-5.2,11.84-10.15,18.08-14.83 c0.8-0.6,0.03-1.96-0.8-1.36c-22.15,16.03-41.53,35.94-56.64,58.76c-4.12,6.22-7.8,12.64-11.08,19.34 C2026.18,1089.27,2026.98,1089.75,2027.29,1089.2L2027.29,1089.2z"></path> </g> </g> <g> <g> <path class="st0" d="M2041.12,931.85c1.97-17.63,7.52-34.9,15.79-50.56c0.52-0.98-0.98-1.85-1.48-0.87 c-8.32,16.07-13.61,33.41-15.27,51.43C2040.09,932.47,2041.05,932.46,2041.12,931.85L2041.12,931.85z"></path> </g> </g> </g> </g> <g> <g> <g class="st43"> <path class="st46" d="M1939.19,1440.79c-14.7-37.64-51.99-61.31-88.98-77.58c-22.96-10.1-49.5-21.23-57.16-45.12 c-4.71-14.67-1-31.55-8.07-45.24c-7.96-15.4-26.42-21.35-41.06-30.63c-15.61-9.9-28.16-25.37-32.2-43.41 c-4.04-18.04,1.35-38.47,15.41-50.48c16.77-14.32,41.49-14.43,63.06-9.82c24.32,5.19,49.78,17.63,58.71,40.84 c3.95,10.25,4.72,22.52,12.87,29.89c7.9,7.14,19.87,6.98,29.55,11.42c15.67,7.18,23.25,25.57,24.28,42.77 c1.02,17.2-3.01,34.3-3.59,51.52c-1.46,43.17,18.53,83.81,27.87,125.98"></path> </g> </g> <g class="st35"> <g> <g> <path class="st0" d="M1728.57,1146.79c19.27,3.72,38.51,12.26,52.88,25.8c7.05,6.65,12.92,14.53,16.81,23.43 c4.85,11.1,6,23.28,7.16,35.2c1.11,11.38,2.32,22.97,6.7,33.64c2.09,5.09,4.85,9.87,8.49,14.01 c3.62,4.13,7.97,7.54,12.48,10.64c4.7,3.22,9.62,6.1,14.36,9.25c4.59,3.04,9.03,6.31,13.2,9.91 c8.62,7.45,15.64,16.25,20.2,26.74c2.42,5.57,4.31,11.36,6.47,17.04c2.1,5.48,4.49,10.85,7.23,16.04 c5.29,10.04,11.8,19.69,19.48,28.07c1.92,2.09,3.9,4.11,5.96,6.07c1.37,1.3,3.36-0.7,2.07-2.07 c-7.95-8.43-15.15-17.52-21.07-27.49c-2.93-4.94-5.57-10.05-7.89-15.31c-2.47-5.61-4.41-11.42-6.59-17.14 c-2.11-5.52-4.48-10.97-7.66-15.97c-2.99-4.7-6.58-9.02-10.52-12.94c-7.93-7.89-17.23-14-26.67-19.9 c-9.57-5.98-18.9-12.36-24.49-22.47c-5.6-10.1-7.47-21.8-8.69-33.14c-1.32-12.29-2.03-24.87-6.19-36.62 c-3.23-9.11-8.44-17.39-15-24.47c-13.32-14.39-32.08-24.13-51.16-28.18c-2.39-0.51-4.8-0.93-7.21-1.31 C1728.13,1145.48,1727.78,1146.64,1728.57,1146.79L1728.57,1146.79z"></path> </g> </g> <g> <g> <path class="st0" d="M1863.47,1305.94c-0.16-1.91-1.09-3.69-1.69-5.49c-0.67-1.99-1.3-3.99-1.84-6.02 c-1.08-4.03-1.85-8.14-2.29-12.29c-0.87-8.19-0.62-16.45,0.91-24.55c0.88-4.62,2.12-9.18,3.73-13.59 c0.49-1.34-1.61-1.88-2.12-0.59c-6.19,15.79-7.02,33.51-2.71,49.89c0.61,2.31,1.3,4.6,2.14,6.84 c0.77,2.05,1.49,4.53,3.01,6.15C1862.89,1306.6,1863.5,1306.38,1863.47,1305.94L1863.47,1305.94z"></path> </g> </g> <g> <g> <path class="st0" d="M1810.67,1248.24c-4.38-16.98-16.27-31.77-31.88-39.77c-4.42-2.27-9.1-3.94-13.95-5.01 c-0.94-0.21-1.34,1.21-0.4,1.45c16.6,4.09,31.14,15.27,39.58,30.11c2.42,4.26,4.29,8.79,5.57,13.52 C1809.78,1249.24,1810.85,1248.94,1810.67,1248.24L1810.67,1248.24z"></path> </g> </g> <g> <g> <path class="st0" d="M1800.94,1195.76c-0.44-3.93-1.25-7.81-1.75-11.74c-0.49-3.87-0.81-7.76-0.95-11.66 c-0.28-7.94,0.15-15.89,1.4-23.74c0.24-1.51-2.07-2.15-2.31-0.64c-1.23,7.98-1.75,16.07-1.38,24.14 c0.18,3.92,0.57,7.82,1.12,11.7c0.58,4.07,1.3,8.22,2.74,12.09C1800.02,1196.48,1801.02,1196.46,1800.94,1195.76 L1800.94,1195.76z"></path> </g> </g> </g> </g> <g> <g class="st43"> <path class="st41" d="M2137.05,1514.66c-32.01-34.53-39.96-72.59-35.15-119.42c3.18-30.89,14.94-60.37,18.51-91.21 c3.58-30.84-3.36-66.11-28.91-83.75c-11.49-7.93-25.51-11.42-37.36-18.8c-21.28-13.25-33.26-37.61-39.17-61.97 c-5.91-24.37-6.83-49.68-11.85-74.24c-18.02-88-96.44-162.45-186.1-167.97c-24.71-1.52-52.49,3.4-67.27,23.25 c-7.21,9.69-10.4,21.88-11.28,33.93c-4.59,63.11,47.54,113.8,77.94,169.3c5.48,10,10.38,20.6,11.59,31.94 c1.47,13.73-2.56,27.36-5.54,40.85c-10.18,46.05-3.64,103.01,37.06,126.85c14.25,8.35,31.58,11.83,43.45,23.32 c10.99,10.64,15.31,26.2,19.56,40.9c13.56,46.87,34.91,97.11,79.2,117.57c19.15,8.85,40.6,11.02,60.98,16.51 c35.15,9.47,67.47,29.23,91.91,56.21C2151.87,1552.74,2148.71,1537.13,2137.05,1514.66"></path> </g> <g class="st35"> <g> <g> <path class="st0" d="M1772.96,953.08c36.28,31.57,78.17,56.94,110.9,92.5c17.14,18.62,30.97,40.11,40.44,63.6 c10.08,24.98,14.33,51.4,16.29,78.15c3.66,50.03,1.14,103.97,27.12,148.95c11.51,19.94,28.46,35.69,44.75,51.64 c8.28,8.11,16.47,16.37,23.75,25.41c7.83,9.73,13.97,20.4,19.17,31.74c5.35,11.68,9.98,23.71,16.19,34.98 c5.25,9.51,11.53,18.45,18.64,26.66c14.32,16.54,32.17,30.25,52.05,39.44c4.82,2.23,9.8,4.11,14.83,5.8 c1.02,0.34,1.42-1.23,0.44-1.6c-21.11-7.94-40.57-20.24-56.67-36.05c-8.04-7.89-15.23-16.63-21.37-26.08 c-6.68-10.27-11.74-21.36-16.6-32.57c-5.07-11.69-10.16-23.4-17.28-34.02c-6.16-9.17-13.46-17.52-21.12-25.46 c-16.03-16.61-33.92-31.66-47.48-50.49c-30.55-42.44-30.19-96.92-33.15-146.87c-1.58-26.6-4.43-53.26-12.99-78.63 c-7.78-23.04-19.58-44.68-34.75-63.69c-29.9-37.46-71.13-63.43-108.28-92.91c-4.71-3.74-9.35-7.56-13.89-11.51 C1773.27,951.51,1772.28,952.49,1772.96,953.08L1772.96,953.08z"></path> </g> </g> <g> <g> <path class="st0" d="M1921.67,1098.69c-0.92-3.57-1.7-7.18-2.6-10.76c-0.86-3.42-1.74-6.84-2.57-10.27 c-1.69-7.02-3.23-14.07-4.63-21.15c-2.78-14.08-4.99-28.27-6.72-42.52c-0.98-8.12-1.78-16.26-2.39-24.42 c-0.08-1.07-1.75-1.08-1.67,0c1.98,28.89,6.43,57.54,13.27,85.68c0.95,3.89,1.93,7.78,2.98,11.65 c1.1,4.04,2.44,7.97,3.7,11.95C1921.17,1099.25,1921.77,1099.09,1921.67,1098.69L1921.67,1098.69z"></path> </g> </g> <g> <g> <path class="st0" d="M2001.28,1373.31c-1.58-26.83-1.64-53.65,0.54-80.45c2.18-26.83,6.44-53.49,12.73-79.67 c3.52-14.65,7.66-29.16,12.4-43.46c0.37-1.13-1.4-1.61-1.78-0.49c-8.58,25.61-15.09,51.89-19.54,78.53 c-4.42,26.48-6.85,53.29-7.13,80.14c-0.16,15.14,0.27,30.32,1.62,45.41C2000.19,1374.04,2001.32,1374.06,2001.28,1373.31 L2001.28,1373.31z"></path> </g> </g> <g> <g> <path class="st0" d="M1941.25,1196.76c-10.32-18.18-24.07-34.33-40.09-47.74c-15.98-13.39-34.2-24.21-53.71-31.6 c-11.05-4.19-22.5-7.28-34.16-9.21c-1.09-0.18-1.56,1.49-0.46,1.67c20.46,3.47,40.28,10.58,58.39,20.68 c18.07,10.09,34.48,23.17,48.29,38.58c7.79,8.69,14.79,18.15,20.84,28.13C1940.71,1197.84,1941.58,1197.34,1941.25,1196.76 L1941.25,1196.76z"></path> </g> </g> <g> <g> <path class="st0" d="M2074.3,1482.07c-9.15-10.81-19.69-20.41-31.07-28.81c-11.45-8.46-23.82-15.65-36.85-21.39 c-7.29-3.22-14.78-5.95-22.42-8.22c-0.9-0.27-1.28,1.13-0.39,1.4c13.49,4.09,26.53,9.65,38.82,16.55 c12.3,6.9,23.85,15.11,34.37,24.51c5.89,5.26,11.45,10.88,16.73,16.76C2073.99,1483.41,2074.76,1482.61,2074.3,1482.07 L2074.3,1482.07z"></path> </g> </g> <g> <g> <path class="st0" d="M1955.75,1307.81c-12.99-17.99-28-34.51-44.51-49.33c-4.69-4.21-9.49-8.27-14.41-12.21 c-0.61-0.49-1.49,0.37-0.87,0.87c17.2,13.83,33.04,29.35,47.23,46.26c4.07,4.85,8.05,9.77,11.89,14.8 C1955.37,1308.6,1956.05,1308.22,1955.75,1307.81L1955.75,1307.81z"></path> </g> </g> <g> <g> <path class="st0" d="M1824.56,994.07c-5.95-4.67-13-8.28-20-11.11c-7.29-2.95-14.91-5.08-22.67-6.32 c-4.33-0.7-8.71-1.12-13.09-1.27c-0.88-0.03-0.88,1.35,0,1.38c15.36,0.46,30.46,4.42,44.19,11.3 c3.88,1.94,7.55,4.22,11.27,6.43C1824.49,994.6,1824.79,994.25,1824.56,994.07L1824.56,994.07z"></path> </g> </g> </g> </g> </g> <g class="st33"> <g class="st43"> <path class="st41" d="M2091.79-41.56c-35.43,25.65-71.42,28.72-114.07,19.03c-28.13-6.39-54-20.54-82.04-27.29 s-61.34-4.31-80.47,17.28c-8.6,9.71-13.39,22.24-21.53,32.35c-14.61,18.14-38.41,26.46-61.54,29.18s-46.58,0.73-69.8,2.61 c-83.18,6.76-160.62,70.73-175.75,152.8c-4.17,22.61-2.75,48.79,13.91,64.64c8.13,7.74,19.01,12.05,30.02,14.2 c57.69,11.3,110.28-31.09,164.86-52.91c9.84-3.93,20.17-7.26,30.76-7.11c12.83,0.18,24.95,5.42,37.05,9.68 c41.33,14.55,94.58,14.9,121.13-19.96c9.3-12.21,14.45-27.8,26.37-37.46c11.04-8.95,25.88-11.18,39.91-13.45 c44.74-7.25,93.47-21.31,117.3-59.87c10.3-16.67,14.72-36.21,22.06-54.38c12.67-31.36,34.52-58.94,62.14-78.46 C2128.57-50.95,2113.82-49.79,2091.79-41.56"></path> </g> <g class="st35"> <g> <g> <path class="st0" d="M1533.19,231.27c32.95-29.72,60.88-65.24,97.01-91.35c19.12-13.82,40.47-24.25,63.25-30.46 c24.33-6.64,49.37-7.62,74.44-6.42c47.12,2.25,97.19,10.74,141.96-8.99c19.5-8.59,35.78-22.58,52.28-35.75 c8.38-6.69,16.92-13.25,26.1-18.82c10.08-6.13,20.84-10.49,32.09-13.99c11.37-3.54,22.93-6.54,33.94-11.15 c9.1-3.81,17.8-8.56,25.94-14.15c16.39-11.25,30.5-25.79,41.08-42.64c2.67-4.26,5-8.75,7.16-13.28 c0.45-0.95-0.93-1.79-1.43-0.84c-9.5,18.15-22.6,34.38-38.48,47.34c-8.06,6.58-16.84,12.28-26.13,16.98 c-10.15,5.13-20.89,8.67-31.77,11.9c-11.14,3.31-22.36,6.53-32.86,11.6c-9.46,4.57-18.23,10.42-26.63,16.7 c-17.01,12.72-32.71,27.35-51.21,37.97c-42.66,24.48-93.42,18.18-140.31,15.25c-25.04-1.57-50.26-1.96-74.94,3.18 c-22.67,4.72-44.48,13.53-64.06,25.89c-37.2,23.48-65.46,58.09-96.44,88.72c-3.91,3.86-7.88,7.64-11.96,11.32 C1531.55,230.89,1532.53,231.87,1533.19,231.27L1533.19,231.27z"></path> </g> </g> <g> <g> <path class="st0" d="M1684.09,110.44c-3.39,0.44-6.81,0.74-10.21,1.16c-3.25,0.4-6.5,0.84-9.75,1.21 c-6.67,0.77-13.36,1.4-20.06,1.9c-13.4,0.99-26.83,1.43-40.27,1.42c-7.54,0-15.07-0.18-22.6-0.53c-1.08-0.05-1.07,1.62,0,1.67 c26.95,1.42,53.94,0.51,80.73-2.69c3.64-0.44,7.29-0.9,10.92-1.43c3.81-0.56,7.55-1.36,11.32-2.09 C1684.53,111,1684.45,110.39,1684.09,110.44L1684.09,110.44z"></path> </g> </g> <g> <g> <path class="st0" d="M1946.16,67.77c-24.96-1.58-49.73-4.53-74.24-9.57c-24.38-5.01-48.37-11.89-71.7-20.57 c-13.13-4.88-26.05-10.33-38.72-16.31c-1.07-0.5-2,1.08-0.93,1.59c22.62,10.77,46.08,19.71,70.11,26.81 c24.02,7.09,48.58,12.34,73.4,15.61c13.96,1.84,28.01,3.16,42.09,3.59C1946.91,68.95,1946.9,67.82,1946.16,67.77L1946.16,67.77 z"></path> </g> </g> <g> <g> <path class="st0" d="M1776.73,103.33c-17.93,7.46-34.33,18.29-48.52,31.54c-14.21,13.27-26.33,28.97-35.34,46.21 c-5.08,9.72-9.21,19.93-12.28,30.46c-0.31,1.07,1.35,1.53,1.67,0.46c5.49-18.46,14.28-35.91,25.61-51.47 c11.36-15.6,25.38-29.34,41.22-40.35c8.82-6.13,18.24-11.48,28.03-15.91C1777.66,104.04,1777.28,103.11,1776.73,103.33 L1776.73,103.33z"></path> </g> </g> <g> <g> <path class="st0" d="M2054.74,12.59c-22,14.43-40.49,34.4-53.94,56.96c-3.79,6.36-7.15,12.98-10.1,19.77 c-0.37,0.85,0.88,1.59,1.25,0.73c10.52-23.84,26.19-45.36,45.71-62.63c5.6-4.96,11.52-9.56,17.65-13.85 C2055.89,13.15,2055.35,12.19,2054.74,12.59L2054.74,12.59z"></path> </g> </g> <g> <g> <path class="st0" d="M1880.67,102.46c-18.09,9.96-35.03,22-50.57,35.59c-4.38,3.83-8.65,7.79-12.81,11.87 c-0.57,0.56,0.3,1.43,0.87,0.87c14.72-14.34,30.84-27.23,48.07-38.44c4.88-3.17,9.81-6.27,14.83-9.22 C1881.5,102.88,1881.11,102.22,1880.67,102.46L1880.67,102.46z"></path> </g> </g> <g> <g> <path class="st0" d="M1576.65,188.3c-5.01,4.94-9.16,11.11-12.54,17.25c-3.48,6.32-6.27,13.03-8.29,19.96 c-1.14,3.94-2.03,7.95-2.66,12.01c-0.14,0.87,1.19,1.24,1.33,0.37c2.15-14.16,7.49-27.65,15.38-39.59 c2.22-3.36,4.74-6.49,7.18-9.69C1577.22,188.37,1576.85,188.11,1576.65,188.3L1576.65,188.3z"></path> </g> </g> </g> </g> </g> </svg> 