<svg xmlns="http://www.w3.org/2000/svg" xmlns:xlink="http://www.w3.org/1999/xlink" width="198.88" height="46.333" viewBox="0 0 198.88 46.333">
  <defs>
    <clipPath id="clip-path">
      <circle id="Эллипс_548" data-name="Эллипс 548" cx="14.548" cy="14.548" r="14.548" fill="none"/>
    </clipPath>
  </defs>
  <g id="Logo_White" data-name="Logo White" transform="translate(-58 -98)">
    <g id="logo_white-2" data-name="logo_white" transform="translate(58 98)">
      <g id="newton" transform="translate(55.353 9.63)">
        <g id="Сгруппировать_3474" data-name="Сгруппировать 3474" style="isolation: isolate">
          <path id="Контур_2902" data-name="Контур 2902" d="M68.418,22.209V34.93H62.752v-11.8c0-3.183-1.149-4.711-3.666-4.711-2.919,0-4.7,2.1-4.7,5.481V34.93H48.71V13.936h3.9l1.149,2.6a9,9,0,0,1,6.895-3.1C65.441,13.43,68.418,16.889,68.418,22.209Z" transform="translate(-48.71 -8.454)" fill="#fff"/>
          <path id="Контур_2903" data-name="Контур 2903" d="M90.922,24.347a13.515,13.515,0,0,1-.115,1.666H74.937a4.9,4.9,0,0,0,5.125,4.447,5,5,0,0,0,4.459-2.436h5.952a11.334,11.334,0,1,1,.448-3.689ZM75.087,22.118h10.17a5.16,5.16,0,0,0-5.194-3.953A4.918,4.918,0,0,0,75.087,22.118Z" transform="translate(-45.657 -8.443)" fill="#fff"/>
          <path id="Контур_2904" data-name="Контур 2904" d="M121.495,13.87,114.6,34.865H110l-4.746-10.859-4.6,10.859h-4.6L89.17,13.87h5.746l4.148,12.514,5.447-12.365h1.6L111.75,26.43l4.125-12.548Z" transform="translate(-42.676 -8.389)" fill="#fff"/>
          <path id="Контур_2905" data-name="Контур 2905" d="M133.162,30.52v5.056H129.14c-4.6,0-7.458-2.838-7.458-7.492v-8.94H117.89v-1.23L126.175,9.1h1.034v5.481h5.746v4.6h-5.746v8.193a2.919,2.919,0,0,0,3.229,3.195Z" transform="translate(-38.393 -9.1)" fill="#fff"/>
          <path id="Контур_2906" data-name="Контур 2906" d="M133.18,24.472a11.342,11.342,0,1,1,11.342,11.342A11.342,11.342,0,0,1,133.18,24.472Zm16.938,0a5.6,5.6,0,1,0-11.181,0,5.6,5.6,0,1,0,11.181,0Z" transform="translate(-36.113 -8.499)" fill="#fff"/>
          <path id="Контур_2907" data-name="Контур 2907" d="M176.168,22.21V34.93H170.5v-11.8c0-3.183-1.207-4.711-3.666-4.711-2.919,0-4.711,2.1-4.711,5.481V34.93H156.46V13.936h3.9l1.149,2.6a9,9,0,0,1,6.952-3.1C173.168,13.43,176.168,16.889,176.168,22.21Z" transform="translate(-32.641 -8.454)" fill="#fff"/>
        </g>
      </g>
      <circle id="Эллипс_184" data-name="Эллипс 184" cx="23.166" cy="23.166" r="23.166" transform="translate(0 0)" fill="#4d95b0"/>
      <g id="Сгруппировать_821-2" data-name="Сгруппировать 821-2" transform="translate(8.618 8.618)" opacity="0.95">
        <g id="Сгруппировать_839-2" data-name="Сгруппировать 839-2">
          <g id="Сгруппировать_3475" data-name="Сгруппировать 3475" clip-path="url(#clip-path)">
            <g id="Сгруппировать_838-2" data-name="Сгруппировать 838-2" transform="translate(-0.546 -0.267)">
              <g id="Группа_масок_626-2" data-name="Группа масок 626-2" transform="translate(0 0)">
                <g id="Группа_масок_624-2" data-name="Группа масок 624-2">
                  <path id="Контур_952-2" data-name="Контур 952-2" d="M18.114,18.59l10.894,6.584,6.55,3.976-7.55,8.044s-1.356,1.494-6.033-.253c-1.988.287-8.94-.391-9.193-.931-1.149-1.3.552-6.171.4-7.906-.08-.827.678-1.885,1.551-4.5A14.4,14.4,0,0,1,18.114,18.59Z" transform="translate(-6.847 -6.407)" fill="#d4edf1"/>
                  <path id="Контур_951-2" data-name="Контур 951-2" d="M12.753,11.185c2.643-1.4,5.056-3.275,9.641-3.195s5.918.552,9.124,2.505c.287.391,4.746,3.942,4.183,4.47L23,22.665c-1.149.988-10.756,5.366-7.5,12.767,2.3,1.942-1.218.345-2.815-.977-3.172-2.563-4.171-7.044-4.493-8.067-1.011-5.539-.6-5.114-.149-7.331C8.4,17.3,9.134,13.092,12.753,11.185Z" transform="translate(-7.565 -7.988)" fill="#fff"/>
                </g>
              </g>
            </g>
          </g>
        </g>
      </g>
    </g>
  </g>
</svg>
