<?xml version="1.0" encoding="UTF-8"?> <svg xmlns="http://www.w3.org/2000/svg" xmlns:xlink="http://www.w3.org/1999/xlink" id="Layer_1" data-name="Layer 1" viewBox="0 0 175 42"> <defs> <style>.cls-1{fill:none;}.cls-2{isolation:isolate;}.cls-3{fill:#78c1d4;}.cls-4{opacity:0.95;}.cls-5{clip-path:url(#clip-path);}.cls-6{fill:#d4edf1;}.cls-7{fill:#fff;}</style> <clipPath id="clip-path"> <circle class="cls-1" cx="20.7" cy="20.88" r="12.66"></circle> </clipPath> </defs> <g id="newton"> <g class="cls-2"> <path class="cls-3" d="M65.86,21.07V32.14H60.93V21.87c0-2.77-1-4.1-3.19-4.1-2.54,0-4.09,1.83-4.09,4.77v9.6H48.71V13.87H52.1l1,2.26a7.83,7.83,0,0,1,6-2.7C63.27,13.43,65.86,16.44,65.86,21.07Z"></path> <path class="cls-3" d="M88.1,22.94A11.76,11.76,0,0,1,88,24.39H74.19a4.26,4.26,0,0,0,4.46,3.87,4.35,4.35,0,0,0,3.88-2.12h5.18A9.51,9.51,0,0,1,69.18,23a9.46,9.46,0,1,1,18.92-.07ZM74.32,21h8.85a4.49,4.49,0,0,0-4.52-3.44A4.28,4.28,0,0,0,74.32,21Z"></path> <path class="cls-3" d="M117.3,13.87l-6,18.27h-4l-4.13-9.45-4,9.45h-4l-6-18.27h5l3.61,10.89L102.52,14h1.39l4.91,10.8,3.59-10.92Z"></path> <path class="cls-3" d="M131.18,27.74v4.4h-3.5c-4,0-6.49-2.47-6.49-6.52V17.84h-3.3V16.77L125.1,9.1H126v4.77h5v4h-5V25a2.54,2.54,0,0,0,2.81,2.78Z"></path> <path class="cls-3" d="M133.18,23a9.87,9.87,0,0,1,19.74,0,9.87,9.87,0,0,1-19.74,0Zm14.74,0a4.87,4.87,0,1,0-9.73,0,4.87,4.87,0,1,0,9.73,0Z"></path> <path class="cls-3" d="M173.61,21.07V32.14h-4.93V21.87c0-2.77-1.05-4.1-3.19-4.1-2.54,0-4.1,1.83-4.1,4.77v9.6h-4.93V13.87h3.39l1,2.26a7.83,7.83,0,0,1,6.05-2.7C171,13.43,173.61,16.44,173.61,21.07Z"></path> </g> </g> <circle id="Эллипс_184" data-name="Эллипс 184" class="cls-3" cx="20.7" cy="20.88" r="20.16"></circle> <g id="Сгруппировать_821-2" data-name="Сгруппировать 821-2" class="cls-4"> <g id="Сгруппировать_839-2" data-name="Сгруппировать 839-2"> <g class="cls-5"> <g id="Сгруппировать_838-2" data-name="Сгруппировать 838-2"> <g id="Группа_масок_626-2" data-name="Группа масок 626-2"> <g id="Группа_масок_624-2" data-name="Группа масок 624-2"> <path id="Контур_952-2" data-name="Контур 952-2" class="cls-6" d="M17.37,18.59l9.48,5.73,5.7,3.46-6.57,7s-1.18,1.3-5.25-.22c-1.73.25-7.78-.34-8-.81-1-1.13.48-5.37.35-6.88-.07-.72.59-1.64,1.35-3.92A12.53,12.53,0,0,1,17.37,18.59Z"></path> <path id="Контур_951-2" data-name="Контур 951-2" class="cls-7" d="M12.08,10.77c2.3-1.22,4.4-2.85,8.39-2.78s5.15.48,7.94,2.18c.25.34,4.13,3.43,3.64,3.89L21,20.76c-1,.86-9.36,4.67-6.53,11.11,2,1.69-1.06.3-2.45-.85C9.26,28.79,8.39,24.89,8.11,24c-.88-4.82-.52-4.45-.13-6.38C8.29,16.09,8.93,12.43,12.08,10.77Z"></path> </g> </g> </g> </g> </g> </g> </svg> 