<svg id="Objects" xmlns="http://www.w3.org/2000/svg" viewBox="0 0 145.95 241.49"><defs><style>.cls-1{fill:#468a8e;}.cls-1,.cls-2,.cls-3,.cls-5{fill-rule:evenodd;}.cls-2,.cls-4{fill:#ffe5df;}.cls-3{fill:#ff957f;}.cls-5{fill:#1a1a1a;opacity:0.15;}</style></defs><polygon class="cls-1" points="52.88 203.59 91.48 203.59 85.34 234.34 59.02 234.34 52.88 203.59"/><polygon class="cls-2" points="90 211 89.28 214.63 55.08 214.63 54.35 211 90 211"/><polygon class="cls-2" points="52.88 203.59 91.48 203.59 90.76 207.22 53.6 207.22 52.88 203.59"/><polygon class="cls-3" points="53.36 206 91 206 90.76 207.22 53.6 207.22 53.36 206"/><path class="cls-3" d="M54.33,206.22c4.26,0,7.06,9.76,0,9.76S50.08,206.22,54.33,206.22Z"/><path class="cls-3" d="M54.33,207.28c1.15,0,2-1.72,1.72-2.91a14.84,14.84,0,0,1-3.44,0C52.29,205.56,53.18,207.28,54.33,207.28Z"/><path class="cls-3" d="M90,206.22c4.25,0,7.06,9.76,0,9.76S85.77,206.22,90,206.22Z"/><path class="cls-3" d="M90,207.28c1.15,0,2-1.72,1.72-2.91a14.84,14.84,0,0,1-3.44,0C88,205.56,88.88,207.28,90,207.28Z"/><path class="cls-3" d="M66.23,206.22c4.26,0,7.06,9.76,0,9.76S62,206.22,66.23,206.22Z"/><path class="cls-3" d="M66.23,207.28c1.15,0,2-1.72,1.72-2.91a14.84,14.84,0,0,1-3.44,0C64.19,205.56,65.08,207.28,66.23,207.28Z"/><path class="cls-3" d="M78.13,206.22c4.26,0,7.06,9.76,0,9.76S73.87,206.22,78.13,206.22Z"/><path class="cls-3" d="M78.13,207.28c1.15,0,2-1.72,1.72-2.91a14.84,14.84,0,0,1-3.44,0C76.09,205.56,77,207.28,78.13,207.28Z"/><polygon class="cls-3" points="52.28 203.59 92.08 203.59 91.82 204.82 52.54 204.82 52.28 203.59"/><path class="cls-2" d="M54,171.51l-35.54-60.2C-10.85,61.75,7.26,4.57,72.18,4.57s83,57.2,53.76,106.76L90.41,171.51Z"/><path class="cls-3" d="M56,171.51l-31.61-60.2C-1.68,61.75,14.43,4.57,72.18,4.57S146,61.77,120,111.33L88.4,171.51Z"/><path class="cls-2" d="M58.89,171.51,33,111.31C11.63,61.75,24.84,4.57,72.18,4.57s60.55,57.2,39.21,106.76L85.47,171.51Z"/><path class="cls-3" d="M62.39,171.51l-19.08-60.2C27.6,61.75,37.32,4.57,72.18,4.57s44.58,57.2,28.87,106.76L82,171.51Z"/><path class="cls-2" d="M68.11,171.51l-7.92-60.2C53.66,61.75,57.7,4.57,72.18,4.57s18.51,57.2,12,106.76l-7.93,60.18Z"/><polygon class="cls-1" points="53.95 171.51 39.05 146.28 105.31 146.28 90.41 171.51 53.95 171.51"/><path class="cls-4" d="M93.18,196.16v-4l11.12-45.92h.58l-11.7,49.88Zm0-32.94L96,146.28h-.56l-2.27,12.93Zm-42,29L54,203.89l-1,.2-1.86-7.93v-4Zm42-33v4l-6.83,40.84-1-.14,7.83-44.71Zm0,33-2.83,11.69,1,.2,1.86-7.93v-4Zm-42-29L58,204.06l1-.14-7.83-44.71v4ZM65.1,146.28,68.26,204l-1,0-2.67-57.73Zm14.71,0L77.14,204l-1,0,3.16-57.69Zm-39.75,0L51.18,192.2v4L39.47,146.28Zm11.12,12.93-2.27-12.93h-.56l2.83,16.93Z"/><path class="cls-2" d="M39,146.21h66.34c-.07.41-.14.82-.22,1.23H39.23C39.15,147,39.08,146.62,39,146.21Z"/><path class="cls-5" d="M95,7.3Q92,6.54,88.86,6c-1.51-.26-3.06-.49-4.64-.68a98.57,98.57,0,0,0-12-.71h0V171.51h5.7l-1.76,32.08H72.18v30.75H85.34l3.52-17.61.17-.83a6.23,6.23,0,0,0,1,.08c6.33,0,4.73-7.85,1.26-9.47a2.86,2.86,0,0,0,.52-1.69h0l.26-1.23h-.64L95,188.34l9.58-40.87,0,0h.51c.08-.41.15-.82.22-1.23h0l20.59-34.88C151.42,68.18,141,19.24,95,7.3ZM84.22,203.59H77.16l1.48-32.08H90.41l.88-1.49-2.43,13.86-3.45,19.71Zm10.8-19-4.6,19h-4l2.43-14.52,3.48-20.83L95,163.71l8.58-14.54Z"/></svg>