<svg id="Objects" xmlns="http://www.w3.org/2000/svg" viewBox="0 0 126.42 78.56"><defs><style>.cls-1,.cls-2{fill:#fff;fill-rule:evenodd;}.cls-2{opacity:0.15;}</style></defs><path class="cls-1" d="M50.34,2.28C65.61,2.28,78,12.37,78,24.82S65.61,47.37,50.34,47.37,22.69,37.28,22.69,24.82,35.07,2.28,50.34,2.28Z"/><path class="cls-1" d="M95.09,17.06c15.27,0,27.65,10.1,27.65,22.55S110.36,62.15,95.09,62.15,67.44,52.06,67.44,39.61,79.82,17.06,95.09,17.06Z"/><path class="cls-1" d="M25.77,25.08c13,0,23.5,8.57,23.5,19.16S38.75,63.39,25.77,63.39,2.28,54.82,2.28,44.24,12.8,25.08,25.77,25.08Z"/><path class="cls-1" d="M61.52,31.14c15.27,0,27.65,10.1,27.65,22.55S76.79,76.23,61.52,76.23,33.87,66.14,33.87,53.69,46.25,31.14,61.52,31.14Z"/><path class="cls-2" d="M95.09,17.06c15.27,0,27.65,10.1,27.65,22.55S110.36,62.15,95.09,62.15a33.7,33.7,0,0,1-7.54-.85c-3.72,8.47-13.48,14.59-25,14.92V4.58C70.7,7.85,76.61,14.34,77.78,22A31.6,31.6,0,0,1,95.09,17.06Z"/></svg>