<svg width="32" height="32" viewBox="0 0 32 32" fill="none" xmlns="http://www.w3.org/2000/svg">
<path d="M15.9993 32C24.8355 32 31.9987 24.8366 31.9987 16C31.9987 7.16344 24.8355 0 15.9993 0C7.16315 0 0 7.16344 0 16C0 24.8366 7.16315 32 15.9993 32Z" fill="#FFA700"/>
<path d="M31.9999 15.955C32.0002 14.9901 31.9135 14.027 31.7408 13.0777L26.7477 8.08347C26.6001 7.93156 26.4236 7.81078 26.2286 7.72826C26.0335 7.64574 25.8239 7.60315 25.6121 7.60303H6.47916C6.05806 7.60432 5.65457 7.77218 5.3568 8.06996C5.05904 8.36773 4.89118 8.77124 4.88989 9.19236V22.7194C4.89004 22.9435 4.93765 23.1649 5.02957 23.3692C5.12149 23.5735 5.25565 23.7561 5.4232 23.9048L13.1873 31.6527C15.4865 32.0694 17.8492 31.9762 20.1085 31.3798C22.3678 30.7835 24.4686 29.6985 26.2628 28.2014C28.0569 26.7043 29.5006 24.8317 30.4919 22.7156C31.4832 20.5996 31.998 18.2918 31.9999 15.955Z" fill="#FF6900"/>
<path d="M25.6108 24.3065H6.47916C6.05836 24.3052 5.65514 24.1376 5.35743 23.8402C5.05971 23.5428 4.89165 23.1398 4.88989 22.719V9.19236C4.89118 8.77124 5.05904 8.36773 5.3568 8.06995C5.65457 7.77218 6.05805 7.60432 6.47916 7.60303H25.6108C26.0319 7.60432 26.4354 7.77218 26.7332 8.06995C27.0309 8.36773 27.1988 8.77124 27.2001 9.19236V22.719C27.1983 23.1398 27.0303 23.5428 26.7325 23.8402C26.4348 24.1376 26.0316 24.3052 25.6108 24.3065Z" fill="#006EF5"/>
<path d="M27.1996 9.19236V22.7185C27.1984 23.1397 27.0306 23.5432 26.7328 23.841C26.435 24.1388 26.0315 24.3067 25.6103 24.3078H16.0446V7.60303H25.6103C26.0315 7.6042 26.435 7.77202 26.7328 8.06983C27.0306 8.36763 27.1984 8.7712 27.1996 9.19236Z" fill="#0043A3"/>
<path d="M8.64065 9.7417H6.64563V11.7368H8.64065V9.7417Z" fill="white"/>
<path d="M8.63967 13.2183H6.64465V15.2134H8.63967V13.2183Z" fill="white"/>
<path d="M8.63967 16.6963H6.64465V18.6913H8.63967V16.6963Z" fill="white"/>
<path d="M8.63967 20.1743H6.64465V22.1694H8.63967V20.1743Z" fill="white"/>
<path d="M25.4459 9.7417H23.4509V11.7368H25.4459V9.7417Z" fill="#FFF4AA"/>
<path d="M25.4451 13.2183H23.4501V15.2134H25.4451V13.2183Z" fill="#FFF4AA"/>
<path d="M25.4451 16.6963H23.4501V18.6913H25.4451V16.6963Z" fill="#FFF4AA"/>
<path d="M25.4451 20.1743H23.4501V22.1694H25.4451V20.1743Z" fill="#FFF4AA"/>
<path d="M13.0845 12.0259V19.8778L19.8149 15.9516L13.0845 12.0259Z" fill="white"/>
<path d="M19.8151 15.9553L16.0446 18.1544V13.7544L19.8151 15.9553Z" fill="#FFF4AA"/>
</svg>
