<svg xmlns="http://www.w3.org/2000/svg" width="202" height="202" viewBox="0 0 202 202">
  <g id="_1046451" data-name="1046451" transform="translate(0.203 0.3)">
    <circle id="Эллипс_502" data-name="Эллипс 502" cx="101" cy="101" r="101" transform="translate(-0.203 -0.3)" fill="#006ef5"/>
    <path id="Контур_2558" data-name="Контур 2558" d="M275.811,154.967a101,101,0,0,0-1.538-17.586L226.685,89.793H123.452V220.141l33.509,33.509a100.443,100.443,0,0,0,118.85-98.683Z" transform="translate(-74.781 -54.209)" fill="#0043a3"/>
    <rect id="Прямоугольник_1280" data-name="Прямоугольник 1280" width="103.234" height="130.35" transform="translate(48.67 35.583)" fill="#fff"/>
    <rect id="Прямоугольник_1281" data-name="Прямоугольник 1281" width="51.615" height="130.35" transform="translate(100.289 35.583)" fill="#fff4aa"/>
    <path id="Контур_2559" data-name="Контур 2559" d="M165.788,214.372v56.417h47.737V214.372Zm3.8,52.506v-48.6h40.143v48.6Z" transform="translate(-100.516 -129.937)" fill="#00d4d1"/>
    <path id="Контур_2560" data-name="Контур 2560" d="M255.089,214.37v3.909h8.925v48.6h-8.925v3.913H267.81V214.37Z" transform="translate(-154.8 -129.936)" fill="#009ca0"/>
    <path id="Контур_2561" data-name="Контур 2561" d="M242.237,151.964a26.34,26.34,0,1,0,26.34,26.34A26.369,26.369,0,0,0,242.237,151.964Zm0,48.7A22.362,22.362,0,1,1,264.6,178.3,22.387,22.387,0,0,1,242.237,200.666Z" transform="translate(-130.976 -92.001)" fill="#ffa700"/>
    <path id="Контур_2562" data-name="Контур 2562" d="M266.061,151.96a26.13,26.13,0,0,0-10.972,2.4v4.462a22.361,22.361,0,1,1,0,38.958v4.466a26.34,26.34,0,1,0,10.972-50.286Z" transform="translate(-154.8 -91.999)" fill="#ff6900"/>
    <path id="Контур_2563" data-name="Контур 2563" d="M287.529,324.372l7.43-20.022,1.828-1.828,12.592,12.592-1.828,1.828Z" transform="translate(-174.519 -183.522)" fill="#ffa700"/>
    <path id="Контур_2564" data-name="Контур 2564" d="M309.38,324.872l-1.829,1.829-8.678,3.222,0,0-11.342,4.211,15.556-15.556Z" transform="translate(-174.519 -193.281)" fill="#ff6900"/>
    <rect id="Прямоугольник_1282" data-name="Прямоугольник 1282" width="17.806" height="65.268" transform="translate(133.032 133.421) rotate(-135)" fill="#e9336d"/>
    <rect id="Прямоугольник_1283" data-name="Прямоугольник 1283" width="65.268" height="8.904" transform="translate(179.187 87.267) rotate(135)" fill="#b12e65"/>
    <path id="Контур_2565" data-name="Контур 2565" d="M298.874,336.449l-7.135-7.134-4.21,11.344Z" transform="translate(-174.519 -199.809)" fill="#006ef5"/>
    <path id="Контур_2566" data-name="Контур 2566" d="M298.873,341.983l-11.345,4.208,7.776-7.776Z" transform="translate(-174.519 -205.34)" fill="#0043a3"/>
  </g>
</svg>
