<?xml version="1.0" encoding="UTF-8"?> <svg xmlns="http://www.w3.org/2000/svg" xmlns:xlink="http://www.w3.org/1999/xlink" id="Layer_1" data-name="Layer 1" viewBox="0 0 2200 1080"> <defs> <style>.cls-1,.cls-8{fill:none;}.cls-2{fill:#fff;}.cls-3{clip-path:url(#clip-path);}.cls-4,.cls-6,.cls-7{fill:#73cad8;}.cls-4,.cls-5{opacity:0.3;}.cls-7{opacity:0.4;}.cls-8{stroke:#fff;stroke-miterlimit:10;}.cls-9{opacity:0.5;}.cls-10{opacity:0.9;}.cls-11{fill:#db6ba8;}.cls-12{opacity:0.8;}.cls-13{fill:#72c6dd;}.cls-14{fill:#c443a8;}</style> <clipPath id="clip-path"> <rect class="cls-1" x="4.5" y="-2" width="2198.41" height="1080"></rect> </clipPath> </defs> <rect class="cls-2" width="2200" height="1080"></rect> <g class="cls-3"> <rect class="cls-1" x="4" y="-2.5" width="2198.41" height="1080"></rect> <path class="cls-4" d="M2894.28,351.26c-7.88,24.92-20,51.13-37.14,78.47-49.94,79.6-137.18,158.5-225,218.42-36.35,24.81-61.42,32.38-97,49.56-47.65,23-101.81,58.8-147.19,91.81-84.13,61.19,35.84,70-43.35,137.49-67.82,57.8,94.67,131-111.65,117-44.27-3-188.3-25-299.47-104-100.24-71.23-186.13,73.25-304.42-7.75C1495.81,841,1437.72,955,1353.59,983c-174.31,58-282.62-208.12-128.2-305,113.18-71,114.18-134,99.16-156-52.28-76.55-226.4,47-177.28-134,29-107-121.19-56,3.48-230.43C1203.53,83.73,970,161,963,83,953.7-20.28,785.71,133,678.55,55c-58.14-42.31-14.32-167,14.68-216.74,62-106.26,974.37-254.81,1090.55-353.84,136-115.94,307.22-167.73,414.56-148.91s161,95.34,191.63,182.85,45.14,184.93,82.27,267.84c39.57,88.35,93.1,153.58,177.45,206.41,81.24,50.88,170.33,95.85,221.72,172C2903.1,211.56,2918.28,275.42,2894.28,351.26Z"></path> <g class="cls-5"> <path class="cls-6" d="M2613.13,674c3.63,129.71-67.28,135-158.33,215.78-132.42,117.54-192.12,170.4-326.89,169.87-95.08-.38-74.29-163.22-140.1-216.86s-127.87-58.07-208-53.94c-55.16,2.84-121.89,11.54-177.45,17.84-110.56,12.55-189.19-9.38-221.5-100.22-46.39-130.44,114.17-227,75.65-343.76C1408.93,218.53,1150.46,309,1187.81,64.47,1209.73-79.11,1398-73.1,1520.53-125.14c19.81-8.42,38.71-20.08,52.38-37,23.4-29,26.24-70.55,32.76-108.68,14-81.91,50.71-159.62,111.44-210.58s190.68-55.74,258.43-24.75Z"></path> </g> <path class="cls-7" d="M1751.89-150.29c-177.44,235.94,77.5,122.47,53.95,243.1C1778.61,232.28,1954.89,187,1982.57,212c23.15,20.93,42.24,58.94,30,119-.69,3.43,8,29.05,26,41,62.1,41-13.36,67.08,11,120,23,50,98.34,2.31,90.14,59-13,90,85.13,88,85.13,88,31,10,24.41-38.91,17-24-15.63,31.55-20.15-59.44-7.68-48,12.88,11.77,34.21,8.17,43.29,6.72,132-21.18,151.54-236.4,280.34-330.37,194.21-141.68-16.45-283-92.52-333.26C2355-162.85,2245.09-203.34,2194.83-218.91c-3.55-2.66-7.27-5.29-11.21-7.88-33.55-22.07-97.87-103.07-153.62-139.73-61.8-43.72-113.17-40-170.36,18.16C1774.38-261.6,1817.55-237.6,1751.89-150.29Z"></path> <polygon class="cls-2" points="1747.65 235.86 1740.62 235.87 1745.45 230.78 1745.44 223.76 1750.54 228.58 1757.57 228.57 1752.74 233.67 1752.75 240.69 1747.65 235.86"></polygon> <polygon class="cls-2" points="1522.3 120.86 1515.27 120.87 1520.1 115.78 1520.09 108.76 1525.19 113.58 1532.22 113.57 1527.39 118.67 1527.4 125.69 1522.3 120.86"></polygon> <polygon class="cls-2" points="1708.95 372.27 1697.22 372.29 1705.28 363.78 1705.26 352.07 1713.79 360.12 1725.52 360.1 1717.45 368.61 1717.47 380.32 1708.95 372.27"></polygon> <polygon class="cls-2" points="1322.76 401.19 1315.73 401.21 1320.56 396.11 1320.55 389.09 1325.66 393.91 1332.68 393.9 1327.86 399 1327.87 406.02 1322.76 401.19"></polygon> <polygon class="cls-2" points="1096.41 77.19 1089.38 77.21 1094.21 72.11 1094.2 65.09 1099.31 69.91 1106.33 69.9 1101.51 75 1101.52 82.02 1096.41 77.19"></polygon> <polygon class="cls-2" points="1850.82 156.09 1846.59 156.1 1849.49 153.03 1849.49 148.81 1852.56 151.71 1856.78 151.71 1853.88 154.77 1853.88 158.99 1850.82 156.09"></polygon> <polygon class="cls-2" points="2043.95 294.33 2039.72 294.34 2042.63 291.27 2042.62 287.05 2045.69 289.95 2049.91 289.95 2047.01 293.01 2047.02 297.23 2043.95 294.33"></polygon> <polygon class="cls-2" points="1973.13 372.62 1968.91 372.63 1971.81 369.56 1971.81 365.34 1974.88 368.24 1979.1 368.24 1976.2 371.3 1976.2 375.52 1973.13 372.62"></polygon> <polygon class="cls-2" points="2175.94 677.46 2171.71 677.46 2174.61 674.4 2174.61 670.18 2177.68 673.08 2181.9 673.07 2179 676.14 2179.01 680.35 2175.94 677.46"></polygon> <polygon class="cls-2" points="2007.67 778.46 2003.45 778.46 2006.35 775.4 2006.35 771.18 2009.42 774.08 2013.64 774.07 2010.74 777.14 2010.74 781.35 2007.67 778.46"></polygon> <polygon class="cls-2" points="1502.89 677.46 1498.67 677.46 1501.57 674.4 1501.56 670.18 1504.63 673.08 1508.86 673.07 1505.95 676.14 1505.96 680.35 1502.89 677.46"></polygon> <path class="cls-8" d="M1772.49,555.1a4,4,0,1,1-2.08,5.23A4,4,0,0,1,1772.49,555.1Z"></path> <path class="cls-8" d="M1392.28,871.3a4,4,0,1,1-2.08,5.23A4,4,0,0,1,1392.28,871.3Z"></path> <path class="cls-8" d="M2098.84,594.58a4,4,0,1,1-2.08,5.23A4,4,0,0,1,2098.84,594.58Z"></path> <path class="cls-8" d="M1829.41,209a4,4,0,1,1-2.08,5.23A4,4,0,0,1,1829.41,209Z"></path> <path class="cls-8" d="M1958.72,22.08a6.27,6.27,0,1,1-3.28,8.23A6.27,6.27,0,0,1,1958.72,22.08Z"></path> <path class="cls-8" d="M1488,340.08a6.27,6.27,0,1,1-3.28,8.23A6.27,6.27,0,0,1,1488,340.08Z"></path> <path class="cls-8" d="M2119.8,180.44a11.75,11.75,0,1,1-6.14,15.44A11.79,11.79,0,0,1,2119.8,180.44Z"></path> <path class="cls-8" d="M1588,131.44a11.75,11.75,0,1,1-6.15,15.44A11.77,11.77,0,0,1,1588,131.44Z"></path> <path class="cls-8" d="M2003.5,530a6.27,6.27,0,1,1-3.28,8.24A6.28,6.28,0,0,1,2003.5,530Z"></path> <g class="cls-9"> <path class="cls-2" d="M2000.7,160.84a5.37,5.37,0,0,1-.92,3.73c-1,1.25-2.8,1.55-4.41,1.73-4.52.52-9.06.58-13.59.91-9,.66-18.13.76-27.2,1.15a183.85,183.85,0,0,1-46.09-3.81,5,5,0,0,1-2.39-1c-2-1.74-.21-5.05,2-6.43a12.87,12.87,0,0,1,12-.73,44.78,44.78,0,0,1,6.33-26.44c4.23-7,11.18-13,19.33-13.19,6.75-.12,13.08,4,17.08,9.4s5,10.88,6.52,17.15c.2.86.58,1.88,1.45,2a2.31,2.31,0,0,0,1.34-.42,19.36,19.36,0,0,1,28.5,15.59C2000.68,160.62,2000.69,160.73,2000.7,160.84Z"></path> </g> <g class="cls-9"> <path class="cls-2" d="M1324.26,939.41a6,6,0,0,1-1.71,5.14c-1.92,1.71-5.19,2.13-8.18,2.38-8.39.7-16.81.79-25.22,1.24-16.81.92-33.67,1.05-50.5,1.59a457.5,457.5,0,0,1-85.57-5.24,11.42,11.42,0,0,1-4.44-1.33c-3.62-2.39-.37-6.94,3.74-8.84a31.29,31.29,0,0,1,22.31-1c-1.3-12.64,2.88-25.55,11.76-36.38,7.84-9.58,20.75-18,35.87-18.16A45,45,0,0,1,1254,891.73c7.23,7.29,9.35,15,12.11,23.62.38,1.17,1.08,2.57,2.69,2.73a5.53,5.53,0,0,0,2.5-.58,48.18,48.18,0,0,1,34.33.08c10.46,4.25,17.69,12.57,18.56,21.38C1324.23,939.11,1324.25,939.26,1324.26,939.41Z"></path> </g> <g class="cls-9"> <path class="cls-2" d="M1398.58,275.05c0,.17,0,.33-.07.49-2,11.91-32,9.66-40.26,9.87q-25.2.63-50.41,1c-33.61.53-67.23.72-100.85.35-17.91-.2-36-.41-53.48-4.1-2.19-.46-4.65-1.18-5.65-3.19s-.06-4.48,1.18-6.38c5.21-7.94,15.29-11.75,24.78-11.34s18.49,4.44,26.59,9.41c2.09-16.68,4.29-33.73,11.76-48.81s21.32-28.07,38.07-29.87c14.84-1.59,29.66,6,39.49,17.19s15.25,25.65,18.45,40.21c4.74-5.43,10.36-11.29,17.57-11.44,5.25-.11,10.08,2.95,13.8,6.65,5.71,5.66,9.56,12.89,13.32,20,3.58-4.68,7.89-9.16,13.47-11.07C1377.06,250.4,1400.27,261.3,1398.58,275.05Z"></path> </g> <g class="cls-9"> <path class="cls-2" d="M1780.2,922.46c0,.12,0,.23,0,.35-1.4,8.51-22.91,6.9-28.78,7.05q-18,.45-36,.75c-24,.39-48.06.52-72.08.25-12.81-.14-25.71-.29-38.23-2.93-1.57-.33-3.33-.84-4-2.27s0-3.21.84-4.57c3.72-5.67,10.93-8.39,17.72-8.11s13.21,3.18,19,6.73c1.49-11.92,3.07-24.11,8.4-34.89s15.25-20.06,27.22-21.35c10.61-1.13,21.2,4.27,28.23,12.29s10.9,18.34,13.19,28.74c3.39-3.88,7.41-8.07,12.56-8.17,3.75-.08,7.2,2.11,9.86,4.75,4.08,4,6.83,9.21,9.52,14.29,2.56-3.34,5.64-6.54,9.63-7.91C1764.82,904.84,1781.4,912.63,1780.2,922.46Z"></path> </g> <g class="cls-10"> <path class="cls-2" d="M2045.15,639.5c8.21-.28,16.06,4.66,22.08,10.34a67.45,67.45,0,0,1,17.45,26.8,278,278,0,0,1,18.73,23.19c-5.44-15.39-3.55-32.39,5.18-45.34.59-.89,1.66-1.86,2.73-1.33,5.76,5.9,6.78,14.37,5.93,21.88a54,54,0,0,1-11.68,27.82A268.5,268.5,0,0,1,2123,731.23a50,50,0,0,1,12-41.57c.72-.8,1.93-1.62,2.92-1,4.94,6.49,4.76,14.91,2.84,22.18a54.14,54.14,0,0,1-15.18,25.4,256.13,256.13,0,0,1,12.19,28.28,49.89,49.89,0,0,1,19-36.15c.86-.67,2.21-1.29,3.09-.51,3.83,7,2.22,15.22-.94,22a55.37,55.37,0,0,1-18.67,22,241.31,241.31,0,0,1,7.47,28.8,49.9,49.9,0,0,1,19.12-39.78c.86-.67,2.21-1.29,3.1-.51,3.83,7,2.22,15.22-.94,22a55.53,55.53,0,0,1-20.38,23.13,227.9,227.9,0,0,1,2.82,24c.11,1.71-2.75,1.93-2.86.21a226.23,226.23,0,0,0-2.83-24c-17.73-3.12-34.39-13.84-44-28.4-.63-1-1.17-2.36-.26-3,7.89-1.69,16.48,1.9,23.44,6.53a71.66,71.66,0,0,1,19.93,19.94,239.6,239.6,0,0,0-6.93-27l-1.37-.47c-18.06-2.91-35.1-13.77-44.89-28.57-.63-1-1.17-2.36-.25-3,7.88-1.69,16.47,1.89,23.43,6.53a70.77,70.77,0,0,1,22.85,24.77,252.1,252.1,0,0,0-14.53-35.5l-.24,0a68.49,68.49,0,0,1-48.61-22c-.79-.87-1.55-2.19-.76-2.92,7.4-2.84,16.38-.51,24,3.12a73.79,73.79,0,0,1,23.61,17.92A266.08,266.08,0,0,0,2103.11,704a68.32,68.32,0,0,1-50.33-16.22c-.89-.77-1.83-2-1.16-2.84,6.86-3.74,16-2.49,23.94.22a75.28,75.28,0,0,1,23.36,13.05,271.31,271.31,0,0,0-17.68-21.44c-16.28-6.33-30-19.19-36.43-34.39C2044.37,641.36,2044.12,639.92,2045.15,639.5Z"></path> </g> <g class="cls-10"> <path class="cls-2" d="M2037,159c7.85,2.75,16.94.35,24.47-3.32a68.29,68.29,0,0,0,25-20.6,282.86,282.86,0,0,0,25.15-16.73c-9.93,13.22-13.28,30.22-8.78,45.37.31,1,1.05,2.3,2.24,2.11,7.36-4,10.92-11.82,12.38-19.34A54.59,54.59,0,0,0,2114.6,116,272.55,272.55,0,0,0,2140,93.91a50.65,50.65,0,0,0-1,43.8c.46,1,1.37,2.15,2.53,1.83,6.74-4.77,9.13-13,9.48-20.57a54.83,54.83,0,0,0-7-29.15,258.17,258.17,0,0,0,20.37-23.63,50.49,50.49,0,0,0,7.4,40.69c.63.91,1.74,1.92,2.83,1.44,5.85-5.64,6.78-14,5.79-21.57a56.19,56.19,0,0,0-11.36-26.9,245.33,245.33,0,0,0,16-25.56,50.46,50.46,0,0,0,6.4,44.22c.63.91,1.74,1.93,2.83,1.44,5.84-5.64,6.77-14,5.79-21.57a56.3,56.3,0,0,0-12.67-28.52,231.08,231.08,0,0,0,10-22.28c.62-1.62-2.07-2.7-2.69-1.07a229.83,229.83,0,0,1-10,22.33c-18.07-2.36-37.42,2.95-51.15,14.12-.9.73-1.85,1.91-1.14,2.78,7.1,4,16.49,3.15,24.63.78a72.76,72.76,0,0,0,25.31-13.22,243.58,243.58,0,0,1-14.9,24l-1.47,0c-18.32-2.65-38.09,2.67-52,14-.91.74-1.85,1.92-1.15,2.79,7.11,4,16.5,3.15,24.63.78a71.85,71.85,0,0,0,29.6-17,255.59,255.59,0,0,1-24.82,29.9l-.25,0a69.46,69.46,0,0,0-53.67,6.58c-1,.6-2.16,1.64-1.61,2.59,6.28,5,15.67,5.45,24.09,4.24A74.74,74.74,0,0,0,2139,91a270.5,270.5,0,0,1-26.46,23.17c-16.52-7-36.81-6.9-53.56.43-1.09.48-2.37,1.38-2,2.39,5.48,5.69,14.69,7.26,23.19,7a76,76,0,0,0,26.53-5.53,278.3,278.3,0,0,1-23.59,15.37c-17.66,1.18-34.8,9.45-45.64,22.19C2036.79,156.93,2036.1,158.24,2037,159Z"></path> </g> <g class="cls-10"> <path class="cls-2" d="M2121.49,1059.54c.72-3.19,3.41-5.72,6.21-7.47a26.91,26.91,0,0,1,12.1-4,110.51,110.51,0,0,1,10.84-4.9,20.41,20.41,0,0,1-17-6.53c-.29-.32-.55-.82-.24-1.18,2.85-1.63,6.23-1.18,9.05-.1a21.5,21.5,0,0,1,9.58,7.28,108.56,108.56,0,0,1,12.71-3.88,20,20,0,0,1-14.87-8.79c-.23-.36-.43-.9-.08-1.22,3-1.26,6.24-.35,8.86,1.12a21.73,21.73,0,0,1,8.3,8.39,101.4,101.4,0,0,1,12.15-1.87A19.94,19.94,0,0,1,2167,1025.4c-.17-.4-.28-1,.11-1.25,3.1-.77,6.11.67,8.42,2.56a22.07,22.07,0,0,1,6.63,9.4,94.18,94.18,0,0,1,11.88,0,19.93,19.93,0,0,1-13.46-11.35c-.18-.4-.28-1,.11-1.24,3.1-.78,6.1.66,8.42,2.56a22.14,22.14,0,0,1,6.9,10.17,92.28,92.28,0,0,1,9.54,1.3c.67.13.47,1.25-.21,1.12a92.29,92.29,0,0,0-9.56-1.3,27,27,0,0,1-15.37,14.12c-.44.15-1,.22-1.17-.2.13-3.21,2.38-6.16,4.87-8.38a28.6,28.6,0,0,1,9.69-5.68,95.91,95.91,0,0,0-11.12,0l-.32.48a27,27,0,0,1-15.53,14.44c-.44.15-1,.22-1.17-.2.14-3.2,2.38-6.16,4.87-8.37a28.15,28.15,0,0,1,11.85-6.33,99.58,99.58,0,0,0-15.17,2l0,.09a27.29,27.29,0,0,1-13.38,16.53c-.42.21-1,.37-1.21,0-.35-3.13,1.45-6.36,3.6-8.91a29.41,29.41,0,0,1,9.29-7.31,105.59,105.59,0,0,0-13.26,4,27.2,27.2,0,0,1-11.3,17.77c-.39.26-1,.5-1.22.16-.76-3,.64-6.41,2.48-9.2a29.88,29.88,0,0,1,7.38-7.7,110,110,0,0,0-10.06,4.67,26.23,26.23,0,0,1-16.93,10.6C2122.14,1060,2121.55,1060,2121.49,1059.54Z"></path> </g> <path class="cls-11" d="M2212.06,1044.1q-10-10.72-21-20.36a73.87,73.87,0,0,0-1.47-37.54c-2.71-8.81-7.73-17.71-16.24-21.29-1.31,0-1.91,1.6-2.08,2.9a67.9,67.9,0,0,0,15.45,52.2,294,294,0,0,0-28.35-21.16,73.89,73.89,0,0,0-2-35.14c-2.71-8.81-7.73-17.71-16.24-21.28-1.31,0-1.91,1.59-2.08,2.89A67.88,67.88,0,0,0,2150.76,994a296.79,296.79,0,0,0-31.66-16.94,73.81,73.81,0,0,0-7.41-35.58c-4.06-8.28-10.42-16.28-19.39-18.48-1.3.17-1.63,1.88-1.6,3.19a67.93,67.93,0,0,0,22.42,48.2,297.13,297.13,0,0,0-35.88-12.9,74.05,74.05,0,0,0-12.08-35.08c-5.11-7.67-12.47-14.78-21.65-15.78-1.26.33-1.37,2.07-1.17,3.37a67.92,67.92,0,0,0,30.78,46.32,293.59,293.59,0,0,0-32.92-7,74.15,74.15,0,0,0-34.65-11.37c-9.21-.61-19.33.9-25.71,7.57-.51,1.21.81,2.35,2,3a68.1,68.1,0,0,0,55.72,3.68,294.51,294.51,0,0,1,30.66,6.19,74.5,74.5,0,0,0-28.69,6.06c-8.47,3.67-16.77,9.64-19.39,18.48.11,1.31,1.81,1.72,3.12,1.75a68,68,0,0,0,52.91-24.12,297.77,297.77,0,0,1,37.35,13.53,74.37,74.37,0,0,0-32.74,1.72c-8.88,2.53-17.9,7.36-21.65,15.78-.06,1.31,1.56,1.94,2.86,2.14A68,68,0,0,0,2118,980.31l.22-.13A294.94,294.94,0,0,1,2157.3,1002v0a74.28,74.28,0,0,0-37.47-5.29c-9.17,1.11-18.83,4.47-23.86,12.2-.27,1.28,1.23,2.16,2.48,2.56a68.07,68.07,0,0,0,58.09-8.37l1.49-.63a292.87,292.87,0,0,1,26.4,19.79,74.17,74.17,0,0,0-31.42-3.06c-9.17,1.1-18.83,4.46-23.86,12.19-.27,1.28,1.24,2.16,2.49,2.56a68,68,0,0,0,57.27-7.85,285.8,285.8,0,0,1,20.53,19.93C2210.86,1047.51,2213.47,1045.62,2212.06,1044.1Z"></path> <g class="cls-12"> <path class="cls-13" d="M2143.08,15.08C2120.76,2.73,2096.68-10,2073.52-6.4c-12.44,1.92-23.82,8.52-36.59,8.28-11.54-.21-22.9-6-34.31-9.7-35.32-11.52-74.67-1.56-95,28.8-3.63,5.43-6.71,11.71-6.78,18.84-.13,14.28,11.89,26.93,24.2,32.5,14.5,6.57,30.71,6.39,43.74-.47,18.68-9.84,31.27-32.62,52.52-34.58,12.13-1.11,24.76,5,37,4.45,15.65-.74,27.94-12.14,40.85-20.72s30.17-14.32,44.16-4.28"></path> </g> <g class="cls-9"> <path class="cls-2" d="M1903.72,51c12.12-4.16,22.27-12.14,32.85-19.11a98.19,98.19,0,0,1,16.65-9.25,54.7,54.7,0,0,1,20.54-3.95c7.89-.05,15.72,1.06,23.55,1.9a124.52,124.52,0,0,0,22.84.67,102.42,102.42,0,0,0,22.22-4.19,100.78,100.78,0,0,0,10.49-3.89c3.44-1.49,6.79-3.18,10.26-4.59a36.42,36.42,0,0,1,12-2.89,40.12,40.12,0,0,1,12.17,1.54c8.49,2.32,16.11,6.65,24,10.39a1,1,0,0,0,1-1.7,109.26,109.26,0,0,0-21.15-10c-6.91-2.32-14.31-3.48-21.51-1.95-7.37,1.56-13.92,5.54-20.86,8.28a99.77,99.77,0,0,1-22.14,5.87,106.53,106.53,0,0,1-23.2.69c-8-.6-15.87-1.81-23.85-2.22-7.4-.38-14.87,0-22,2.21A74.29,74.29,0,0,0,1940.54,27c-11,6.79-21,15.16-32.63,20.83-1.48.72-3,1.39-4.53,2-.75.3-.45,1.51.34,1.24Z"></path> <path class="cls-2" d="M1989.27,18.62c-20.63-1.24-40.47,11-52,27.51a62.85,62.85,0,0,0-8.14,16.23c-.27.82,1,1.12,1.28.35A74.17,74.17,0,0,1,1947.47,37a63.88,63.88,0,0,1,25.15-14.87,75.24,75.24,0,0,1,16.65-3,.26.26,0,0,0,0-.52Z"></path> <path class="cls-2" d="M2024.39,18.05A148.22,148.22,0,0,1,1982.5-1.06q-5.76-3.88-11.19-8.22c-.78-.62-1.9.45-1.12,1.12a131.11,131.11,0,0,0,41.28,23.71A88.36,88.36,0,0,0,2024.13,19a.48.48,0,0,0,.26-.93Z"></path> <path class="cls-2" d="M1933.46,32.5a85,85,0,0,1-30.81-1.9c-1.07-.27-1.53,1.41-.46,1.66a81.39,81.39,0,0,0,31.4,1.19c.54-.09.42-1-.13-1Z"></path> </g> <g class="cls-12"> <path class="cls-11" d="M2229.21,949.35c-8-15.11-7.25-29.21-1.18-45.2,4-10.55,10.9-19.79,15-30.29s5-23.51-2.33-32.09c-3.3-3.86-7.9-6.4-11.37-10.09-6.24-6.64-8.18-16.31-8-25.42s2.25-18.07,2.78-27.16c1.9-32.57-18.7-66-49.7-76.34-8.54-2.85-18.77-3.72-25.83,1.87a23.43,23.43,0,0,0-7.14,10.86c-7.52,21.72,6.07,44.38,11.56,66.7,1,4,1.72,8.2,1.09,12.29-.77,5-3.46,9.37-5.77,13.82-7.89,15.22-10.92,35.82,1.15,48,4.23,4.26,10,7.1,13.09,12.24,2.87,4.76,2.93,10.63,3.05,16.18.38,17.72,3.18,37.35,16.84,48.67,5.91,4.89,13.24,7.66,19.89,11.49a70,70,0,0,1,27,28.32c1.39-9.09,1.74-14.87-.26-23.84"></path> </g> <g class="cls-5"> <path class="cls-2" d="M2153.4,718.44c4.85,7.17,10.08,14,15.35,20.86a157.44,157.44,0,0,1,14.38,21.36,75.7,75.7,0,0,1,8.48,26.31c1.21,9.67.25,19.3-1.57,28.82-3.49,18.26-9.57,37.37-4.33,55.92,2.31,8.15,6.91,15.32,11.19,22.55a95.31,95.31,0,0,1,5.86,11.08,54.85,54.85,0,0,1,3.59,13c.76,4.57,1.29,9.19,2.48,13.68a57.54,57.54,0,0,0,4.21,11.06,55.12,55.12,0,0,0,14.73,18.44,49.31,49.31,0,0,0,4.73,3.23c.93.58,1.65-.8.83-1.43a63.09,63.09,0,0,1-15.93-17.59c-4.37-7.27-6.57-15.12-7.83-23.46a83.25,83.25,0,0,0-2.79-13.74,67,67,0,0,0-5.11-11.33c-4-7.28-8.88-14.17-11.93-22-7-17.93-1.61-37.22,2-55.25,1.88-9.36,3.29-18.87,2.63-28.44a77.28,77.28,0,0,0-6.76-26.71c-7.11-15.59-18.94-28.5-29.28-42-1.3-1.69-2.55-3.4-3.74-5.16-.5-.73-1.71,0-1.2.7Z"></path> <path class="cls-2" d="M2192.63,783.22c.64-6.61.56-13.29,1.18-19.92s1.49-13.38,2.7-20c.19-1-1.4-1.5-1.62-.44a167.5,167.5,0,0,0-2.83,20.2c-.5,6.68-1,13.6-.06,20.25.05.38.6.24.63-.09Z"></path> <path class="cls-2" d="M2195.07,887.15a254.75,254.75,0,0,1,7.86-28,188.84,188.84,0,0,1,12-26.78c2.6-4.78,5.4-9.47,8.38-14,.65-1-.94-1.91-1.6-.93a184.66,184.66,0,0,0-24.13,53.08,137.5,137.5,0,0,0-3.62,16.4c-.1.72.94,1,1.12.31Z"></path> <path class="cls-2" d="M2190.45,819.39c-3.52-14.78-13.09-28.06-25.35-36.9a64.87,64.87,0,0,0-11.38-6.53c-1-.45-1.89,1-.88,1.5a68.35,68.35,0,0,1,31.73,30.43,76.07,76.07,0,0,1,4.89,11.77.51.51,0,0,0,1-.27Z"></path> <path class="cls-2" d="M2210.51,931.86c-5.38-12.06-15.14-22.35-26.36-29.16-.8-.49-1.53.76-.74,1.25a73.21,73.21,0,0,1,15,12.47,79.52,79.52,0,0,1,11.14,16c.35.65,1.26.08,1-.57Z"></path> <path class="cls-2" d="M2185.08,859.74a106.37,106.37,0,0,0-14.86-27.24c-.46-.63-1.53,0-1.06.63a143.43,143.43,0,0,1,15.2,26.91c.18.4.87.12.72-.3Z"></path> <path class="cls-2" d="M2168.22,737.35a15.87,15.87,0,0,0-3.52-4,33.4,33.4,0,0,0-4.35-3.42,39.47,39.47,0,0,0-10-4.72.69.69,0,0,0-.37,1.33,37.56,37.56,0,0,1,9.74,4.47,43.89,43.89,0,0,1,4.33,3.19c1.31,1.09,2.44,2.5,3.83,3.47.22.15.44-.14.34-.34Z"></path> </g> <g class="cls-12"> <path class="cls-14" d="M2243.64-4.6c-14.08,16.1-16.06,39.38-14.65,60.71.88,13.24,2.15,28.41-7.19,37.85-5.74,5.79-14.58,8.18-19.27,14.85-5.28,7.5-3.56,17.61-4.33,26.75-.83,9.74-5,19.41-12.5,25.71s-18.41,8.78-27.49,5.12c-10.84-4.36-16.94-15.93-20.06-27.17-3.52-12.68-3.92-27.66,4.8-37.53,3.85-4.35,9.42-7.72,10.89-13.34,1.41-5.45-1.59-11-1.88-16.65-.46-9.11,6.32-17.16,14.15-21.85s16.84-7,25.08-10.92c20.63-9.87,34.83-29.18,52.35-43.88"></path> </g> <g class="cls-5"> <path class="cls-2" d="M2157.4,166c-2.86-10.18-3.46-21.65-.3-31.82a36.61,36.61,0,0,1,7.45-13.55c4-4.51,9.15-7.76,14.18-11,4.73-3.08,9.51-6.29,13.3-10.54a28.85,28.85,0,0,0,7-15.8c.86-6.16.95-12.36,2.41-18.44a38.76,38.76,0,0,1,7.89-16.2c2.3-2.75,4.84-5.29,7.16-8a77,77,0,0,0,6-8,64.66,64.66,0,0,0,8.61-18.76c.48-1.84-2.16-2.49-2.81-.77a92.61,92.61,0,0,1-8,16.75,72.24,72.24,0,0,1-5.29,7.37c-2,2.48-4.26,4.76-6.36,7.18a42.65,42.65,0,0,0-9,15.88c-1.81,6-2.27,12.18-2.77,18.38s-1.56,12-5.35,17c-3.55,4.67-8.46,8.1-13.3,11.29-5,3.33-10.25,6.58-14.45,11a38.22,38.22,0,0,0-8.08,13.18c-4.18,11.34-3.36,24,.56,35.21.26.75,1.41.45,1.19-.32Z"></path> <path class="cls-2" d="M2198.83,63.65c-1.19.31-2,1.62-2.87,2.46s-2,1.92-3,2.81a45.21,45.21,0,0,1-7,4.86,45.7,45.7,0,0,1-16,5.33c-1.21.18-.93,2.27.29,2.15a42.28,42.28,0,0,0,16.92-5.46,43.67,43.67,0,0,0,7.21-5.24,36.82,36.82,0,0,0,3.07-3c.81-.92,2.07-2.08,2.12-3.37a.52.52,0,0,0-.65-.49Z"></path> <path class="cls-2" d="M2184.48,102.59c-9,8.08-13.24,21-9.95,32.75a.75.75,0,0,0,1.44-.4c-2.56-11.2.84-23.66,9.3-31.55.53-.5-.26-1.28-.79-.8Z"></path> <path class="cls-2" d="M2162.25,119.94a52.92,52.92,0,0,0-5.12,3.47q-2.58,1.75-5.29,3.28a66.52,66.52,0,0,1-11.44,5.1c-1.45.48-.82,2.78.63,2.29a64.7,64.7,0,0,0,11.95-5.44,59.84,59.84,0,0,0,5.35-3.56,21.18,21.18,0,0,0,4.71-4.35c.37-.5-.32-1-.79-.79Z"></path> </g> <g class="cls-12"> <path class="cls-13" d="M2179,907.2c2.28-16.43,4.37-34-3.23-47.22-4.08-7.09-10.77-12.45-13.61-20.25-2.58-7.05-1.74-15.28-2.15-23.08-1.26-24.11-16.54-45.64-39.77-50.84-4.15-.93-8.69-1.32-13,.31-8.71,3.26-13.59,13.51-14.1,22.29-.59,10.33,3.31,20.12,10.54,26.41,10.36,9,27.17,11.32,33.34,23.75,3.52,7.09,2.75,16.19,6,23.46,4.11,9.31,13.93,14.09,22.17,19.91s15.78,14.94,13,25.78"></path> </g> <g class="cls-9"> <path class="cls-2" d="M2100.92,770.68c5.46,6.62,12.94,11,19.81,15.93a59.06,59.06,0,0,1,9.59,8.26,35.7,35.7,0,0,1,6.9,11.9c1.67,4.61,2.76,9.41,4,14.14a78.84,78.84,0,0,0,5,13.84,66.23,66.23,0,0,0,7.57,12.09c3,3.83,6.59,7,9.93,10.53a23.23,23.23,0,0,1,4.69,6.76,25.58,25.58,0,0,1,1.85,7.76c.52,5.62-.4,11.15-.66,16.76a1,1,0,0,0,1.93.26,64.66,64.66,0,0,0,1.22-15.14,27.43,27.43,0,0,0-3.71-13.57c-2.62-4.18-6.56-7.25-9.9-10.81a63.14,63.14,0,0,1-8.7-11.78,68.21,68.21,0,0,1-6-13.82c-1.49-4.84-2.6-9.79-4.13-14.61a43.3,43.3,0,0,0-6.1-12.79,46,46,0,0,0-9-8.93c-7.75-6-16.64-10.51-23.43-17.69-.58-.6-1.42.29-.91.91Z"></path> <path class="cls-2" d="M2140.89,814.75c-3.65-13-16.24-22.26-28.87-25.4a38.6,38.6,0,0,0-11.88-1.06.66.66,0,0,0,0,1.32,50.18,50.18,0,0,1,19.54,4.37,41.75,41.75,0,0,1,15,11.74,55.74,55.74,0,0,1,5.77,9.23.26.26,0,0,0,.47-.2Z"></path> <path class="cls-2" d="M2149.55,836a114.32,114.32,0,0,1,.15-19.05,104,104,0,0,1,4.16-19.57c.3-1-1.19-1.37-1.53-.42a83.49,83.49,0,0,0-4.4,19.76,65.45,65.45,0,0,0,.67,19.41.49.49,0,0,0,1-.13Z"></path> <path class="cls-2" d="M2119.41,784a55.48,55.48,0,0,1-5.89-18.95.86.86,0,1,0-1.69.23,51.84,51.84,0,0,0,6.74,19.2.48.48,0,0,0,.84-.48Z"></path> </g> <g class="cls-12"> <path class="cls-11" d="M2213.85,1051.27c-8-19.11-21.74-29.26-41.38-35.9-12.95-4.38-26.91-5.07-39.91-9.28s-25.86-13.44-28.24-26.88c-1.07-6.05.1-12.29-.69-18.38-1.4-10.93-9-20.18-17.63-27s-18.65-11.81-27.56-18.32c-31.94-23.3-47.38-68.27-33.16-105.12,3.92-10.16,11-20.37,21.63-22.65,5.21-1.11,10.67-.15,15.66,1.7,26.11,9.71,36.85,39.82,53.5,62.13,3,4,6.35,7.92,10.67,10.48,5.23,3.1,11.43,4,17.37,5.26,20.31,4.35,41.91,17.39,44,38,.74,7.22-1,14.79,1.38,21.63,2.24,6.35,7.69,10.92,12.79,15.3,16.29,14,32.49,31.73,32.57,53.18,0,9.27-3,18.25-4.56,27.4a84.36,84.36,0,0,0,5.67,47c-9.58-5.7-15.25-9.82-22.11-18.59"></path> </g> <g class="cls-5"> <path class="cls-2" d="M2054.73,803.27c3.16,10.67,5.08,21.7,7.55,32.55s5.28,21.4,9.77,31.47a93.35,93.35,0,0,0,17.28,26c7.41,7.87,16.21,14.11,25.56,19.47,18.3,10.48,39,18.36,53.24,34.58,7,8,10.94,17.61,14.5,27.47s7,19.68,13.36,28c3.34,4.36,7.18,8.3,10.77,12.45a70.83,70.83,0,0,1,9.06,13.06,70,70,0,0,1,8.06,30.12c.09,2.55.16,5.08,0,7.63-.06,1.09,1.52,1,1.65,0a64.36,64.36,0,0,0-3.75-30.57,70.65,70.65,0,0,0-6.89-13.74,105.77,105.77,0,0,0-10.23-12.71,83,83,0,0,1-10.24-13.17A88.26,88.26,0,0,1,2188,981.7c-3.65-9.71-6.6-19.85-12.22-28.68-11.46-18-31.4-27.55-49.68-37.08-9.81-5.12-19.62-10.49-28.09-17.69a90.81,90.81,0,0,1-20.07-24.17c-11.13-19.52-13.69-42-19.59-63.34-.73-2.62-1.49-5.24-2.26-7.84a.7.7,0,0,0-1.34.37Z"></path> <path class="cls-2" d="M2087.07,888.73c-1.53-1.5-3-3-4.63-4.38s-3.07-2.51-4.62-3.73q-4.76-3.74-9.7-7.22a202.82,202.82,0,0,0-21-12.91c-.94-.51-1.78.92-.84,1.44,7.12,4,14,8.29,20.79,12.87q5,3.39,9.84,7,2.48,1.88,4.9,3.81c1.59,1.27,3.28,2.38,4.9,3.58.29.22.64-.25.39-.5Z"></path> <path class="cls-2" d="M2182.52,970.4a192.4,192.4,0,0,0-32.45-15,231.15,231.15,0,0,0-34.25-9.59c-6.57-1.3-13.19-2.28-19.85-3-1.18-.12-1.17,1.71,0,1.84a237.15,237.15,0,0,1,68.09,18.13c6.07,2.64,12,5.62,17.88,8.6a.58.58,0,0,0,.58-1Z"></path> <path class="cls-2" d="M2123.06,914.44A84.83,84.83,0,0,1,2109.19,863a78.2,78.2,0,0,1,2.44-15.2.87.87,0,0,0-1.67-.46,81.15,81.15,0,0,0,4.22,54,70,70,0,0,0,8,13.67c.39.52,1.26,0,.89-.52Z"></path> <path class="cls-2" d="M2164.72,940.65a167.54,167.54,0,0,1-13.47-34.78.62.62,0,0,0-1.19.33A131.27,131.27,0,0,0,2164,941a.39.39,0,0,0,.68-.39Z"></path> <path class="cls-2" d="M2063,831.06c.15-2-.35-4.19-.36-6.25a54.9,54.9,0,0,1,.3-6.28,45.21,45.21,0,0,1,3.31-12.67.69.69,0,1,0-1.26-.53,46.51,46.51,0,0,0-3.26,13,39.81,39.81,0,0,0-.15,6.73c.13,2,.17,4.33,1,6.15.1.25.45.09.46-.13Z"></path> </g> <g class="cls-10"> <path class="cls-2" d="M2122.89,609.27c2,3.57,6.2,5.62,10.2,6.7a33.7,33.7,0,0,0,16,.43,138.77,138.77,0,0,0,14.8,1.93,25.6,25.6,0,0,0-18,14c-.22.49-.36,1.2.15,1.51,4,.92,7.91-.86,10.9-3.19a27,27,0,0,0,8.83-12.24,134.53,134.53,0,0,0,16.68,0,25.1,25.1,0,0,0-14.62,16c-.15.52-.19,1.25.35,1.5,4.06.41,7.62-1.87,10.22-4.58a27.21,27.21,0,0,0,6.89-13.11,127,127,0,0,0,15.27-2.2,25,25,0,0,0-10.48,17.56c-.06.54,0,1.28.59,1.45,4-.21,7.09-3,9.17-6.16a27.7,27.7,0,0,0,4.52-13.7,121.65,121.65,0,0,0,14.26-4.34,25,25,0,0,0-12,18.54c-.07.54,0,1.28.58,1.46,4-.21,7.09-3,9.17-6.16a27.7,27.7,0,0,0,4.56-14.73,110.12,110.12,0,0,0,11-5.06c.76-.4.11-1.67-.65-1.26a116.51,116.51,0,0,1-11,5.06,34,34,0,0,0-23.64-11.33c-.58,0-1.31.11-1.33.66,1.34,3.8,5.11,6.53,8.92,8.28a35.88,35.88,0,0,0,13.72,3.28,119,119,0,0,1-13.34,4.1l-.56-.46a34,34,0,0,0-23.94-11.66c-.58,0-1.32.12-1.33.67,1.34,3.8,5.11,6.52,8.91,8.27a35.49,35.49,0,0,0,16.56,3.27,127.39,127.39,0,0,1-19,3.09l-.08-.1A34.31,34.31,0,0,0,2163,601.84c-.57-.11-1.34-.09-1.45.44.73,3.9,4.07,7.11,7.6,9.39a36.76,36.76,0,0,0,13.83,5.38,132.74,132.74,0,0,1-17.39.05,34.14,34.14,0,0,0-20.09-17.2c-.56-.18-1.33-.26-1.51.25.19,3.89,3.11,7.46,6.35,10.14a37.6,37.6,0,0,0,11.68,6.54,135.65,135.65,0,0,1-13.79-1.93,33,33,0,0,0-24.21-6.53C2123.49,608.45,2122.81,608.72,2122.89,609.27Z"></path> </g> <g class="cls-10"> <path class="cls-2" d="M2186,210.09c-4.54,3.24-6.73,9.15-7.61,14.7a45.65,45.65,0,0,0,1.69,21.67,188,188,0,0,0-.49,20.25A34.77,34.77,0,0,0,2158,244.39c-.69-.24-1.67-.32-2,.41-.67,5.56,2.29,10.55,5.86,14.25a36.78,36.78,0,0,0,17.84,10.18,184.22,184.22,0,0,0,2.36,22.5,34.11,34.11,0,0,0-23.72-17.45c-.72-.13-1.71-.08-2,.69,0,5.53,3.62,10,7.66,13.13a37,37,0,0,0,18.72,7.43,174.66,174.66,0,0,0,5.15,20.29,34,34,0,0,0-25.25-11.63c-.74,0-1.73.21-1.88,1,.85,5.38,5.11,9.13,9.64,11.49a37.73,37.73,0,0,0,19.18,4.14,163.05,163.05,0,0,0,7.91,18.62,34,34,0,0,0-26.8-13.55c-.75,0-1.73.21-1.89,1,.85,5.38,5.12,9.13,9.64,11.5a37.94,37.94,0,0,0,20.58,4.05,153.43,153.43,0,0,0,8.41,14.08c.65,1,2.27-.09,1.62-1.06a156.47,156.47,0,0,1-8.42-14.12,46,46,0,0,0,12-33.51c-.06-.78-.34-1.75-1.09-1.7-5,2.35-8.1,7.83-9.93,13.21a48.7,48.7,0,0,0-2.49,19,161.65,161.65,0,0,1-7.44-17.42l.54-.83a46,46,0,0,0,12.37-33.95c-.06-.78-.35-1.76-1.09-1.71-5,2.35-8.1,7.84-9.94,13.21a48.09,48.09,0,0,0-2.06,22.8,171.55,171.55,0,0,1-6.87-25.15l.11-.12a46.52,46.52,0,0,0,17.09-32c.06-.79-.08-1.82-.81-1.89-5.17,1.53-9,6.5-11.63,11.58a50.3,50.3,0,0,0-5.31,19.42,180.43,180.43,0,0,1-2.54-23.45,46.29,46.29,0,0,0,20.42-29.54c.16-.79.16-1.84-.55-2-5.25.81-9.66,5.26-12.82,10A51,51,0,0,0,2181.3,264a183.52,183.52,0,0,1,.64-18.87c6.17-10.15,8.23-22.74,5.4-33.6C2187.15,210.77,2186.69,209.89,2186,210.09Z"></path> </g> <path class="cls-11" d="M2190.69,436.54a242.36,242.36,0,0,0-1.08-26,73.57,73.57,0,0,0,23.48-26.58c3.89-7.6,6.26-16.59,2.77-23.94-.87-.78-2.35,0-3.32.79-13.78,11.27-22.45,28-23.46,44.68a244.69,244.69,0,0,0-5.6-30.82,73.32,73.32,0,0,0,21.57-25.21c3.89-7.6,6.26-16.6,2.77-23.94-.87-.78-2.35,0-3.32.78a64.49,64.49,0,0,0-23.06,40.65,243,243,0,0,0-10.62-29.82A71.1,71.1,0,0,0,2189,308.45c2.62-8,3.49-17.16-1.21-23.83-1-.63-2.35.35-3.18,1.27-11.57,12.75-17.44,29.8-16.09,45.94a241,241,0,0,0-16.14-29.49,69,69,0,0,0,14.61-31c1.51-8.21,1.11-17.31-4.52-23.28-1.08-.49-2.29.64-3,1.64-10.27,14.66-13.64,33.2-9.14,49.46a242.68,242.68,0,0,0-18-23.73A60.36,60.36,0,0,0,2116,247.71c-5.91-5.72-13.82-10.5-22.53-9.6-1.13.54-1,2.09-.59,3.18,5.59,16,19,28.9,35.73,34.57a241.55,241.55,0,0,1,16.93,21.88A65.74,65.74,0,0,0,2122,285.4c-8.18-2.36-17.76-3-25.31,1.51-.78,1,.11,2.22,1,3,13.44,11.84,33.12,17.08,51.93,13.9a240.77,240.77,0,0,1,16.72,30.76,63.62,63.62,0,0,0-23.51-17.66c-7.72-3.37-17-5.24-25.1-1.62-.9.85-.2,2.23.56,3.11,11.68,13.62,30.55,21.34,49.67,20.32l.24,0a239.84,239.84,0,0,1,12.54,37.4v0A61.43,61.43,0,0,0,2158.52,351c-7-4.52-15.79-7.77-24.27-5.37-1,.73-.57,2.2,0,3.19,9.16,15.33,26.32,25.84,45.19,27.67l1.43.42a239.13,239.13,0,0,1,5.16,28.76,61.87,61.87,0,0,0-19.5-20.17c-7-4.52-15.79-7.77-24.27-5.37-1,.73-.57,2.2,0,3.19,9,15.09,25.78,25.49,44.3,27.56a239.81,239.81,0,0,1,1.05,25.48C2187.65,438.19,2190.67,438.4,2190.69,436.54Z"></path> <g class="cls-12"> <path class="cls-13" d="M2266.73,602.17c-26.62,6.72-55.19,13.34-78.31,3.26C2176,600,2166,590,2152.62,586.77c-12.07-2.95-25.47-.07-38.38.67-39.92,2.3-78.14-18.87-90.91-56-2.28-6.64-3.76-14-1.86-21.46,3.79-14.9,19.78-24.76,34.14-27.19,16.89-2.85,33.72,1.78,45.38,12.5,16.74,15.36,23.57,42.53,45.15,50.4,12.31,4.49,27.14,1.57,39.69,5.52,16.07,5.07,25.73,20.3,36.8,32.77s27.46,23.19,44.79,16.58"></path> </g> <g class="cls-9"> <path class="cls-2" d="M2026.86,500.2c11.46,8.38,19.89,20,29.27,30.51a97.92,97.92,0,0,0,15,14.09,60.84,60.84,0,0,0,20.52,9.51c8,2.13,16.3,3.14,24.5,4.43a135.06,135.06,0,0,1,24,5.75,106.42,106.42,0,0,1,32,17.94c3.09,2.52,6.11,5.14,9.36,7.46a40.06,40.06,0,0,0,22.06,7.5c8.43.35,17-1.13,25.18-3.07,2.06-.49,4.1-1,6.13-1.59a1,1,0,0,0-.52-1.9c-15.84,3-33.37,8.15-48.28-.81-6.91-4.15-12.63-10-19.23-14.59a108.44,108.44,0,0,0-21-11.35,115.11,115.11,0,0,0-23.45-6.65c-8.13-1.44-16.37-2.31-24.47-3.94-7.69-1.55-15.24-3.87-22-8a79.06,79.06,0,0,1-15.83-13.37c-9.51-10-17.65-21.62-28.67-30.15q-1.95-1.52-4-2.88c-.69-.46-1.3.63-.64,1.11Z"></path> <path class="cls-2" d="M2107.77,555.75a73.05,73.05,0,0,1-27.47-16.12,70.77,70.77,0,0,1-17.48-27,86.16,86.16,0,0,1-4.38-18.41c-.11-.82-1.39-.87-1.33,0,1.46,22.28,14.06,43.59,33.26,55.13a54.55,54.55,0,0,0,17.27,6.89.25.25,0,0,0,.13-.49Z"></path> <path class="cls-2" d="M2144,565.49c-16.87-1.07-34.09,2.22-50,7.81a139.47,139.47,0,0,0-13.62,5.65c-.93.44-.12,1.77.8,1.37a154.21,154.21,0,0,1,49.07-13.12c4.55-.4,9.15-.65,13.72-.74a.49.49,0,0,0,0-1Z"></path> <path class="cls-2" d="M2053.75,525.58a87.49,87.49,0,0,0-33-7.34c-1.1,0-1.1,1.7,0,1.72a90.91,90.91,0,0,1,32.61,6.51c.5.2.87-.67.37-.89Z"></path> </g> <g class="cls-12"> <path class="cls-13" d="M2178.82,508.78c11.7-12.5,23.93-26.09,25.38-41.74.78-8.41-1.67-16.88.57-25.15,2-7.48,7.64-13.92,11.93-20.74,13.28-21.09,13.21-48.31-3.29-66.48-2.94-3.24-6.54-6.27-11.18-7.48-9.3-2.42-19.51,3.34-25.16,10.44-6.65,8.36-9.19,18.93-6.84,28.52,3.37,13.76,16.18,25.67,14,39.81-1.25,8.07-7.32,15.29-8.93,23.32-2.08,10.3,3.36,20.15,6.84,30s4.42,22-4.42,29.43"></path> </g> <g class="cls-9"> <path class="cls-2" d="M2194.23,347.2c.7,9.13,4.61,17.46,7.5,26a55,55,0,0,1,3.06,13.26,39,39,0,0,1-1.74,14c-1.41,4.79-3.33,9.41-5,14.1a75.31,75.31,0,0,0-3.82,14.68,68.2,68.2,0,0,0-.55,15.31c.4,5.14,1.83,10.12,2.26,15.24a24.26,24.26,0,0,1-3.91,14.89c-2.82,4.63-6.58,8.49-9.91,12.73-.76,1,.45,2.29,1.39,1.4a68.9,68.9,0,0,0,9.42-11.17,30.32,30.32,0,0,0,5.23-12.16c.8-5.15-.48-10.17-1.35-15.22a65.29,65.29,0,0,1-.78-15.55,68.8,68.8,0,0,1,3-15.88c1.51-4.84,3.46-9.54,5.07-14.35a49.37,49.37,0,0,0,2.9-14.35,43.59,43.59,0,0,0-2-13.36c-2.94-10-8-19.37-9.52-29.79-.1-.71-1.31-.54-1.26.17Z"></path> <path class="cls-2" d="M2201.7,408.18c4.6-13.12-.48-28.35-9.26-38.51a40,40,0,0,0-9.41-8c-.75-.46-1.34.65-.67,1.15,10.84,8.19,18.62,20,19.46,33.83a56.93,56.93,0,0,1-.61,11.37.25.25,0,0,0,.49.14Z"></path> <path class="cls-2" d="M2196.4,431.18a114.87,114.87,0,0,1,11.49-16,106.81,106.81,0,0,1,15-13.91c.78-.6.05-2-.8-1.36a85.72,85.72,0,0,0-15.47,14,68.37,68.37,0,0,0-11.06,16.8.49.49,0,0,0,.84.49Z"></path> </g> <g class="cls-12"> <path class="cls-14" d="M2161.64,568.49c-5.75-14.72-20.36-24-34.84-30.33-9-3.95-19.38-8.31-22.38-17.64-1.85-5.74-.39-12.34-3.16-17.69-3.12-6-10.35-8.35-16.08-12-6.12-3.87-11-9.91-12.61-17s.53-15,6-19.73c6.57-5.6,16.25-5.64,24.7-3.84,9.52,2,19.49,6.89,23,16,1.54,4,1.84,8.8,5,11.68s7.78,2.73,11.57,4.46c6.13,2.81,9.1,10,9.5,16.73s-1.18,13.4-1.4,20.14c-.58,16.87,7.25,32.77,10.91,49.25"></path> </g> <g class="cls-5"> <path class="cls-2" d="M2079.07,453.91c7.48,1.65,15.12,5.14,20.63,10.53a26.94,26.94,0,0,1,6.37,9.31c1.78,4.53,2.09,9.42,2.57,14.22a41.86,41.86,0,0,0,2.78,12.65,22.3,22.3,0,0,0,8.26,9.43c3.61,2.49,7.42,4.62,10.72,7.54A28.29,28.29,0,0,1,2138,528c2,4.82,3.51,9.72,6.11,14.27a45.74,45.74,0,0,0,9.35,11.89,1.46,1.46,0,0,0,2.06-2.06,73.91,73.91,0,0,1-8.09-10.79c-2.39-4.06-3.92-8.36-5.65-12.71a32,32,0,0,0-7.38-11.36,60.79,60.79,0,0,0-10.44-7.66c-3.79-2.35-7.45-4.82-9.61-8.85s-2.78-8.59-3.25-13c-.5-4.75-.84-9.62-2.54-14.13a28.74,28.74,0,0,0-6-9.55c-6.08-6.5-14.53-10.16-23.22-11.34-.76-.11-1.12,1-.33,1.19Z"></path> <path class="cls-2" d="M2132.28,515.9c.37-.86-.21-1.87-.46-2.71s-.56-1.86-.78-2.81a33.64,33.64,0,0,1,1.13-18.65c.47-1.36-1.59-1.85-2.11-.58a30.43,30.43,0,0,0-2.13,13.35,31.18,31.18,0,0,0,1.08,6.44,22.76,22.76,0,0,0,1.09,3.2c.37.85.63,1.79,1.56,2.12a.52.52,0,0,0,.62-.36Z"></path> <path class="cls-2" d="M2111.65,493.12c-2.2-8.72-9.24-16.06-18.15-17.86a.75.75,0,0,0-.4,1.44c8.11,2.2,15.16,8.53,17.47,16.72a.56.56,0,0,0,1.08-.3Z"></path> <path class="cls-2" d="M2107.86,472.69a23.53,23.53,0,0,0-.4-4.5c-.17-1.52-.28-3-.32-4.56a48.6,48.6,0,0,1,.55-9.18c.24-1.5-2.06-2.13-2.29-.63a48.05,48.05,0,0,0-.52,9.81,43.53,43.53,0,0,0,.55,4.83,12.62,12.62,0,0,0,1.36,4.52.58.58,0,0,0,1.07-.29Z"></path> </g> <g class="cls-12"> <path class="cls-11" d="M2239.12,597.37c-12.53-13.5-15.65-28.38-13.76-46.69,1.24-12.08,5.85-23.6,7.25-35.66s-1.32-25.85-11.32-32.74c-4.5-3.11-10-4.47-14.63-7.36-8.34-5.18-13-14.7-15.34-24.23s-2.67-19.42-4.64-29c-7.06-34.41-37.77-63.52-72.87-65.67-9.68-.6-20.56,1.32-26.35,9.09-2.82,3.79-4.07,8.55-4.41,13.26-1.8,24.68,18.61,44.49,30.52,66.19,2.14,3.91,4.06,8.06,4.54,12.49.57,5.37-1,10.7-2.17,16-4,18-1.42,40.27,14.51,49.59,5.58,3.27,12.37,4.63,17,9.12,4.31,4.16,6,10.24,7.66,16,5.31,18.33,13.67,38,31,46,7.5,3.45,15.9,4.31,23.87,6.45a75.36,75.36,0,0,1,36,22c-1.08-9.84-2.31-15.94-6.88-24.73"></path> </g> <g class="cls-5"> <path class="cls-2" d="M2096.25,378.11c7.13,6.19,14.59,11.91,22.07,17.66s14.9,11.79,21.32,18.79A81.41,81.41,0,0,1,2155.11,439c3.91,9.73,5.58,20,6.32,30.4,1.41,19.62.46,40.68,10.49,58.36,4.54,8,11.28,14.27,17.78,20.63a116,116,0,0,1,9.3,9.9,57,57,0,0,1,7.37,12.14c2.12,4.59,3.93,9.32,6.37,13.75a61.67,61.67,0,0,0,7.47,10.66,60.26,60.26,0,0,0,20.58,15.46,51.83,51.83,0,0,0,6,2.19c1.05.32,1.4-1.21.44-1.6a67.36,67.36,0,0,1-21.83-14.21,60.06,60.06,0,0,1-8.2-10,86.28,86.28,0,0,1-6.52-12.82,80.94,80.94,0,0,0-6.81-13.34,75.84,75.84,0,0,0-8.49-10.19c-6.27-6.46-13.27-12.35-18.51-19.73-11.72-16.48-11.52-37.59-12.69-56.92-.64-10.37-1.79-20.78-5.15-30.67a83.31,83.31,0,0,0-13.71-25c-11.66-14.6-27.76-24.92-42.44-36.18-1.94-1.49-3.84-3-5.68-4.62-.68-.58-1.66.4-1,1Z"></path> <path class="cls-2" d="M2155,434.68c-1.33-7-3.14-14-4.34-21.06s-2.16-14.32-2.74-21.54c-.08-1.07-1.74-1.09-1.67,0a181.44,181.44,0,0,0,2.62,21.54c1.33,7.17,2.85,14.44,5.51,21.24a.32.32,0,0,0,.62-.18Z"></path> <path class="cls-2" d="M2186.31,542.11a266.3,266.3,0,0,1,.39-31.46,202.14,202.14,0,0,1,5-30.82c1.39-5.78,3-11.52,4.88-17.17.37-1.13-1.4-1.61-1.78-.49a199.22,199.22,0,0,0-10.39,62.09,152,152,0,0,0,.77,17.85c.08.72,1.19.76,1.16,0Z"></path> <path class="cls-2" d="M2162.72,472.92c-7.79-14.39-21.44-25.57-36.68-31.35a69.85,69.85,0,0,0-13.55-3.62c-1.09-.18-1.56,1.48-.46,1.67a73.67,73.67,0,0,1,41.4,22.83,81.49,81.49,0,0,1,8.4,11,.52.52,0,0,0,.89-.52Z"></path> <path class="cls-2" d="M2214.79,584.39c-9-11-21.93-19-35.5-23-.9-.27-1.27,1.12-.38,1.4a78.81,78.81,0,0,1,19.06,8.83,85,85,0,0,1,16,13.59c.5.54,1.24-.24.79-.79Z"></path> <path class="cls-2" d="M2168.33,516.38a115.12,115.12,0,0,0-23-24.21c-.61-.49-1.49.38-.87.88a152.72,152.72,0,0,1,23.27,23.8c.28.35.87-.11.61-.47Z"></path> <path class="cls-2" d="M2116.87,393.73c-1.18-1.37-3.18-2.29-4.75-3.13a36.08,36.08,0,0,0-5.46-2.35,42,42,0,0,0-11.74-2.15c-.88,0-.88,1.35,0,1.38a40.6,40.6,0,0,1,11.41,2,48.48,48.48,0,0,1,5.42,2.15c1.64.76,3.18,1.95,4.87,2.54.26.09.4-.24.25-.41Z"></path> </g> <g class="cls-12"> <path class="cls-11" d="M2221.4-11.07c-13.87,10-28,11.23-44.67,7.44-11-2.49-21.14-8-32.12-10.67s-24-1.68-31.51,6.76c-3.37,3.79-5.25,8.7-8.43,12.65-5.72,7.09-15,10.34-24.1,11.41s-18.24.28-27.33,1c-32.57,2.64-62.9,27.65-68.82,59.74-1.64,8.84-1.08,19.07,5.44,25.27a23.39,23.39,0,0,0,11.76,5.55c22.59,4.42,43.18-12.15,64.55-20.68,3.86-1.54,7.9-2.84,12-2.78,5,.07,9.77,2.12,14.51,3.78,16.18,5.69,37,5.83,47.43-7.8,3.64-4.77,5.66-10.87,10.32-14.65,4.33-3.49,10.14-4.37,15.63-5.26,17.52-2.83,36.6-8.33,45.93-23.4,4-6.52,5.77-14.16,8.64-21.26A69.9,69.9,0,0,1,2245-14.63c-9.21-.11-15,.35-23.61,3.56"></path> </g> <g class="cls-5"> <path class="cls-2" d="M2003,95.9c6.44-5.81,12.52-12,18.61-18.13s12.32-12.23,19.36-17.29a76.3,76.3,0,0,1,24.36-11.74c9.55-2.63,19.37-3,29.23-2.52,18.59.92,38.21,4.19,55.9-3.5,7.75-3.37,14.2-8.92,20.74-14.14a96.45,96.45,0,0,1,10.2-7.34,54.87,54.87,0,0,1,12.33-5.35c4.41-1.37,8.89-2.54,13.16-4.32a57,57,0,0,0,10.39-5.64,56.8,56.8,0,0,0,16.26-17,43.34,43.34,0,0,0,2.67-5.32c.42-.95-.89-1.79-1.43-.84a63.74,63.74,0,0,1-15.2,18.24,55.71,55.71,0,0,1-10,6.48,73.65,73.65,0,0,1-12.35,4.6,85,85,0,0,0-13.08,4.62,63.43,63.43,0,0,0-10.38,6.51c-6.7,5-12.88,10.73-20.17,14.89-16.68,9.51-36.58,6.9-54.87,5.8-9.79-.59-19.64-.66-29.27,1.39a76.88,76.88,0,0,0-25.08,10.24c-14.52,9.21-25.74,22.7-37.68,34.85-1.51,1.54-3.06,3-4.67,4.49-.66.6.32,1.58,1,1Z"></path> <path class="cls-2" d="M2061.75,48.16c-6.69.28-13.36,1.3-20.08,1.6s-13.47.38-20.2.11c-1.08,0-1.07,1.61,0,1.67a166,166,0,0,0,20.44,0c6.63-.44,13.52-.91,19.93-2.73a.32.32,0,0,0-.09-.63Z"></path> <path class="cls-2" d="M2164.37,31.33a254.83,254.83,0,0,1-28.86-3.89,191,191,0,0,1-27.74-8q-7.84-2.89-15.42-6.45c-1.07-.49-2,1.08-.93,1.6a185.83,185.83,0,0,0,56.29,16.56,136.63,136.63,0,0,0,16.66,1.29c.76,0,.73-1.09,0-1.15Z"></path> <path class="cls-2" d="M2098,45.28c-14.22,5.55-26.25,16.92-33.26,30.43a66.62,66.62,0,0,0-4.81,12,.87.87,0,0,0,1.67.46,68.13,68.13,0,0,1,26-35.65,77.22,77.22,0,0,1,10.83-6.34c.52-.25.15-1.16-.39-.94Z"></path> <path class="cls-2" d="M2206.72,9.81c-11.19,7-20.08,18-25.29,30.07-.36.84.87,1.59,1.26.73A73.27,73.27,0,0,1,2193,24.05a79.51,79.51,0,0,1,14.34-13.27c.57-.42.06-1.36-.57-1Z"></path> <path class="cls-2" d="M2138.61,45a106.68,106.68,0,0,0-25,18.5.62.62,0,0,0,.87.87A144,144,0,0,1,2139,45.71a.39.39,0,0,0-.39-.68Z"></path> <path class="cls-2" d="M2019.63,78.65a15,15,0,0,0-3.37,3.9,32.23,32.23,0,0,0-2.86,4.84,39.08,39.08,0,0,0-3.32,10.54c-.14.87,1.2,1.24,1.33.37A37.61,37.61,0,0,1,2014.47,88a50.54,50.54,0,0,1,2.44-4.53q.72-1.17,1.5-2.28A16,16,0,0,0,2020,79c.1-.21-.12-.49-.34-.35Z"></path> </g> </g> </svg> 