<svg width="19" height="18" viewBox="0 0 19 18" fill="none" xmlns="http://www.w3.org/2000/svg">
<path d="M9.125 17.9716C14.0956 17.9716 18.125 13.9485 18.125 8.9858C18.125 4.02308 14.0956 0 9.125 0C4.15444 0 0.125 4.02308 0.125 8.9858C0.125 13.9485 4.15444 17.9716 9.125 17.9716Z" fill="#00C8C8"/>
<path d="M18.1014 9.00022C18.1013 8.51099 18.0616 8.02258 17.9825 7.53977L13.5612 3.12451L4.61328 14.8757L7.62438 17.8821C8.91451 18.0927 10.2351 18.0208 11.4946 17.6714C12.7542 17.3221 13.9227 16.7036 14.9192 15.8588C15.9157 15.0141 16.7164 13.9632 17.2659 12.7789C17.8154 11.5946 18.1006 10.3052 18.1017 9.00005L18.1014 9.00022Z" fill="#13AAAA"/>
<path d="M7.38902 3.12451L4.61328 5.89587V14.8757H13.5612V3.12451H7.38902Z" fill="white"/>
<path d="M9.08789 3.12451H13.5618V14.8757H9.08789V3.12451Z" fill="#E9EDF5"/>
<path d="M7.38903 5.89586V3.12451L4.61328 5.89586H7.38903Z" fill="#E9EDF5"/>
<path d="M5.94922 11.0273H12.2254V12.0821H5.94922V11.0273Z" fill="#9196AA"/>
<path d="M9.08789 11.0273H12.226V12.0821H9.08789V11.0273Z" fill="#707789"/>
<path d="M7.04688 12.5493H11.1308V13.604H7.04688V12.5493Z" fill="#9196AA"/>
<path d="M9.08789 12.5493H11.1298V13.604H9.08789V12.5493Z" fill="#707789"/>
<path d="M9.93386 10.211L9.76507 9.72068H8.41983L8.25104 10.211H7.25391L8.53768 6.80469H9.64247L10.9313 10.211H9.93386ZM9.0882 7.67292L8.65518 8.95468H9.52479L9.0882 7.67292Z" fill="#7584F2"/>
<path d="M9.08789 7.67292L9.52431 8.95468H9.08789V9.72068H9.76476L9.93355 10.211H10.931L9.64198 6.80469H9.08789V7.67292Z" fill="#606AEA"/>
<path d="M12.7233 5.40563H11.9972V4.68066H10.9408V5.40563H10.2148V6.46036H10.941V7.18533H11.9974V6.46036H12.7235L12.7233 5.40563Z" fill="#606AEA"/>
</svg>
